M48
;GenerationSoftware,Autodesk,EAGLE,9.6.2*%
;CreationDate,2025-12-19T22:52:09Z*%
FMAT,2
ICI,OFF
METRIC,TZ,000.000
T9C0.305
T8C0.889
T7C0.920
T6C1.000
T5C1.400
T4C2.300
T3C2.500
T2C3.000
T1C3.175
%
G90
M71
T1
X5080Y95250
X5080Y5080
X121920Y5080
X121920Y95250
T2
X20320Y94615
X20320Y37465
X96520Y94615
X96520Y37465
T3
X36910Y19700
X46910Y19700
X80090Y19700
X90090Y19700
T4
X115480Y89070
X102340Y89070
T5
X12800Y27900
X25300Y22900
X25300Y27900
X106780Y27900
X106780Y22900
X119280Y22900
X119280Y27900
X12800Y22900
T6
X96520Y44450
X96520Y46990
X96520Y49530
X96520Y52070
X96520Y41910
X96520Y57150
X96520Y59690
X96520Y62230
X96520Y64770
X96520Y67310
X96520Y69850
X96520Y72390
X96520Y74930
X96520Y77470
X96520Y80010
X96520Y82550
X96520Y85090
X96520Y87630
X96520Y90170
X87590Y12700
X85090Y12700
X82590Y12700
X44410Y12700
X41910Y12700
X39410Y12700
X96520Y54610
T7
X105410Y86360
X107910Y86360
X109910Y86360
X112410Y86360
T8
X80290Y79180
X80290Y94420
X77750Y94420
X80290Y91880
X77750Y91880
X80290Y89340
X77750Y89340
X80290Y86800
X77750Y86800
X80290Y84260
X77750Y84260
X80290Y81720
X77750Y81720
X52350Y51240
X77750Y79180
X80290Y76640
X77750Y76640
X80290Y74100
X77750Y74100
X80290Y71560
X77750Y71560
X80290Y69020
X77750Y69020
X80290Y66480
X77750Y66480
X80290Y63940
X77750Y63940
X80290Y61400
X77750Y61400
X80290Y58860
X77750Y58860
X80290Y56320
X77750Y56320
X80290Y53780
X77750Y53780
X80290Y51240
X77750Y51240
X54890Y94420
X52350Y94420
X54890Y91880
X52350Y91880
X54890Y89340
X52350Y89340
X54890Y86800
X52350Y86800
X54890Y84260
X52350Y84260
X54890Y81720
X52350Y81720
X54890Y79180
X52350Y79180
X54890Y76640
X52350Y76640
X54890Y74100
X52350Y74100
X54890Y71560
X52350Y71560
X54890Y69020
X52350Y69020
X54890Y66480
X52350Y66480
X54890Y63940
X52350Y63940
X54890Y61400
X52350Y61400
X54890Y58860
X52350Y58860
X54890Y56320
X52350Y56320
X54890Y53780
X52350Y53780
X54890Y51240
T9
X66040Y73660
X76200Y12700
X7620Y91440
X12700Y86360
X12700Y71120
X12700Y53340
X10160Y22860
M30