G04 EAGLE Gerber RS-274X export*
G75*
%MOMM*%
%FSLAX34Y34*%
%LPD*%
%INSilkscreen Top*%
%IPPOS*%
%AMOC8*
5,1,8,0,0,1.08239X$1,22.5*%
G01*
%ADD10C,0.152400*%
%ADD11C,0.127000*%
%ADD12C,0.101600*%
%ADD13C,0.076200*%
%ADD14C,0.200000*%
%ADD15C,0.254000*%

G36*
X99605Y873676D02*
X99605Y873676D01*
X99705Y873675D01*
X99719Y873679D01*
X99731Y873679D01*
X99774Y873697D01*
X99884Y873733D01*
X103884Y875733D01*
X103919Y875759D01*
X103960Y875778D01*
X104009Y875826D01*
X104063Y875867D01*
X104088Y875904D01*
X104119Y875936D01*
X104148Y875998D01*
X104185Y876055D01*
X104195Y876099D01*
X104214Y876139D01*
X104219Y876208D01*
X104234Y876274D01*
X104228Y876319D01*
X104231Y876363D01*
X104212Y876429D01*
X104203Y876497D01*
X104182Y876536D01*
X104170Y876579D01*
X104129Y876634D01*
X104097Y876694D01*
X104063Y876724D01*
X104037Y876760D01*
X103966Y876809D01*
X103928Y876843D01*
X103907Y876851D01*
X103884Y876867D01*
X99884Y878867D01*
X99788Y878895D01*
X99694Y878927D01*
X99681Y878927D01*
X99668Y878931D01*
X99569Y878924D01*
X99469Y878921D01*
X99458Y878916D01*
X99445Y878915D01*
X99354Y878874D01*
X99262Y878836D01*
X99252Y878828D01*
X99240Y878822D01*
X99169Y878752D01*
X99096Y878685D01*
X99090Y878674D01*
X99081Y878664D01*
X99039Y878574D01*
X98993Y878485D01*
X98991Y878471D01*
X98986Y878461D01*
X98983Y878414D01*
X98966Y878300D01*
X98966Y874300D01*
X98983Y874202D01*
X98997Y874103D01*
X99003Y874092D01*
X99005Y874079D01*
X99056Y873993D01*
X99103Y873906D01*
X99113Y873897D01*
X99120Y873886D01*
X99197Y873823D01*
X99272Y873757D01*
X99284Y873753D01*
X99294Y873745D01*
X99388Y873713D01*
X99481Y873677D01*
X99494Y873677D01*
X99506Y873673D01*
X99605Y873676D01*
G37*
G36*
X99605Y708576D02*
X99605Y708576D01*
X99705Y708575D01*
X99719Y708579D01*
X99731Y708579D01*
X99774Y708597D01*
X99884Y708633D01*
X103884Y710633D01*
X103919Y710659D01*
X103960Y710678D01*
X104009Y710726D01*
X104063Y710767D01*
X104088Y710804D01*
X104119Y710836D01*
X104148Y710898D01*
X104185Y710955D01*
X104195Y710999D01*
X104214Y711039D01*
X104219Y711108D01*
X104234Y711174D01*
X104228Y711219D01*
X104231Y711263D01*
X104212Y711329D01*
X104203Y711397D01*
X104182Y711436D01*
X104170Y711479D01*
X104129Y711534D01*
X104097Y711594D01*
X104063Y711624D01*
X104037Y711660D01*
X103966Y711709D01*
X103928Y711743D01*
X103907Y711751D01*
X103884Y711767D01*
X99884Y713767D01*
X99788Y713795D01*
X99694Y713827D01*
X99681Y713827D01*
X99668Y713831D01*
X99569Y713824D01*
X99469Y713821D01*
X99458Y713816D01*
X99445Y713815D01*
X99354Y713774D01*
X99262Y713736D01*
X99252Y713728D01*
X99240Y713722D01*
X99169Y713652D01*
X99096Y713585D01*
X99090Y713574D01*
X99081Y713564D01*
X99039Y713474D01*
X98993Y713385D01*
X98991Y713371D01*
X98986Y713361D01*
X98983Y713314D01*
X98966Y713200D01*
X98966Y709200D01*
X98983Y709102D01*
X98997Y709003D01*
X99003Y708992D01*
X99005Y708979D01*
X99056Y708893D01*
X99103Y708806D01*
X99113Y708797D01*
X99120Y708786D01*
X99197Y708723D01*
X99272Y708657D01*
X99284Y708653D01*
X99294Y708645D01*
X99388Y708613D01*
X99481Y708577D01*
X99494Y708577D01*
X99506Y708573D01*
X99605Y708576D01*
G37*
G36*
X99605Y530776D02*
X99605Y530776D01*
X99705Y530775D01*
X99719Y530779D01*
X99731Y530779D01*
X99774Y530797D01*
X99884Y530833D01*
X103884Y532833D01*
X103919Y532859D01*
X103960Y532878D01*
X104009Y532926D01*
X104063Y532967D01*
X104088Y533004D01*
X104119Y533036D01*
X104148Y533098D01*
X104185Y533155D01*
X104195Y533199D01*
X104214Y533239D01*
X104219Y533308D01*
X104234Y533374D01*
X104228Y533419D01*
X104231Y533463D01*
X104212Y533529D01*
X104203Y533597D01*
X104182Y533636D01*
X104170Y533679D01*
X104129Y533734D01*
X104097Y533794D01*
X104063Y533824D01*
X104037Y533860D01*
X103966Y533909D01*
X103928Y533943D01*
X103907Y533951D01*
X103884Y533967D01*
X99884Y535967D01*
X99788Y535995D01*
X99694Y536027D01*
X99681Y536027D01*
X99668Y536031D01*
X99569Y536024D01*
X99469Y536021D01*
X99458Y536016D01*
X99445Y536015D01*
X99354Y535974D01*
X99262Y535936D01*
X99252Y535928D01*
X99240Y535922D01*
X99169Y535852D01*
X99096Y535785D01*
X99090Y535774D01*
X99081Y535764D01*
X99039Y535674D01*
X98993Y535585D01*
X98991Y535571D01*
X98986Y535561D01*
X98983Y535514D01*
X98966Y535400D01*
X98966Y531400D01*
X98983Y531302D01*
X98997Y531203D01*
X99003Y531192D01*
X99005Y531179D01*
X99056Y531093D01*
X99103Y531006D01*
X99113Y530997D01*
X99120Y530986D01*
X99197Y530923D01*
X99272Y530857D01*
X99284Y530853D01*
X99294Y530845D01*
X99388Y530813D01*
X99481Y530777D01*
X99494Y530777D01*
X99506Y530773D01*
X99605Y530776D01*
G37*
D10*
X1023987Y793242D02*
X1016762Y793242D01*
X1016762Y809498D01*
X1023987Y809498D01*
X1022181Y802273D02*
X1016762Y802273D01*
X1028322Y804079D02*
X1033741Y804079D01*
X1030128Y809498D02*
X1030128Y795951D01*
X1030129Y795951D02*
X1030131Y795850D01*
X1030137Y795749D01*
X1030146Y795648D01*
X1030159Y795547D01*
X1030176Y795447D01*
X1030197Y795348D01*
X1030221Y795250D01*
X1030249Y795153D01*
X1030281Y795056D01*
X1030316Y794961D01*
X1030355Y794868D01*
X1030397Y794776D01*
X1030443Y794685D01*
X1030492Y794597D01*
X1030544Y794510D01*
X1030600Y794425D01*
X1030658Y794342D01*
X1030720Y794262D01*
X1030785Y794184D01*
X1030852Y794108D01*
X1030922Y794035D01*
X1030995Y793965D01*
X1031071Y793898D01*
X1031149Y793833D01*
X1031229Y793771D01*
X1031312Y793713D01*
X1031397Y793657D01*
X1031484Y793605D01*
X1031572Y793556D01*
X1031663Y793510D01*
X1031755Y793468D01*
X1031848Y793429D01*
X1031943Y793394D01*
X1032040Y793362D01*
X1032137Y793334D01*
X1032235Y793310D01*
X1032334Y793289D01*
X1032434Y793272D01*
X1032535Y793259D01*
X1032636Y793250D01*
X1032737Y793244D01*
X1032838Y793242D01*
X1033741Y793242D01*
X1042246Y793242D02*
X1045858Y793242D01*
X1042246Y793242D02*
X1042145Y793244D01*
X1042044Y793250D01*
X1041943Y793259D01*
X1041842Y793272D01*
X1041742Y793289D01*
X1041643Y793310D01*
X1041545Y793334D01*
X1041448Y793362D01*
X1041351Y793394D01*
X1041256Y793429D01*
X1041163Y793468D01*
X1041071Y793510D01*
X1040980Y793556D01*
X1040892Y793605D01*
X1040805Y793657D01*
X1040720Y793713D01*
X1040637Y793771D01*
X1040557Y793833D01*
X1040479Y793898D01*
X1040403Y793965D01*
X1040330Y794035D01*
X1040260Y794108D01*
X1040193Y794184D01*
X1040128Y794262D01*
X1040066Y794342D01*
X1040008Y794425D01*
X1039952Y794510D01*
X1039900Y794597D01*
X1039851Y794685D01*
X1039805Y794776D01*
X1039763Y794868D01*
X1039724Y794961D01*
X1039689Y795056D01*
X1039657Y795153D01*
X1039629Y795250D01*
X1039605Y795348D01*
X1039584Y795447D01*
X1039567Y795547D01*
X1039554Y795648D01*
X1039545Y795749D01*
X1039539Y795850D01*
X1039537Y795951D01*
X1039537Y801370D01*
X1039539Y801471D01*
X1039545Y801572D01*
X1039554Y801673D01*
X1039567Y801774D01*
X1039584Y801874D01*
X1039605Y801973D01*
X1039629Y802071D01*
X1039657Y802168D01*
X1039689Y802265D01*
X1039724Y802360D01*
X1039763Y802453D01*
X1039805Y802545D01*
X1039851Y802636D01*
X1039900Y802725D01*
X1039952Y802811D01*
X1040008Y802896D01*
X1040066Y802979D01*
X1040128Y803059D01*
X1040193Y803137D01*
X1040260Y803213D01*
X1040330Y803286D01*
X1040403Y803356D01*
X1040479Y803423D01*
X1040557Y803488D01*
X1040637Y803550D01*
X1040720Y803608D01*
X1040805Y803664D01*
X1040892Y803716D01*
X1040980Y803765D01*
X1041071Y803811D01*
X1041163Y803853D01*
X1041256Y803892D01*
X1041351Y803927D01*
X1041448Y803959D01*
X1041545Y803987D01*
X1041643Y804011D01*
X1041742Y804032D01*
X1041842Y804049D01*
X1041943Y804062D01*
X1042044Y804071D01*
X1042145Y804077D01*
X1042246Y804079D01*
X1045858Y804079D01*
X1052024Y809498D02*
X1052024Y793242D01*
X1052024Y804079D02*
X1056540Y804079D01*
X1056644Y804077D01*
X1056747Y804071D01*
X1056851Y804061D01*
X1056954Y804047D01*
X1057056Y804029D01*
X1057157Y804008D01*
X1057258Y803982D01*
X1057357Y803953D01*
X1057456Y803920D01*
X1057553Y803883D01*
X1057648Y803842D01*
X1057742Y803798D01*
X1057834Y803750D01*
X1057924Y803699D01*
X1058013Y803644D01*
X1058099Y803586D01*
X1058182Y803524D01*
X1058264Y803460D01*
X1058342Y803392D01*
X1058418Y803322D01*
X1058492Y803249D01*
X1058562Y803172D01*
X1058630Y803094D01*
X1058694Y803012D01*
X1058756Y802929D01*
X1058814Y802843D01*
X1058869Y802754D01*
X1058920Y802664D01*
X1058968Y802572D01*
X1059012Y802478D01*
X1059053Y802383D01*
X1059090Y802286D01*
X1059123Y802187D01*
X1059152Y802088D01*
X1059178Y801987D01*
X1059199Y801886D01*
X1059217Y801784D01*
X1059231Y801681D01*
X1059241Y801577D01*
X1059247Y801474D01*
X1059249Y801370D01*
X1059249Y793242D01*
X1066370Y799564D02*
X1077207Y799564D01*
X1083043Y793242D02*
X1088462Y809498D01*
X1093881Y793242D01*
X1092526Y797306D02*
X1084398Y797306D01*
X1099717Y799564D02*
X1110554Y799564D01*
X1122191Y793242D02*
X1122309Y793244D01*
X1122427Y793250D01*
X1122545Y793259D01*
X1122662Y793273D01*
X1122779Y793290D01*
X1122896Y793311D01*
X1123011Y793336D01*
X1123126Y793365D01*
X1123240Y793398D01*
X1123352Y793434D01*
X1123463Y793474D01*
X1123573Y793517D01*
X1123682Y793564D01*
X1123789Y793614D01*
X1123894Y793669D01*
X1123997Y793726D01*
X1124098Y793787D01*
X1124198Y793851D01*
X1124295Y793918D01*
X1124390Y793988D01*
X1124482Y794062D01*
X1124573Y794138D01*
X1124660Y794218D01*
X1124745Y794300D01*
X1124827Y794385D01*
X1124907Y794472D01*
X1124983Y794563D01*
X1125057Y794655D01*
X1125127Y794750D01*
X1125194Y794847D01*
X1125258Y794947D01*
X1125319Y795048D01*
X1125376Y795151D01*
X1125431Y795256D01*
X1125481Y795363D01*
X1125528Y795472D01*
X1125571Y795582D01*
X1125611Y795693D01*
X1125647Y795805D01*
X1125680Y795919D01*
X1125709Y796034D01*
X1125734Y796149D01*
X1125755Y796266D01*
X1125772Y796383D01*
X1125786Y796500D01*
X1125795Y796618D01*
X1125801Y796736D01*
X1125803Y796854D01*
X1122191Y793242D02*
X1122008Y793244D01*
X1121826Y793251D01*
X1121644Y793262D01*
X1121462Y793277D01*
X1121280Y793297D01*
X1121099Y793320D01*
X1120919Y793349D01*
X1120739Y793381D01*
X1120560Y793418D01*
X1120383Y793459D01*
X1120206Y793505D01*
X1120030Y793554D01*
X1119856Y793608D01*
X1119682Y793666D01*
X1119511Y793728D01*
X1119341Y793794D01*
X1119172Y793865D01*
X1119005Y793939D01*
X1118840Y794017D01*
X1118677Y794099D01*
X1118516Y794185D01*
X1118357Y794275D01*
X1118200Y794369D01*
X1118046Y794466D01*
X1117894Y794567D01*
X1117744Y794672D01*
X1117597Y794780D01*
X1117453Y794891D01*
X1117311Y795006D01*
X1117172Y795125D01*
X1117036Y795247D01*
X1116903Y795372D01*
X1116773Y795500D01*
X1117224Y805886D02*
X1117226Y806004D01*
X1117232Y806122D01*
X1117241Y806240D01*
X1117255Y806357D01*
X1117272Y806474D01*
X1117293Y806591D01*
X1117318Y806706D01*
X1117347Y806821D01*
X1117380Y806935D01*
X1117416Y807047D01*
X1117456Y807158D01*
X1117499Y807268D01*
X1117546Y807377D01*
X1117596Y807484D01*
X1117651Y807589D01*
X1117708Y807692D01*
X1117769Y807793D01*
X1117833Y807893D01*
X1117900Y807990D01*
X1117970Y808085D01*
X1118044Y808177D01*
X1118120Y808268D01*
X1118200Y808355D01*
X1118282Y808440D01*
X1118367Y808522D01*
X1118454Y808602D01*
X1118545Y808678D01*
X1118637Y808752D01*
X1118732Y808822D01*
X1118829Y808889D01*
X1118929Y808953D01*
X1119030Y809014D01*
X1119133Y809072D01*
X1119238Y809126D01*
X1119345Y809176D01*
X1119454Y809223D01*
X1119564Y809267D01*
X1119675Y809306D01*
X1119788Y809342D01*
X1119901Y809375D01*
X1120016Y809404D01*
X1120131Y809429D01*
X1120248Y809450D01*
X1120365Y809467D01*
X1120482Y809481D01*
X1120600Y809490D01*
X1120718Y809496D01*
X1120836Y809498D01*
X1120997Y809496D01*
X1121159Y809490D01*
X1121320Y809481D01*
X1121481Y809467D01*
X1121641Y809450D01*
X1121801Y809429D01*
X1121961Y809404D01*
X1122120Y809375D01*
X1122278Y809343D01*
X1122435Y809307D01*
X1122591Y809267D01*
X1122747Y809223D01*
X1122901Y809175D01*
X1123054Y809124D01*
X1123206Y809070D01*
X1123357Y809011D01*
X1123506Y808950D01*
X1123653Y808884D01*
X1123799Y808815D01*
X1123944Y808743D01*
X1124086Y808667D01*
X1124227Y808588D01*
X1124366Y808506D01*
X1124502Y808420D01*
X1124637Y808331D01*
X1124770Y808239D01*
X1124900Y808143D01*
X1119029Y802725D02*
X1118928Y802787D01*
X1118828Y802852D01*
X1118731Y802921D01*
X1118636Y802993D01*
X1118543Y803067D01*
X1118453Y803145D01*
X1118365Y803226D01*
X1118280Y803309D01*
X1118198Y803395D01*
X1118119Y803484D01*
X1118042Y803575D01*
X1117969Y803669D01*
X1117898Y803765D01*
X1117831Y803863D01*
X1117767Y803963D01*
X1117706Y804066D01*
X1117649Y804170D01*
X1117595Y804276D01*
X1117545Y804384D01*
X1117498Y804493D01*
X1117454Y804604D01*
X1117414Y804716D01*
X1117378Y804830D01*
X1117346Y804944D01*
X1117317Y805060D01*
X1117292Y805176D01*
X1117271Y805293D01*
X1117254Y805411D01*
X1117240Y805529D01*
X1117231Y805648D01*
X1117225Y805767D01*
X1117223Y805886D01*
X1123997Y800015D02*
X1124098Y799953D01*
X1124198Y799888D01*
X1124295Y799819D01*
X1124390Y799747D01*
X1124483Y799673D01*
X1124573Y799595D01*
X1124661Y799514D01*
X1124746Y799431D01*
X1124828Y799345D01*
X1124907Y799256D01*
X1124984Y799165D01*
X1125057Y799071D01*
X1125128Y798975D01*
X1125195Y798877D01*
X1125259Y798777D01*
X1125320Y798674D01*
X1125377Y798570D01*
X1125431Y798464D01*
X1125481Y798356D01*
X1125528Y798247D01*
X1125572Y798136D01*
X1125612Y798024D01*
X1125648Y797910D01*
X1125680Y797796D01*
X1125709Y797680D01*
X1125734Y797564D01*
X1125755Y797447D01*
X1125772Y797329D01*
X1125786Y797211D01*
X1125795Y797092D01*
X1125801Y796973D01*
X1125803Y796854D01*
X1123997Y800015D02*
X1119030Y802725D01*
X1132433Y809498D02*
X1132433Y793242D01*
X1132433Y798661D02*
X1139658Y804079D01*
X1135594Y800918D02*
X1139658Y793242D01*
X1148000Y793242D02*
X1152515Y793242D01*
X1148000Y793242D02*
X1147899Y793244D01*
X1147798Y793250D01*
X1147697Y793259D01*
X1147596Y793272D01*
X1147496Y793289D01*
X1147397Y793310D01*
X1147299Y793334D01*
X1147202Y793362D01*
X1147105Y793394D01*
X1147010Y793429D01*
X1146917Y793468D01*
X1146825Y793510D01*
X1146734Y793556D01*
X1146646Y793605D01*
X1146559Y793657D01*
X1146474Y793713D01*
X1146391Y793771D01*
X1146311Y793833D01*
X1146233Y793898D01*
X1146157Y793965D01*
X1146084Y794035D01*
X1146014Y794108D01*
X1145947Y794184D01*
X1145882Y794262D01*
X1145820Y794342D01*
X1145762Y794425D01*
X1145706Y794510D01*
X1145654Y794597D01*
X1145605Y794685D01*
X1145559Y794776D01*
X1145517Y794868D01*
X1145478Y794961D01*
X1145443Y795056D01*
X1145411Y795153D01*
X1145383Y795250D01*
X1145359Y795348D01*
X1145338Y795447D01*
X1145321Y795547D01*
X1145308Y795648D01*
X1145299Y795749D01*
X1145293Y795850D01*
X1145291Y795951D01*
X1145290Y795951D02*
X1145290Y800467D01*
X1145291Y800467D02*
X1145293Y800586D01*
X1145299Y800706D01*
X1145309Y800825D01*
X1145323Y800943D01*
X1145340Y801062D01*
X1145362Y801179D01*
X1145387Y801296D01*
X1145417Y801411D01*
X1145450Y801526D01*
X1145487Y801640D01*
X1145527Y801752D01*
X1145572Y801863D01*
X1145620Y801972D01*
X1145671Y802080D01*
X1145726Y802186D01*
X1145785Y802290D01*
X1145847Y802392D01*
X1145912Y802492D01*
X1145981Y802590D01*
X1146053Y802686D01*
X1146128Y802779D01*
X1146205Y802869D01*
X1146286Y802957D01*
X1146370Y803042D01*
X1146457Y803124D01*
X1146546Y803204D01*
X1146638Y803280D01*
X1146732Y803354D01*
X1146829Y803424D01*
X1146927Y803491D01*
X1147028Y803555D01*
X1147132Y803615D01*
X1147237Y803672D01*
X1147344Y803725D01*
X1147452Y803775D01*
X1147562Y803821D01*
X1147674Y803863D01*
X1147787Y803902D01*
X1147901Y803937D01*
X1148016Y803968D01*
X1148133Y803996D01*
X1148250Y804019D01*
X1148367Y804039D01*
X1148486Y804055D01*
X1148605Y804067D01*
X1148724Y804075D01*
X1148843Y804079D01*
X1148963Y804079D01*
X1149082Y804075D01*
X1149201Y804067D01*
X1149320Y804055D01*
X1149439Y804039D01*
X1149556Y804019D01*
X1149673Y803996D01*
X1149790Y803968D01*
X1149905Y803937D01*
X1150019Y803902D01*
X1150132Y803863D01*
X1150244Y803821D01*
X1150354Y803775D01*
X1150462Y803725D01*
X1150569Y803672D01*
X1150674Y803615D01*
X1150778Y803555D01*
X1150879Y803491D01*
X1150977Y803424D01*
X1151074Y803354D01*
X1151168Y803280D01*
X1151260Y803204D01*
X1151349Y803124D01*
X1151436Y803042D01*
X1151520Y802957D01*
X1151601Y802869D01*
X1151678Y802779D01*
X1151753Y802686D01*
X1151825Y802590D01*
X1151894Y802492D01*
X1151959Y802392D01*
X1152021Y802290D01*
X1152080Y802186D01*
X1152135Y802080D01*
X1152186Y801972D01*
X1152234Y801863D01*
X1152279Y801752D01*
X1152319Y801640D01*
X1152356Y801526D01*
X1152389Y801411D01*
X1152419Y801296D01*
X1152444Y801179D01*
X1152466Y801062D01*
X1152483Y800943D01*
X1152497Y800825D01*
X1152507Y800706D01*
X1152513Y800586D01*
X1152515Y800467D01*
X1152515Y798661D01*
X1145290Y798661D01*
X1157540Y804079D02*
X1162959Y804079D01*
X1159346Y809498D02*
X1159346Y795951D01*
X1159347Y795951D02*
X1159349Y795850D01*
X1159355Y795749D01*
X1159364Y795648D01*
X1159377Y795547D01*
X1159394Y795447D01*
X1159415Y795348D01*
X1159439Y795250D01*
X1159467Y795153D01*
X1159499Y795056D01*
X1159534Y794961D01*
X1159573Y794868D01*
X1159615Y794776D01*
X1159661Y794685D01*
X1159710Y794597D01*
X1159762Y794510D01*
X1159818Y794425D01*
X1159876Y794342D01*
X1159938Y794262D01*
X1160003Y794184D01*
X1160070Y794108D01*
X1160140Y794035D01*
X1160213Y793965D01*
X1160289Y793898D01*
X1160367Y793833D01*
X1160447Y793771D01*
X1160530Y793713D01*
X1160615Y793657D01*
X1160702Y793605D01*
X1160790Y793556D01*
X1160881Y793510D01*
X1160973Y793468D01*
X1161066Y793429D01*
X1161161Y793394D01*
X1161258Y793362D01*
X1161355Y793334D01*
X1161453Y793310D01*
X1161552Y793289D01*
X1161652Y793272D01*
X1161753Y793259D01*
X1161854Y793250D01*
X1161955Y793244D01*
X1162056Y793242D01*
X1162959Y793242D01*
X1171464Y793242D02*
X1175076Y793242D01*
X1171464Y793242D02*
X1171363Y793244D01*
X1171262Y793250D01*
X1171161Y793259D01*
X1171060Y793272D01*
X1170960Y793289D01*
X1170861Y793310D01*
X1170763Y793334D01*
X1170666Y793362D01*
X1170569Y793394D01*
X1170474Y793429D01*
X1170381Y793468D01*
X1170289Y793510D01*
X1170198Y793556D01*
X1170110Y793605D01*
X1170023Y793657D01*
X1169938Y793713D01*
X1169855Y793771D01*
X1169775Y793833D01*
X1169697Y793898D01*
X1169621Y793965D01*
X1169548Y794035D01*
X1169478Y794108D01*
X1169411Y794184D01*
X1169346Y794262D01*
X1169284Y794342D01*
X1169226Y794425D01*
X1169170Y794510D01*
X1169118Y794597D01*
X1169069Y794685D01*
X1169023Y794776D01*
X1168981Y794868D01*
X1168942Y794961D01*
X1168907Y795056D01*
X1168875Y795153D01*
X1168847Y795250D01*
X1168823Y795348D01*
X1168802Y795447D01*
X1168785Y795547D01*
X1168772Y795648D01*
X1168763Y795749D01*
X1168757Y795850D01*
X1168755Y795951D01*
X1168755Y801370D01*
X1168757Y801471D01*
X1168763Y801572D01*
X1168772Y801673D01*
X1168785Y801774D01*
X1168802Y801874D01*
X1168823Y801973D01*
X1168847Y802071D01*
X1168875Y802168D01*
X1168907Y802265D01*
X1168942Y802360D01*
X1168981Y802453D01*
X1169023Y802545D01*
X1169069Y802636D01*
X1169118Y802725D01*
X1169170Y802811D01*
X1169226Y802896D01*
X1169284Y802979D01*
X1169346Y803059D01*
X1169411Y803137D01*
X1169478Y803213D01*
X1169548Y803286D01*
X1169621Y803356D01*
X1169697Y803423D01*
X1169775Y803488D01*
X1169855Y803550D01*
X1169938Y803608D01*
X1170023Y803664D01*
X1170110Y803716D01*
X1170198Y803765D01*
X1170289Y803811D01*
X1170381Y803853D01*
X1170474Y803892D01*
X1170569Y803927D01*
X1170666Y803959D01*
X1170763Y803987D01*
X1170861Y804011D01*
X1170960Y804032D01*
X1171060Y804049D01*
X1171161Y804062D01*
X1171262Y804071D01*
X1171363Y804077D01*
X1171464Y804079D01*
X1175076Y804079D01*
X1181242Y809498D02*
X1181242Y793242D01*
X1181242Y804079D02*
X1185758Y804079D01*
X1185862Y804077D01*
X1185965Y804071D01*
X1186069Y804061D01*
X1186172Y804047D01*
X1186274Y804029D01*
X1186375Y804008D01*
X1186476Y803982D01*
X1186575Y803953D01*
X1186674Y803920D01*
X1186771Y803883D01*
X1186866Y803842D01*
X1186960Y803798D01*
X1187052Y803750D01*
X1187142Y803699D01*
X1187231Y803644D01*
X1187317Y803586D01*
X1187400Y803524D01*
X1187482Y803460D01*
X1187560Y803392D01*
X1187636Y803322D01*
X1187710Y803249D01*
X1187780Y803172D01*
X1187848Y803094D01*
X1187912Y803012D01*
X1187974Y802929D01*
X1188032Y802843D01*
X1188087Y802754D01*
X1188138Y802664D01*
X1188186Y802572D01*
X1188230Y802478D01*
X1188271Y802383D01*
X1188308Y802286D01*
X1188341Y802187D01*
X1188370Y802088D01*
X1188396Y801987D01*
X1188417Y801886D01*
X1188435Y801784D01*
X1188449Y801681D01*
X1188459Y801577D01*
X1188465Y801474D01*
X1188467Y801370D01*
X1188467Y793242D01*
X1016762Y782828D02*
X1016762Y766572D01*
X1016762Y782828D02*
X1021278Y782828D01*
X1021411Y782826D01*
X1021543Y782820D01*
X1021675Y782810D01*
X1021807Y782797D01*
X1021939Y782779D01*
X1022069Y782758D01*
X1022200Y782733D01*
X1022329Y782704D01*
X1022457Y782671D01*
X1022585Y782635D01*
X1022711Y782595D01*
X1022836Y782551D01*
X1022960Y782503D01*
X1023082Y782452D01*
X1023203Y782397D01*
X1023322Y782339D01*
X1023440Y782277D01*
X1023555Y782212D01*
X1023669Y782143D01*
X1023780Y782072D01*
X1023889Y781996D01*
X1023996Y781918D01*
X1024101Y781837D01*
X1024203Y781752D01*
X1024303Y781665D01*
X1024400Y781575D01*
X1024495Y781482D01*
X1024586Y781386D01*
X1024675Y781288D01*
X1024761Y781187D01*
X1024844Y781083D01*
X1024924Y780977D01*
X1025000Y780869D01*
X1025074Y780759D01*
X1025144Y780646D01*
X1025211Y780532D01*
X1025274Y780415D01*
X1025334Y780297D01*
X1025391Y780177D01*
X1025444Y780055D01*
X1025493Y779932D01*
X1025539Y779808D01*
X1025581Y779682D01*
X1025619Y779555D01*
X1025654Y779427D01*
X1025685Y779298D01*
X1025712Y779169D01*
X1025735Y779038D01*
X1025755Y778907D01*
X1025770Y778775D01*
X1025782Y778643D01*
X1025790Y778511D01*
X1025794Y778378D01*
X1025794Y778246D01*
X1025790Y778113D01*
X1025782Y777981D01*
X1025770Y777849D01*
X1025755Y777717D01*
X1025735Y777586D01*
X1025712Y777455D01*
X1025685Y777326D01*
X1025654Y777197D01*
X1025619Y777069D01*
X1025581Y776942D01*
X1025539Y776816D01*
X1025493Y776692D01*
X1025444Y776569D01*
X1025391Y776447D01*
X1025334Y776327D01*
X1025274Y776209D01*
X1025211Y776092D01*
X1025144Y775978D01*
X1025074Y775865D01*
X1025000Y775755D01*
X1024924Y775647D01*
X1024844Y775541D01*
X1024761Y775437D01*
X1024675Y775336D01*
X1024586Y775238D01*
X1024495Y775142D01*
X1024400Y775049D01*
X1024303Y774959D01*
X1024203Y774872D01*
X1024101Y774787D01*
X1023996Y774706D01*
X1023889Y774628D01*
X1023780Y774552D01*
X1023669Y774481D01*
X1023555Y774412D01*
X1023440Y774347D01*
X1023322Y774285D01*
X1023203Y774227D01*
X1023082Y774172D01*
X1022960Y774121D01*
X1022836Y774073D01*
X1022711Y774029D01*
X1022585Y773989D01*
X1022457Y773953D01*
X1022329Y773920D01*
X1022200Y773891D01*
X1022069Y773866D01*
X1021939Y773845D01*
X1021807Y773827D01*
X1021675Y773814D01*
X1021543Y773804D01*
X1021411Y773798D01*
X1021278Y773796D01*
X1021278Y773797D02*
X1016762Y773797D01*
X1035234Y766572D02*
X1038847Y766572D01*
X1035234Y766572D02*
X1035116Y766574D01*
X1034998Y766580D01*
X1034880Y766589D01*
X1034763Y766603D01*
X1034646Y766620D01*
X1034529Y766641D01*
X1034414Y766666D01*
X1034299Y766695D01*
X1034185Y766728D01*
X1034073Y766764D01*
X1033962Y766804D01*
X1033852Y766847D01*
X1033743Y766894D01*
X1033636Y766944D01*
X1033531Y766999D01*
X1033428Y767056D01*
X1033327Y767117D01*
X1033227Y767181D01*
X1033130Y767248D01*
X1033035Y767318D01*
X1032943Y767392D01*
X1032852Y767468D01*
X1032765Y767548D01*
X1032680Y767630D01*
X1032598Y767715D01*
X1032518Y767802D01*
X1032442Y767893D01*
X1032368Y767985D01*
X1032298Y768080D01*
X1032231Y768177D01*
X1032167Y768277D01*
X1032106Y768378D01*
X1032049Y768481D01*
X1031994Y768586D01*
X1031944Y768693D01*
X1031897Y768802D01*
X1031854Y768912D01*
X1031814Y769023D01*
X1031778Y769135D01*
X1031745Y769249D01*
X1031716Y769364D01*
X1031691Y769479D01*
X1031670Y769596D01*
X1031653Y769713D01*
X1031639Y769830D01*
X1031630Y769948D01*
X1031624Y770066D01*
X1031622Y770184D01*
X1031622Y779216D01*
X1031624Y779334D01*
X1031630Y779452D01*
X1031639Y779570D01*
X1031653Y779687D01*
X1031670Y779804D01*
X1031691Y779921D01*
X1031716Y780036D01*
X1031745Y780151D01*
X1031778Y780265D01*
X1031814Y780377D01*
X1031854Y780488D01*
X1031897Y780598D01*
X1031944Y780707D01*
X1031994Y780814D01*
X1032048Y780919D01*
X1032106Y781022D01*
X1032167Y781123D01*
X1032231Y781223D01*
X1032298Y781320D01*
X1032368Y781415D01*
X1032442Y781507D01*
X1032518Y781598D01*
X1032598Y781685D01*
X1032680Y781770D01*
X1032765Y781852D01*
X1032852Y781932D01*
X1032943Y782008D01*
X1033035Y782082D01*
X1033130Y782152D01*
X1033227Y782219D01*
X1033327Y782283D01*
X1033428Y782344D01*
X1033531Y782401D01*
X1033636Y782455D01*
X1033743Y782506D01*
X1033852Y782553D01*
X1033962Y782596D01*
X1034073Y782636D01*
X1034185Y782672D01*
X1034299Y782705D01*
X1034414Y782734D01*
X1034529Y782759D01*
X1034646Y782780D01*
X1034763Y782797D01*
X1034880Y782811D01*
X1034998Y782820D01*
X1035116Y782826D01*
X1035234Y782828D01*
X1038847Y782828D01*
X1045419Y775603D02*
X1049935Y775603D01*
X1049935Y775604D02*
X1050068Y775602D01*
X1050200Y775596D01*
X1050332Y775586D01*
X1050464Y775573D01*
X1050596Y775555D01*
X1050726Y775534D01*
X1050857Y775509D01*
X1050986Y775480D01*
X1051114Y775447D01*
X1051242Y775411D01*
X1051368Y775371D01*
X1051493Y775327D01*
X1051617Y775279D01*
X1051739Y775228D01*
X1051860Y775173D01*
X1051979Y775115D01*
X1052097Y775053D01*
X1052212Y774988D01*
X1052326Y774919D01*
X1052437Y774848D01*
X1052546Y774772D01*
X1052653Y774694D01*
X1052758Y774613D01*
X1052860Y774528D01*
X1052960Y774441D01*
X1053057Y774351D01*
X1053152Y774258D01*
X1053243Y774162D01*
X1053332Y774064D01*
X1053418Y773963D01*
X1053501Y773859D01*
X1053581Y773753D01*
X1053657Y773645D01*
X1053731Y773535D01*
X1053801Y773422D01*
X1053868Y773308D01*
X1053931Y773191D01*
X1053991Y773073D01*
X1054048Y772953D01*
X1054101Y772831D01*
X1054150Y772708D01*
X1054196Y772584D01*
X1054238Y772458D01*
X1054276Y772331D01*
X1054311Y772203D01*
X1054342Y772074D01*
X1054369Y771945D01*
X1054392Y771814D01*
X1054412Y771683D01*
X1054427Y771551D01*
X1054439Y771419D01*
X1054447Y771287D01*
X1054451Y771154D01*
X1054451Y771022D01*
X1054447Y770889D01*
X1054439Y770757D01*
X1054427Y770625D01*
X1054412Y770493D01*
X1054392Y770362D01*
X1054369Y770231D01*
X1054342Y770102D01*
X1054311Y769973D01*
X1054276Y769845D01*
X1054238Y769718D01*
X1054196Y769592D01*
X1054150Y769468D01*
X1054101Y769345D01*
X1054048Y769223D01*
X1053991Y769103D01*
X1053931Y768985D01*
X1053868Y768868D01*
X1053801Y768754D01*
X1053731Y768641D01*
X1053657Y768531D01*
X1053581Y768423D01*
X1053501Y768317D01*
X1053418Y768213D01*
X1053332Y768112D01*
X1053243Y768014D01*
X1053152Y767918D01*
X1053057Y767825D01*
X1052960Y767735D01*
X1052860Y767648D01*
X1052758Y767563D01*
X1052653Y767482D01*
X1052546Y767404D01*
X1052437Y767328D01*
X1052326Y767257D01*
X1052212Y767188D01*
X1052097Y767123D01*
X1051979Y767061D01*
X1051860Y767003D01*
X1051739Y766948D01*
X1051617Y766897D01*
X1051493Y766849D01*
X1051368Y766805D01*
X1051242Y766765D01*
X1051114Y766729D01*
X1050986Y766696D01*
X1050857Y766667D01*
X1050726Y766642D01*
X1050596Y766621D01*
X1050464Y766603D01*
X1050332Y766590D01*
X1050200Y766580D01*
X1050068Y766574D01*
X1049935Y766572D01*
X1045419Y766572D01*
X1045419Y782828D01*
X1049935Y782828D01*
X1050054Y782826D01*
X1050174Y782820D01*
X1050293Y782810D01*
X1050411Y782796D01*
X1050530Y782779D01*
X1050647Y782757D01*
X1050764Y782732D01*
X1050879Y782702D01*
X1050994Y782669D01*
X1051108Y782632D01*
X1051220Y782592D01*
X1051331Y782547D01*
X1051440Y782499D01*
X1051548Y782448D01*
X1051654Y782393D01*
X1051758Y782334D01*
X1051860Y782272D01*
X1051960Y782207D01*
X1052058Y782138D01*
X1052154Y782066D01*
X1052247Y781991D01*
X1052337Y781914D01*
X1052425Y781833D01*
X1052510Y781749D01*
X1052592Y781662D01*
X1052672Y781573D01*
X1052748Y781481D01*
X1052822Y781387D01*
X1052892Y781290D01*
X1052959Y781192D01*
X1053023Y781091D01*
X1053083Y780987D01*
X1053140Y780882D01*
X1053193Y780775D01*
X1053243Y780667D01*
X1053289Y780557D01*
X1053331Y780445D01*
X1053370Y780332D01*
X1053405Y780218D01*
X1053436Y780103D01*
X1053464Y779986D01*
X1053487Y779869D01*
X1053507Y779752D01*
X1053523Y779633D01*
X1053535Y779514D01*
X1053543Y779395D01*
X1053547Y779276D01*
X1053547Y779156D01*
X1053543Y779037D01*
X1053535Y778918D01*
X1053523Y778799D01*
X1053507Y778680D01*
X1053487Y778563D01*
X1053464Y778446D01*
X1053436Y778329D01*
X1053405Y778214D01*
X1053370Y778100D01*
X1053331Y777987D01*
X1053289Y777875D01*
X1053243Y777765D01*
X1053193Y777657D01*
X1053140Y777550D01*
X1053083Y777445D01*
X1053023Y777341D01*
X1052959Y777240D01*
X1052892Y777142D01*
X1052822Y777045D01*
X1052748Y776951D01*
X1052672Y776859D01*
X1052592Y776770D01*
X1052510Y776683D01*
X1052425Y776599D01*
X1052337Y776518D01*
X1052247Y776441D01*
X1052154Y776366D01*
X1052058Y776294D01*
X1051960Y776225D01*
X1051860Y776160D01*
X1051758Y776098D01*
X1051654Y776039D01*
X1051548Y775984D01*
X1051440Y775933D01*
X1051331Y775885D01*
X1051220Y775840D01*
X1051108Y775800D01*
X1050994Y775763D01*
X1050879Y775730D01*
X1050764Y775700D01*
X1050647Y775675D01*
X1050530Y775653D01*
X1050411Y775636D01*
X1050293Y775622D01*
X1050174Y775612D01*
X1050054Y775606D01*
X1049935Y775604D01*
X1025793Y743514D02*
X1025791Y743396D01*
X1025785Y743278D01*
X1025776Y743160D01*
X1025762Y743043D01*
X1025745Y742926D01*
X1025724Y742809D01*
X1025699Y742694D01*
X1025670Y742579D01*
X1025637Y742465D01*
X1025601Y742353D01*
X1025561Y742242D01*
X1025518Y742132D01*
X1025471Y742023D01*
X1025421Y741916D01*
X1025366Y741811D01*
X1025309Y741708D01*
X1025248Y741607D01*
X1025184Y741507D01*
X1025117Y741410D01*
X1025047Y741315D01*
X1024973Y741223D01*
X1024897Y741132D01*
X1024817Y741045D01*
X1024735Y740960D01*
X1024650Y740878D01*
X1024563Y740798D01*
X1024472Y740722D01*
X1024380Y740648D01*
X1024285Y740578D01*
X1024188Y740511D01*
X1024088Y740447D01*
X1023987Y740386D01*
X1023884Y740329D01*
X1023779Y740274D01*
X1023672Y740224D01*
X1023563Y740177D01*
X1023453Y740134D01*
X1023342Y740094D01*
X1023230Y740058D01*
X1023116Y740025D01*
X1023001Y739996D01*
X1022886Y739971D01*
X1022769Y739950D01*
X1022652Y739933D01*
X1022535Y739919D01*
X1022417Y739910D01*
X1022299Y739904D01*
X1022181Y739902D01*
X1021998Y739904D01*
X1021816Y739911D01*
X1021634Y739922D01*
X1021452Y739937D01*
X1021270Y739957D01*
X1021089Y739980D01*
X1020909Y740009D01*
X1020729Y740041D01*
X1020550Y740078D01*
X1020373Y740119D01*
X1020196Y740165D01*
X1020020Y740214D01*
X1019846Y740268D01*
X1019672Y740326D01*
X1019501Y740388D01*
X1019331Y740454D01*
X1019162Y740525D01*
X1018995Y740599D01*
X1018830Y740677D01*
X1018667Y740759D01*
X1018506Y740845D01*
X1018347Y740935D01*
X1018190Y741029D01*
X1018036Y741126D01*
X1017884Y741227D01*
X1017734Y741332D01*
X1017587Y741440D01*
X1017443Y741551D01*
X1017301Y741666D01*
X1017162Y741785D01*
X1017026Y741907D01*
X1016893Y742032D01*
X1016763Y742160D01*
X1017214Y752546D02*
X1017216Y752664D01*
X1017222Y752782D01*
X1017231Y752900D01*
X1017245Y753017D01*
X1017262Y753134D01*
X1017283Y753251D01*
X1017308Y753366D01*
X1017337Y753481D01*
X1017370Y753595D01*
X1017406Y753707D01*
X1017446Y753818D01*
X1017489Y753928D01*
X1017536Y754037D01*
X1017586Y754144D01*
X1017641Y754249D01*
X1017698Y754352D01*
X1017759Y754453D01*
X1017823Y754553D01*
X1017890Y754650D01*
X1017960Y754745D01*
X1018034Y754837D01*
X1018110Y754928D01*
X1018190Y755015D01*
X1018272Y755100D01*
X1018357Y755182D01*
X1018444Y755262D01*
X1018535Y755338D01*
X1018627Y755412D01*
X1018722Y755482D01*
X1018819Y755549D01*
X1018919Y755613D01*
X1019020Y755674D01*
X1019123Y755732D01*
X1019228Y755786D01*
X1019335Y755836D01*
X1019444Y755883D01*
X1019554Y755927D01*
X1019665Y755966D01*
X1019778Y756002D01*
X1019891Y756035D01*
X1020006Y756064D01*
X1020121Y756089D01*
X1020238Y756110D01*
X1020355Y756127D01*
X1020472Y756141D01*
X1020590Y756150D01*
X1020708Y756156D01*
X1020826Y756158D01*
X1020987Y756156D01*
X1021149Y756150D01*
X1021310Y756141D01*
X1021471Y756127D01*
X1021631Y756110D01*
X1021791Y756089D01*
X1021951Y756064D01*
X1022110Y756035D01*
X1022268Y756003D01*
X1022425Y755967D01*
X1022581Y755927D01*
X1022737Y755883D01*
X1022891Y755835D01*
X1023044Y755784D01*
X1023196Y755730D01*
X1023347Y755671D01*
X1023496Y755610D01*
X1023643Y755544D01*
X1023789Y755475D01*
X1023934Y755403D01*
X1024076Y755327D01*
X1024217Y755248D01*
X1024356Y755166D01*
X1024492Y755080D01*
X1024627Y754991D01*
X1024760Y754899D01*
X1024890Y754803D01*
X1019019Y749385D02*
X1018918Y749447D01*
X1018818Y749512D01*
X1018721Y749581D01*
X1018626Y749653D01*
X1018533Y749727D01*
X1018443Y749805D01*
X1018355Y749886D01*
X1018270Y749969D01*
X1018188Y750055D01*
X1018109Y750144D01*
X1018032Y750235D01*
X1017959Y750329D01*
X1017888Y750425D01*
X1017821Y750523D01*
X1017757Y750623D01*
X1017696Y750726D01*
X1017639Y750830D01*
X1017585Y750936D01*
X1017535Y751044D01*
X1017488Y751153D01*
X1017444Y751264D01*
X1017404Y751376D01*
X1017368Y751490D01*
X1017336Y751604D01*
X1017307Y751720D01*
X1017282Y751836D01*
X1017261Y751953D01*
X1017244Y752071D01*
X1017230Y752189D01*
X1017221Y752308D01*
X1017215Y752427D01*
X1017213Y752546D01*
X1023987Y746675D02*
X1024088Y746613D01*
X1024188Y746548D01*
X1024285Y746479D01*
X1024380Y746407D01*
X1024473Y746333D01*
X1024563Y746255D01*
X1024651Y746174D01*
X1024736Y746091D01*
X1024818Y746005D01*
X1024897Y745916D01*
X1024974Y745825D01*
X1025047Y745731D01*
X1025118Y745635D01*
X1025185Y745537D01*
X1025249Y745437D01*
X1025310Y745334D01*
X1025367Y745230D01*
X1025421Y745124D01*
X1025471Y745016D01*
X1025518Y744907D01*
X1025562Y744796D01*
X1025602Y744684D01*
X1025638Y744570D01*
X1025670Y744456D01*
X1025699Y744340D01*
X1025724Y744224D01*
X1025745Y744107D01*
X1025762Y743989D01*
X1025776Y743871D01*
X1025785Y743752D01*
X1025791Y743633D01*
X1025793Y743514D01*
X1023987Y746675D02*
X1019020Y749385D01*
X1034821Y746224D02*
X1038885Y746224D01*
X1034821Y746224D02*
X1034709Y746222D01*
X1034598Y746216D01*
X1034487Y746206D01*
X1034376Y746193D01*
X1034266Y746175D01*
X1034157Y746153D01*
X1034048Y746128D01*
X1033940Y746099D01*
X1033834Y746066D01*
X1033728Y746029D01*
X1033624Y745989D01*
X1033522Y745945D01*
X1033421Y745897D01*
X1033322Y745846D01*
X1033224Y745791D01*
X1033129Y745733D01*
X1033036Y745672D01*
X1032945Y745607D01*
X1032856Y745539D01*
X1032770Y745468D01*
X1032687Y745395D01*
X1032606Y745318D01*
X1032527Y745238D01*
X1032452Y745156D01*
X1032380Y745071D01*
X1032310Y744984D01*
X1032244Y744894D01*
X1032181Y744802D01*
X1032121Y744707D01*
X1032065Y744611D01*
X1032012Y744513D01*
X1031963Y744413D01*
X1031917Y744311D01*
X1031875Y744208D01*
X1031836Y744103D01*
X1031801Y743997D01*
X1031770Y743890D01*
X1031743Y743782D01*
X1031719Y743673D01*
X1031700Y743563D01*
X1031684Y743453D01*
X1031672Y743342D01*
X1031664Y743230D01*
X1031660Y743119D01*
X1031660Y743007D01*
X1031664Y742896D01*
X1031672Y742784D01*
X1031684Y742673D01*
X1031700Y742563D01*
X1031719Y742453D01*
X1031743Y742344D01*
X1031770Y742236D01*
X1031801Y742129D01*
X1031836Y742023D01*
X1031875Y741918D01*
X1031917Y741815D01*
X1031963Y741713D01*
X1032012Y741613D01*
X1032065Y741515D01*
X1032121Y741419D01*
X1032181Y741324D01*
X1032244Y741232D01*
X1032310Y741142D01*
X1032380Y741055D01*
X1032452Y740970D01*
X1032527Y740888D01*
X1032606Y740808D01*
X1032687Y740731D01*
X1032770Y740658D01*
X1032856Y740587D01*
X1032945Y740519D01*
X1033036Y740454D01*
X1033129Y740393D01*
X1033224Y740335D01*
X1033322Y740280D01*
X1033421Y740229D01*
X1033522Y740181D01*
X1033624Y740137D01*
X1033728Y740097D01*
X1033834Y740060D01*
X1033940Y740027D01*
X1034048Y739998D01*
X1034157Y739973D01*
X1034266Y739951D01*
X1034376Y739933D01*
X1034487Y739920D01*
X1034598Y739910D01*
X1034709Y739904D01*
X1034821Y739902D01*
X1038885Y739902D01*
X1038885Y748030D01*
X1038884Y748030D02*
X1038882Y748131D01*
X1038876Y748232D01*
X1038867Y748333D01*
X1038854Y748434D01*
X1038837Y748534D01*
X1038816Y748633D01*
X1038792Y748731D01*
X1038764Y748828D01*
X1038732Y748925D01*
X1038697Y749020D01*
X1038658Y749113D01*
X1038616Y749205D01*
X1038570Y749296D01*
X1038521Y749385D01*
X1038469Y749471D01*
X1038413Y749556D01*
X1038355Y749639D01*
X1038293Y749719D01*
X1038228Y749797D01*
X1038161Y749873D01*
X1038091Y749946D01*
X1038018Y750016D01*
X1037942Y750083D01*
X1037864Y750148D01*
X1037784Y750210D01*
X1037701Y750268D01*
X1037616Y750324D01*
X1037530Y750376D01*
X1037441Y750425D01*
X1037350Y750471D01*
X1037258Y750513D01*
X1037165Y750552D01*
X1037070Y750587D01*
X1036973Y750619D01*
X1036876Y750647D01*
X1036778Y750671D01*
X1036679Y750692D01*
X1036579Y750709D01*
X1036478Y750722D01*
X1036377Y750731D01*
X1036276Y750737D01*
X1036175Y750739D01*
X1032563Y750739D01*
X1046322Y750739D02*
X1046322Y739902D01*
X1046322Y750739D02*
X1050838Y750739D01*
X1050942Y750737D01*
X1051045Y750731D01*
X1051149Y750721D01*
X1051252Y750707D01*
X1051354Y750689D01*
X1051455Y750668D01*
X1051556Y750642D01*
X1051655Y750613D01*
X1051754Y750580D01*
X1051851Y750543D01*
X1051946Y750502D01*
X1052040Y750458D01*
X1052132Y750410D01*
X1052222Y750359D01*
X1052311Y750304D01*
X1052397Y750246D01*
X1052480Y750184D01*
X1052562Y750120D01*
X1052640Y750052D01*
X1052716Y749982D01*
X1052790Y749909D01*
X1052860Y749832D01*
X1052928Y749754D01*
X1052992Y749672D01*
X1053054Y749589D01*
X1053112Y749503D01*
X1053167Y749414D01*
X1053218Y749324D01*
X1053266Y749232D01*
X1053310Y749138D01*
X1053351Y749043D01*
X1053388Y748946D01*
X1053421Y748847D01*
X1053450Y748748D01*
X1053476Y748647D01*
X1053497Y748546D01*
X1053515Y748444D01*
X1053529Y748341D01*
X1053539Y748237D01*
X1053545Y748134D01*
X1053547Y748030D01*
X1053547Y739902D01*
X1067542Y739902D02*
X1067542Y756158D01*
X1067542Y739902D02*
X1063026Y739902D01*
X1062925Y739904D01*
X1062824Y739910D01*
X1062723Y739919D01*
X1062622Y739932D01*
X1062522Y739949D01*
X1062423Y739970D01*
X1062325Y739994D01*
X1062228Y740022D01*
X1062131Y740054D01*
X1062036Y740089D01*
X1061943Y740128D01*
X1061851Y740170D01*
X1061760Y740216D01*
X1061672Y740265D01*
X1061585Y740317D01*
X1061500Y740373D01*
X1061417Y740431D01*
X1061337Y740493D01*
X1061259Y740558D01*
X1061183Y740625D01*
X1061110Y740695D01*
X1061040Y740768D01*
X1060973Y740844D01*
X1060908Y740922D01*
X1060846Y741002D01*
X1060788Y741085D01*
X1060732Y741170D01*
X1060680Y741257D01*
X1060631Y741345D01*
X1060585Y741436D01*
X1060543Y741528D01*
X1060504Y741621D01*
X1060469Y741716D01*
X1060437Y741813D01*
X1060409Y741910D01*
X1060385Y742008D01*
X1060364Y742107D01*
X1060347Y742207D01*
X1060334Y742308D01*
X1060325Y742409D01*
X1060319Y742510D01*
X1060317Y742611D01*
X1060317Y748030D01*
X1060319Y748131D01*
X1060325Y748232D01*
X1060334Y748333D01*
X1060347Y748434D01*
X1060364Y748534D01*
X1060385Y748633D01*
X1060409Y748731D01*
X1060437Y748828D01*
X1060469Y748925D01*
X1060504Y749020D01*
X1060543Y749113D01*
X1060585Y749205D01*
X1060631Y749296D01*
X1060680Y749385D01*
X1060732Y749471D01*
X1060788Y749556D01*
X1060846Y749639D01*
X1060908Y749719D01*
X1060973Y749797D01*
X1061040Y749873D01*
X1061110Y749946D01*
X1061183Y750016D01*
X1061259Y750083D01*
X1061337Y750148D01*
X1061417Y750210D01*
X1061500Y750268D01*
X1061585Y750324D01*
X1061672Y750376D01*
X1061760Y750425D01*
X1061851Y750471D01*
X1061943Y750513D01*
X1062036Y750552D01*
X1062131Y750587D01*
X1062228Y750619D01*
X1062325Y750647D01*
X1062423Y750671D01*
X1062522Y750692D01*
X1062622Y750709D01*
X1062723Y750722D01*
X1062824Y750731D01*
X1062925Y750737D01*
X1063026Y750739D01*
X1067542Y750739D01*
X1077168Y739902D02*
X1081683Y739902D01*
X1077168Y739902D02*
X1077067Y739904D01*
X1076966Y739910D01*
X1076865Y739919D01*
X1076764Y739932D01*
X1076664Y739949D01*
X1076565Y739970D01*
X1076467Y739994D01*
X1076370Y740022D01*
X1076273Y740054D01*
X1076178Y740089D01*
X1076085Y740128D01*
X1075993Y740170D01*
X1075902Y740216D01*
X1075814Y740265D01*
X1075727Y740317D01*
X1075642Y740373D01*
X1075559Y740431D01*
X1075479Y740493D01*
X1075401Y740558D01*
X1075325Y740625D01*
X1075252Y740695D01*
X1075182Y740768D01*
X1075115Y740844D01*
X1075050Y740922D01*
X1074988Y741002D01*
X1074930Y741085D01*
X1074874Y741170D01*
X1074822Y741257D01*
X1074773Y741345D01*
X1074727Y741436D01*
X1074685Y741528D01*
X1074646Y741621D01*
X1074611Y741716D01*
X1074579Y741813D01*
X1074551Y741910D01*
X1074527Y742008D01*
X1074506Y742107D01*
X1074489Y742207D01*
X1074476Y742308D01*
X1074467Y742409D01*
X1074461Y742510D01*
X1074459Y742611D01*
X1074459Y747127D01*
X1074461Y747246D01*
X1074467Y747366D01*
X1074477Y747485D01*
X1074491Y747603D01*
X1074508Y747722D01*
X1074530Y747839D01*
X1074555Y747956D01*
X1074585Y748071D01*
X1074618Y748186D01*
X1074655Y748300D01*
X1074695Y748412D01*
X1074740Y748523D01*
X1074788Y748632D01*
X1074839Y748740D01*
X1074894Y748846D01*
X1074953Y748950D01*
X1075015Y749052D01*
X1075080Y749152D01*
X1075149Y749250D01*
X1075221Y749346D01*
X1075296Y749439D01*
X1075373Y749529D01*
X1075454Y749617D01*
X1075538Y749702D01*
X1075625Y749784D01*
X1075714Y749864D01*
X1075806Y749940D01*
X1075900Y750014D01*
X1075997Y750084D01*
X1076095Y750151D01*
X1076196Y750215D01*
X1076300Y750275D01*
X1076405Y750332D01*
X1076512Y750385D01*
X1076620Y750435D01*
X1076730Y750481D01*
X1076842Y750523D01*
X1076955Y750562D01*
X1077069Y750597D01*
X1077184Y750628D01*
X1077301Y750656D01*
X1077418Y750679D01*
X1077535Y750699D01*
X1077654Y750715D01*
X1077773Y750727D01*
X1077892Y750735D01*
X1078011Y750739D01*
X1078131Y750739D01*
X1078250Y750735D01*
X1078369Y750727D01*
X1078488Y750715D01*
X1078607Y750699D01*
X1078724Y750679D01*
X1078841Y750656D01*
X1078958Y750628D01*
X1079073Y750597D01*
X1079187Y750562D01*
X1079300Y750523D01*
X1079412Y750481D01*
X1079522Y750435D01*
X1079630Y750385D01*
X1079737Y750332D01*
X1079842Y750275D01*
X1079946Y750215D01*
X1080047Y750151D01*
X1080145Y750084D01*
X1080242Y750014D01*
X1080336Y749940D01*
X1080428Y749864D01*
X1080517Y749784D01*
X1080604Y749702D01*
X1080688Y749617D01*
X1080769Y749529D01*
X1080846Y749439D01*
X1080921Y749346D01*
X1080993Y749250D01*
X1081062Y749152D01*
X1081127Y749052D01*
X1081189Y748950D01*
X1081248Y748846D01*
X1081303Y748740D01*
X1081354Y748632D01*
X1081402Y748523D01*
X1081447Y748412D01*
X1081487Y748300D01*
X1081524Y748186D01*
X1081557Y748071D01*
X1081587Y747956D01*
X1081612Y747839D01*
X1081634Y747722D01*
X1081651Y747603D01*
X1081665Y747485D01*
X1081675Y747366D01*
X1081681Y747246D01*
X1081683Y747127D01*
X1081683Y745321D01*
X1074459Y745321D01*
X1090715Y739902D02*
X1095230Y739902D01*
X1090715Y739902D02*
X1090614Y739904D01*
X1090513Y739910D01*
X1090412Y739919D01*
X1090311Y739932D01*
X1090211Y739949D01*
X1090112Y739970D01*
X1090014Y739994D01*
X1089917Y740022D01*
X1089820Y740054D01*
X1089725Y740089D01*
X1089632Y740128D01*
X1089540Y740170D01*
X1089449Y740216D01*
X1089361Y740265D01*
X1089274Y740317D01*
X1089189Y740373D01*
X1089106Y740431D01*
X1089026Y740493D01*
X1088948Y740558D01*
X1088872Y740625D01*
X1088799Y740695D01*
X1088729Y740768D01*
X1088662Y740844D01*
X1088597Y740922D01*
X1088535Y741002D01*
X1088477Y741085D01*
X1088421Y741170D01*
X1088369Y741257D01*
X1088320Y741345D01*
X1088274Y741436D01*
X1088232Y741528D01*
X1088193Y741621D01*
X1088158Y741716D01*
X1088126Y741813D01*
X1088098Y741910D01*
X1088074Y742008D01*
X1088053Y742107D01*
X1088036Y742207D01*
X1088023Y742308D01*
X1088014Y742409D01*
X1088008Y742510D01*
X1088006Y742611D01*
X1088006Y747127D01*
X1088008Y747246D01*
X1088014Y747366D01*
X1088024Y747485D01*
X1088038Y747603D01*
X1088055Y747722D01*
X1088077Y747839D01*
X1088102Y747956D01*
X1088132Y748071D01*
X1088165Y748186D01*
X1088202Y748300D01*
X1088242Y748412D01*
X1088287Y748523D01*
X1088335Y748632D01*
X1088386Y748740D01*
X1088441Y748846D01*
X1088500Y748950D01*
X1088562Y749052D01*
X1088627Y749152D01*
X1088696Y749250D01*
X1088768Y749346D01*
X1088843Y749439D01*
X1088920Y749529D01*
X1089001Y749617D01*
X1089085Y749702D01*
X1089172Y749784D01*
X1089261Y749864D01*
X1089353Y749940D01*
X1089447Y750014D01*
X1089544Y750084D01*
X1089642Y750151D01*
X1089743Y750215D01*
X1089847Y750275D01*
X1089952Y750332D01*
X1090059Y750385D01*
X1090167Y750435D01*
X1090277Y750481D01*
X1090389Y750523D01*
X1090502Y750562D01*
X1090616Y750597D01*
X1090731Y750628D01*
X1090848Y750656D01*
X1090965Y750679D01*
X1091082Y750699D01*
X1091201Y750715D01*
X1091320Y750727D01*
X1091439Y750735D01*
X1091558Y750739D01*
X1091678Y750739D01*
X1091797Y750735D01*
X1091916Y750727D01*
X1092035Y750715D01*
X1092154Y750699D01*
X1092271Y750679D01*
X1092388Y750656D01*
X1092505Y750628D01*
X1092620Y750597D01*
X1092734Y750562D01*
X1092847Y750523D01*
X1092959Y750481D01*
X1093069Y750435D01*
X1093177Y750385D01*
X1093284Y750332D01*
X1093389Y750275D01*
X1093493Y750215D01*
X1093594Y750151D01*
X1093692Y750084D01*
X1093789Y750014D01*
X1093883Y749940D01*
X1093975Y749864D01*
X1094064Y749784D01*
X1094151Y749702D01*
X1094235Y749617D01*
X1094316Y749529D01*
X1094393Y749439D01*
X1094468Y749346D01*
X1094540Y749250D01*
X1094609Y749152D01*
X1094674Y749052D01*
X1094736Y748950D01*
X1094795Y748846D01*
X1094850Y748740D01*
X1094901Y748632D01*
X1094949Y748523D01*
X1094994Y748412D01*
X1095034Y748300D01*
X1095071Y748186D01*
X1095104Y748071D01*
X1095134Y747956D01*
X1095159Y747839D01*
X1095181Y747722D01*
X1095198Y747603D01*
X1095212Y747485D01*
X1095222Y747366D01*
X1095228Y747246D01*
X1095230Y747127D01*
X1095230Y745321D01*
X1088006Y745321D01*
X1102147Y750739D02*
X1102147Y734483D01*
X1102147Y750739D02*
X1106663Y750739D01*
X1106767Y750737D01*
X1106870Y750731D01*
X1106974Y750721D01*
X1107077Y750707D01*
X1107179Y750689D01*
X1107280Y750668D01*
X1107381Y750642D01*
X1107480Y750613D01*
X1107579Y750580D01*
X1107676Y750543D01*
X1107771Y750502D01*
X1107865Y750458D01*
X1107957Y750410D01*
X1108047Y750359D01*
X1108136Y750304D01*
X1108222Y750246D01*
X1108305Y750184D01*
X1108387Y750120D01*
X1108465Y750052D01*
X1108541Y749982D01*
X1108615Y749909D01*
X1108685Y749832D01*
X1108753Y749754D01*
X1108817Y749672D01*
X1108879Y749589D01*
X1108937Y749503D01*
X1108992Y749414D01*
X1109043Y749324D01*
X1109091Y749232D01*
X1109135Y749138D01*
X1109176Y749043D01*
X1109213Y748946D01*
X1109246Y748847D01*
X1109275Y748748D01*
X1109301Y748647D01*
X1109322Y748546D01*
X1109340Y748444D01*
X1109354Y748341D01*
X1109364Y748237D01*
X1109370Y748134D01*
X1109372Y748030D01*
X1109372Y742611D01*
X1109370Y742510D01*
X1109364Y742409D01*
X1109355Y742308D01*
X1109342Y742207D01*
X1109325Y742107D01*
X1109304Y742008D01*
X1109280Y741910D01*
X1109252Y741813D01*
X1109220Y741716D01*
X1109185Y741621D01*
X1109146Y741528D01*
X1109104Y741436D01*
X1109058Y741345D01*
X1109009Y741257D01*
X1108957Y741170D01*
X1108901Y741085D01*
X1108843Y741002D01*
X1108781Y740922D01*
X1108716Y740844D01*
X1108649Y740768D01*
X1108579Y740695D01*
X1108506Y740625D01*
X1108430Y740558D01*
X1108352Y740493D01*
X1108272Y740431D01*
X1108189Y740373D01*
X1108104Y740317D01*
X1108018Y740265D01*
X1107929Y740216D01*
X1107838Y740170D01*
X1107746Y740128D01*
X1107653Y740089D01*
X1107558Y740054D01*
X1107461Y740022D01*
X1107364Y739994D01*
X1107266Y739970D01*
X1107167Y739949D01*
X1107067Y739932D01*
X1106966Y739919D01*
X1106865Y739910D01*
X1106764Y739904D01*
X1106663Y739902D01*
X1102147Y739902D01*
X1124709Y739902D02*
X1124709Y756158D01*
X1129225Y756158D01*
X1129358Y756156D01*
X1129490Y756150D01*
X1129622Y756140D01*
X1129754Y756127D01*
X1129886Y756109D01*
X1130016Y756088D01*
X1130147Y756063D01*
X1130276Y756034D01*
X1130404Y756001D01*
X1130532Y755965D01*
X1130658Y755925D01*
X1130783Y755881D01*
X1130907Y755833D01*
X1131029Y755782D01*
X1131150Y755727D01*
X1131269Y755669D01*
X1131387Y755607D01*
X1131502Y755542D01*
X1131616Y755473D01*
X1131727Y755402D01*
X1131836Y755326D01*
X1131943Y755248D01*
X1132048Y755167D01*
X1132150Y755082D01*
X1132250Y754995D01*
X1132347Y754905D01*
X1132442Y754812D01*
X1132533Y754716D01*
X1132622Y754618D01*
X1132708Y754517D01*
X1132791Y754413D01*
X1132871Y754307D01*
X1132947Y754199D01*
X1133021Y754089D01*
X1133091Y753976D01*
X1133158Y753862D01*
X1133221Y753745D01*
X1133281Y753627D01*
X1133338Y753507D01*
X1133391Y753385D01*
X1133440Y753262D01*
X1133486Y753138D01*
X1133528Y753012D01*
X1133566Y752885D01*
X1133601Y752757D01*
X1133632Y752628D01*
X1133659Y752499D01*
X1133682Y752368D01*
X1133702Y752237D01*
X1133717Y752105D01*
X1133729Y751973D01*
X1133737Y751841D01*
X1133741Y751708D01*
X1133741Y751576D01*
X1133737Y751443D01*
X1133729Y751311D01*
X1133717Y751179D01*
X1133702Y751047D01*
X1133682Y750916D01*
X1133659Y750785D01*
X1133632Y750656D01*
X1133601Y750527D01*
X1133566Y750399D01*
X1133528Y750272D01*
X1133486Y750146D01*
X1133440Y750022D01*
X1133391Y749899D01*
X1133338Y749777D01*
X1133281Y749657D01*
X1133221Y749539D01*
X1133158Y749422D01*
X1133091Y749308D01*
X1133021Y749195D01*
X1132947Y749085D01*
X1132871Y748977D01*
X1132791Y748871D01*
X1132708Y748767D01*
X1132622Y748666D01*
X1132533Y748568D01*
X1132442Y748472D01*
X1132347Y748379D01*
X1132250Y748289D01*
X1132150Y748202D01*
X1132048Y748117D01*
X1131943Y748036D01*
X1131836Y747958D01*
X1131727Y747882D01*
X1131616Y747811D01*
X1131502Y747742D01*
X1131387Y747677D01*
X1131269Y747615D01*
X1131150Y747557D01*
X1131029Y747502D01*
X1130907Y747451D01*
X1130783Y747403D01*
X1130658Y747359D01*
X1130532Y747319D01*
X1130404Y747283D01*
X1130276Y747250D01*
X1130147Y747221D01*
X1130016Y747196D01*
X1129886Y747175D01*
X1129754Y747157D01*
X1129622Y747144D01*
X1129490Y747134D01*
X1129358Y747128D01*
X1129225Y747126D01*
X1129225Y747127D02*
X1124709Y747127D01*
X1130128Y747127D02*
X1133740Y739902D01*
X1143197Y746224D02*
X1147261Y746224D01*
X1143197Y746224D02*
X1143085Y746222D01*
X1142974Y746216D01*
X1142863Y746206D01*
X1142752Y746193D01*
X1142642Y746175D01*
X1142533Y746153D01*
X1142424Y746128D01*
X1142316Y746099D01*
X1142210Y746066D01*
X1142104Y746029D01*
X1142000Y745989D01*
X1141898Y745945D01*
X1141797Y745897D01*
X1141698Y745846D01*
X1141600Y745791D01*
X1141505Y745733D01*
X1141412Y745672D01*
X1141321Y745607D01*
X1141232Y745539D01*
X1141146Y745468D01*
X1141063Y745395D01*
X1140982Y745318D01*
X1140903Y745238D01*
X1140828Y745156D01*
X1140756Y745071D01*
X1140686Y744984D01*
X1140620Y744894D01*
X1140557Y744802D01*
X1140497Y744707D01*
X1140441Y744611D01*
X1140388Y744513D01*
X1140339Y744413D01*
X1140293Y744311D01*
X1140251Y744208D01*
X1140212Y744103D01*
X1140177Y743997D01*
X1140146Y743890D01*
X1140119Y743782D01*
X1140095Y743673D01*
X1140076Y743563D01*
X1140060Y743453D01*
X1140048Y743342D01*
X1140040Y743230D01*
X1140036Y743119D01*
X1140036Y743007D01*
X1140040Y742896D01*
X1140048Y742784D01*
X1140060Y742673D01*
X1140076Y742563D01*
X1140095Y742453D01*
X1140119Y742344D01*
X1140146Y742236D01*
X1140177Y742129D01*
X1140212Y742023D01*
X1140251Y741918D01*
X1140293Y741815D01*
X1140339Y741713D01*
X1140388Y741613D01*
X1140441Y741515D01*
X1140497Y741419D01*
X1140557Y741324D01*
X1140620Y741232D01*
X1140686Y741142D01*
X1140756Y741055D01*
X1140828Y740970D01*
X1140903Y740888D01*
X1140982Y740808D01*
X1141063Y740731D01*
X1141146Y740658D01*
X1141232Y740587D01*
X1141321Y740519D01*
X1141412Y740454D01*
X1141505Y740393D01*
X1141600Y740335D01*
X1141698Y740280D01*
X1141797Y740229D01*
X1141898Y740181D01*
X1142000Y740137D01*
X1142104Y740097D01*
X1142210Y740060D01*
X1142316Y740027D01*
X1142424Y739998D01*
X1142533Y739973D01*
X1142642Y739951D01*
X1142752Y739933D01*
X1142863Y739920D01*
X1142974Y739910D01*
X1143085Y739904D01*
X1143197Y739902D01*
X1147261Y739902D01*
X1147261Y748030D01*
X1147259Y748131D01*
X1147253Y748232D01*
X1147244Y748333D01*
X1147231Y748434D01*
X1147214Y748534D01*
X1147193Y748633D01*
X1147169Y748731D01*
X1147141Y748828D01*
X1147109Y748925D01*
X1147074Y749020D01*
X1147035Y749113D01*
X1146993Y749205D01*
X1146947Y749296D01*
X1146898Y749385D01*
X1146846Y749471D01*
X1146790Y749556D01*
X1146732Y749639D01*
X1146670Y749719D01*
X1146605Y749797D01*
X1146538Y749873D01*
X1146468Y749946D01*
X1146395Y750016D01*
X1146319Y750083D01*
X1146241Y750148D01*
X1146161Y750210D01*
X1146078Y750268D01*
X1145993Y750324D01*
X1145907Y750376D01*
X1145818Y750425D01*
X1145727Y750471D01*
X1145635Y750513D01*
X1145542Y750552D01*
X1145447Y750587D01*
X1145350Y750619D01*
X1145253Y750647D01*
X1145155Y750671D01*
X1145056Y750692D01*
X1144956Y750709D01*
X1144855Y750722D01*
X1144754Y750731D01*
X1144653Y750737D01*
X1144552Y750739D01*
X1140939Y750739D01*
X1154977Y750739D02*
X1154977Y739902D01*
X1154977Y750739D02*
X1163105Y750739D01*
X1163206Y750737D01*
X1163307Y750731D01*
X1163408Y750722D01*
X1163509Y750709D01*
X1163609Y750692D01*
X1163708Y750671D01*
X1163806Y750647D01*
X1163903Y750619D01*
X1164000Y750587D01*
X1164095Y750552D01*
X1164188Y750513D01*
X1164280Y750471D01*
X1164371Y750425D01*
X1164460Y750376D01*
X1164546Y750324D01*
X1164631Y750268D01*
X1164714Y750210D01*
X1164794Y750148D01*
X1164872Y750083D01*
X1164948Y750016D01*
X1165021Y749946D01*
X1165091Y749873D01*
X1165158Y749797D01*
X1165223Y749719D01*
X1165285Y749639D01*
X1165343Y749556D01*
X1165399Y749471D01*
X1165451Y749385D01*
X1165500Y749296D01*
X1165546Y749205D01*
X1165588Y749113D01*
X1165627Y749020D01*
X1165662Y748925D01*
X1165694Y748828D01*
X1165722Y748731D01*
X1165746Y748633D01*
X1165767Y748534D01*
X1165784Y748434D01*
X1165797Y748333D01*
X1165806Y748232D01*
X1165812Y748131D01*
X1165814Y748030D01*
X1165814Y739902D01*
X1160395Y739902D02*
X1160395Y750739D01*
D11*
X109600Y538400D02*
X93600Y538400D01*
X93600Y528400D02*
X109600Y528400D01*
X103600Y531400D02*
X103600Y535400D01*
D12*
X89408Y546608D02*
X89408Y553720D01*
X91384Y553720D01*
X91470Y553718D01*
X91556Y553712D01*
X91642Y553703D01*
X91727Y553690D01*
X91812Y553673D01*
X91895Y553653D01*
X91978Y553629D01*
X92060Y553601D01*
X92140Y553570D01*
X92219Y553535D01*
X92296Y553497D01*
X92372Y553455D01*
X92446Y553411D01*
X92517Y553363D01*
X92587Y553312D01*
X92654Y553258D01*
X92719Y553201D01*
X92781Y553141D01*
X92841Y553079D01*
X92898Y553014D01*
X92952Y552947D01*
X93003Y552877D01*
X93051Y552806D01*
X93095Y552732D01*
X93137Y552656D01*
X93175Y552579D01*
X93210Y552500D01*
X93241Y552420D01*
X93269Y552338D01*
X93293Y552255D01*
X93313Y552172D01*
X93330Y552087D01*
X93343Y552002D01*
X93352Y551916D01*
X93358Y551830D01*
X93360Y551744D01*
X93359Y551744D02*
X93359Y548584D01*
X93360Y548584D02*
X93358Y548498D01*
X93352Y548412D01*
X93343Y548326D01*
X93330Y548241D01*
X93313Y548156D01*
X93293Y548073D01*
X93269Y547990D01*
X93241Y547908D01*
X93210Y547828D01*
X93175Y547749D01*
X93137Y547672D01*
X93095Y547596D01*
X93051Y547522D01*
X93003Y547451D01*
X92952Y547381D01*
X92898Y547314D01*
X92841Y547249D01*
X92781Y547187D01*
X92719Y547127D01*
X92654Y547070D01*
X92587Y547016D01*
X92517Y546965D01*
X92446Y546917D01*
X92372Y546873D01*
X92296Y546831D01*
X92219Y546793D01*
X92140Y546758D01*
X92060Y546727D01*
X91978Y546699D01*
X91895Y546675D01*
X91812Y546655D01*
X91727Y546638D01*
X91642Y546625D01*
X91556Y546616D01*
X91470Y546610D01*
X91384Y546608D01*
X89408Y546608D01*
X96967Y552140D02*
X98943Y553720D01*
X98943Y546608D01*
X100918Y546608D02*
X96967Y546608D01*
D11*
X93600Y716200D02*
X109600Y716200D01*
X109600Y706200D02*
X93600Y706200D01*
X103600Y709200D02*
X103600Y713200D01*
D12*
X89408Y724408D02*
X89408Y731520D01*
X91384Y731520D01*
X91470Y731518D01*
X91556Y731512D01*
X91642Y731503D01*
X91727Y731490D01*
X91812Y731473D01*
X91895Y731453D01*
X91978Y731429D01*
X92060Y731401D01*
X92140Y731370D01*
X92219Y731335D01*
X92296Y731297D01*
X92372Y731255D01*
X92446Y731211D01*
X92517Y731163D01*
X92587Y731112D01*
X92654Y731058D01*
X92719Y731001D01*
X92781Y730941D01*
X92841Y730879D01*
X92898Y730814D01*
X92952Y730747D01*
X93003Y730677D01*
X93051Y730606D01*
X93095Y730532D01*
X93137Y730456D01*
X93175Y730379D01*
X93210Y730300D01*
X93241Y730220D01*
X93269Y730138D01*
X93293Y730055D01*
X93313Y729972D01*
X93330Y729887D01*
X93343Y729802D01*
X93352Y729716D01*
X93358Y729630D01*
X93360Y729544D01*
X93359Y729544D02*
X93359Y726384D01*
X93360Y726384D02*
X93358Y726298D01*
X93352Y726212D01*
X93343Y726126D01*
X93330Y726041D01*
X93313Y725956D01*
X93293Y725873D01*
X93269Y725790D01*
X93241Y725708D01*
X93210Y725628D01*
X93175Y725549D01*
X93137Y725472D01*
X93095Y725396D01*
X93051Y725322D01*
X93003Y725251D01*
X92952Y725181D01*
X92898Y725114D01*
X92841Y725049D01*
X92781Y724987D01*
X92719Y724927D01*
X92654Y724870D01*
X92587Y724816D01*
X92517Y724765D01*
X92446Y724717D01*
X92372Y724673D01*
X92296Y724631D01*
X92219Y724593D01*
X92140Y724558D01*
X92060Y724527D01*
X91978Y724499D01*
X91895Y724475D01*
X91812Y724455D01*
X91727Y724438D01*
X91642Y724425D01*
X91556Y724416D01*
X91470Y724410D01*
X91384Y724408D01*
X89408Y724408D01*
X99140Y731520D02*
X99222Y731518D01*
X99304Y731512D01*
X99386Y731503D01*
X99467Y731490D01*
X99547Y731473D01*
X99627Y731452D01*
X99705Y731428D01*
X99782Y731400D01*
X99858Y731369D01*
X99933Y731334D01*
X100005Y731295D01*
X100076Y731254D01*
X100145Y731209D01*
X100211Y731161D01*
X100276Y731110D01*
X100338Y731056D01*
X100397Y730999D01*
X100454Y730940D01*
X100508Y730878D01*
X100559Y730813D01*
X100607Y730747D01*
X100652Y730678D01*
X100693Y730607D01*
X100732Y730535D01*
X100767Y730460D01*
X100798Y730384D01*
X100826Y730307D01*
X100850Y730229D01*
X100871Y730149D01*
X100888Y730069D01*
X100901Y729988D01*
X100910Y729906D01*
X100916Y729824D01*
X100918Y729742D01*
X99140Y731520D02*
X99047Y731518D01*
X98955Y731512D01*
X98863Y731503D01*
X98771Y731490D01*
X98680Y731473D01*
X98590Y731453D01*
X98500Y731429D01*
X98412Y731401D01*
X98324Y731369D01*
X98239Y731335D01*
X98154Y731296D01*
X98072Y731255D01*
X97991Y731210D01*
X97911Y731161D01*
X97834Y731110D01*
X97759Y731056D01*
X97687Y730998D01*
X97617Y730938D01*
X97549Y730874D01*
X97484Y730809D01*
X97421Y730740D01*
X97362Y730669D01*
X97305Y730596D01*
X97251Y730520D01*
X97201Y730443D01*
X97153Y730363D01*
X97109Y730282D01*
X97069Y730198D01*
X97031Y730114D01*
X96997Y730027D01*
X96967Y729940D01*
X100325Y728359D02*
X100386Y728420D01*
X100444Y728483D01*
X100499Y728549D01*
X100552Y728617D01*
X100601Y728688D01*
X100646Y728760D01*
X100689Y728835D01*
X100728Y728911D01*
X100764Y728990D01*
X100796Y729069D01*
X100824Y729150D01*
X100849Y729233D01*
X100870Y729316D01*
X100887Y729400D01*
X100901Y729485D01*
X100910Y729570D01*
X100916Y729656D01*
X100918Y729742D01*
X100325Y728359D02*
X96967Y724408D01*
X100918Y724408D01*
D11*
X93600Y881300D02*
X109600Y881300D01*
X109600Y871300D02*
X93600Y871300D01*
X103600Y874300D02*
X103600Y878300D01*
D12*
X89408Y889508D02*
X89408Y896620D01*
X91384Y896620D01*
X91470Y896618D01*
X91556Y896612D01*
X91642Y896603D01*
X91727Y896590D01*
X91812Y896573D01*
X91895Y896553D01*
X91978Y896529D01*
X92060Y896501D01*
X92140Y896470D01*
X92219Y896435D01*
X92296Y896397D01*
X92372Y896355D01*
X92446Y896311D01*
X92517Y896263D01*
X92587Y896212D01*
X92654Y896158D01*
X92719Y896101D01*
X92781Y896041D01*
X92841Y895979D01*
X92898Y895914D01*
X92952Y895847D01*
X93003Y895777D01*
X93051Y895706D01*
X93095Y895632D01*
X93137Y895556D01*
X93175Y895479D01*
X93210Y895400D01*
X93241Y895320D01*
X93269Y895238D01*
X93293Y895155D01*
X93313Y895072D01*
X93330Y894987D01*
X93343Y894902D01*
X93352Y894816D01*
X93358Y894730D01*
X93360Y894644D01*
X93359Y894644D02*
X93359Y891484D01*
X93360Y891484D02*
X93358Y891398D01*
X93352Y891312D01*
X93343Y891226D01*
X93330Y891141D01*
X93313Y891056D01*
X93293Y890973D01*
X93269Y890890D01*
X93241Y890808D01*
X93210Y890728D01*
X93175Y890649D01*
X93137Y890572D01*
X93095Y890496D01*
X93051Y890422D01*
X93003Y890351D01*
X92952Y890281D01*
X92898Y890214D01*
X92841Y890149D01*
X92781Y890087D01*
X92719Y890027D01*
X92654Y889970D01*
X92587Y889916D01*
X92517Y889865D01*
X92446Y889817D01*
X92372Y889773D01*
X92296Y889731D01*
X92219Y889693D01*
X92140Y889658D01*
X92060Y889627D01*
X91978Y889599D01*
X91895Y889575D01*
X91812Y889555D01*
X91727Y889538D01*
X91642Y889525D01*
X91556Y889516D01*
X91470Y889510D01*
X91384Y889508D01*
X89408Y889508D01*
X96967Y889508D02*
X98943Y889508D01*
X99030Y889510D01*
X99118Y889516D01*
X99205Y889525D01*
X99291Y889539D01*
X99377Y889556D01*
X99461Y889577D01*
X99545Y889602D01*
X99628Y889631D01*
X99709Y889663D01*
X99789Y889698D01*
X99867Y889737D01*
X99944Y889780D01*
X100018Y889826D01*
X100090Y889875D01*
X100160Y889927D01*
X100228Y889983D01*
X100293Y890041D01*
X100356Y890102D01*
X100415Y890166D01*
X100472Y890233D01*
X100526Y890301D01*
X100577Y890373D01*
X100624Y890446D01*
X100669Y890521D01*
X100710Y890599D01*
X100747Y890678D01*
X100781Y890758D01*
X100811Y890840D01*
X100838Y890923D01*
X100861Y891008D01*
X100880Y891093D01*
X100895Y891179D01*
X100907Y891266D01*
X100915Y891353D01*
X100919Y891440D01*
X100919Y891528D01*
X100915Y891615D01*
X100907Y891702D01*
X100895Y891789D01*
X100880Y891875D01*
X100861Y891960D01*
X100838Y892045D01*
X100811Y892128D01*
X100781Y892210D01*
X100747Y892290D01*
X100710Y892369D01*
X100669Y892447D01*
X100624Y892522D01*
X100577Y892595D01*
X100526Y892667D01*
X100472Y892735D01*
X100415Y892802D01*
X100356Y892866D01*
X100293Y892927D01*
X100228Y892985D01*
X100160Y893041D01*
X100090Y893093D01*
X100018Y893142D01*
X99944Y893188D01*
X99867Y893231D01*
X99789Y893270D01*
X99709Y893305D01*
X99628Y893337D01*
X99545Y893366D01*
X99461Y893391D01*
X99377Y893412D01*
X99291Y893429D01*
X99205Y893443D01*
X99118Y893452D01*
X99030Y893458D01*
X98943Y893460D01*
X99338Y896620D02*
X96967Y896620D01*
X99338Y896620D02*
X99417Y896618D01*
X99495Y896612D01*
X99573Y896602D01*
X99651Y896589D01*
X99728Y896571D01*
X99804Y896550D01*
X99878Y896525D01*
X99952Y896496D01*
X100024Y896464D01*
X100094Y896428D01*
X100162Y896388D01*
X100228Y896345D01*
X100292Y896299D01*
X100354Y896250D01*
X100413Y896198D01*
X100469Y896143D01*
X100523Y896085D01*
X100573Y896025D01*
X100621Y895962D01*
X100665Y895897D01*
X100706Y895830D01*
X100744Y895761D01*
X100778Y895690D01*
X100809Y895617D01*
X100836Y895543D01*
X100859Y895468D01*
X100878Y895392D01*
X100894Y895314D01*
X100906Y895236D01*
X100914Y895158D01*
X100918Y895079D01*
X100918Y895001D01*
X100914Y894922D01*
X100906Y894844D01*
X100894Y894766D01*
X100878Y894688D01*
X100859Y894612D01*
X100836Y894537D01*
X100809Y894463D01*
X100778Y894390D01*
X100744Y894319D01*
X100706Y894250D01*
X100665Y894183D01*
X100621Y894118D01*
X100573Y894055D01*
X100523Y893995D01*
X100469Y893937D01*
X100413Y893882D01*
X100354Y893830D01*
X100292Y893781D01*
X100228Y893735D01*
X100162Y893692D01*
X100094Y893652D01*
X100024Y893616D01*
X99952Y893584D01*
X99878Y893555D01*
X99804Y893530D01*
X99728Y893509D01*
X99651Y893491D01*
X99573Y893478D01*
X99495Y893468D01*
X99417Y893462D01*
X99338Y893460D01*
X99338Y893459D02*
X97757Y893459D01*
D11*
X369100Y177000D02*
X369100Y127000D01*
X369100Y217000D02*
X369100Y252000D01*
X469100Y252000D01*
X469100Y217000D01*
X469100Y177000D02*
X469100Y127000D01*
X459100Y127000D01*
X379100Y127000D02*
X369100Y127000D01*
X389100Y197000D02*
X389109Y197736D01*
X389136Y198472D01*
X389181Y199207D01*
X389244Y199941D01*
X389326Y200672D01*
X389425Y201402D01*
X389542Y202129D01*
X389676Y202853D01*
X389829Y203573D01*
X389999Y204289D01*
X390187Y205001D01*
X390392Y205709D01*
X390614Y206410D01*
X390854Y207107D01*
X391110Y207797D01*
X391384Y208481D01*
X391674Y209157D01*
X391980Y209827D01*
X392303Y210488D01*
X392642Y211142D01*
X392997Y211787D01*
X393368Y212423D01*
X393754Y213050D01*
X394156Y213667D01*
X394572Y214274D01*
X395004Y214871D01*
X395450Y215457D01*
X395910Y216032D01*
X396384Y216595D01*
X396871Y217147D01*
X397373Y217686D01*
X397887Y218213D01*
X398414Y218727D01*
X398953Y219229D01*
X399505Y219716D01*
X400068Y220190D01*
X400643Y220650D01*
X401229Y221096D01*
X401826Y221528D01*
X402433Y221944D01*
X403050Y222346D01*
X403677Y222732D01*
X404313Y223103D01*
X404958Y223458D01*
X405612Y223797D01*
X406273Y224120D01*
X406943Y224426D01*
X407619Y224716D01*
X408303Y224990D01*
X408993Y225246D01*
X409690Y225486D01*
X410391Y225708D01*
X411099Y225913D01*
X411811Y226101D01*
X412527Y226271D01*
X413247Y226424D01*
X413971Y226558D01*
X414698Y226675D01*
X415428Y226774D01*
X416159Y226856D01*
X416893Y226919D01*
X417628Y226964D01*
X418364Y226991D01*
X419100Y227000D01*
X419836Y226991D01*
X420572Y226964D01*
X421307Y226919D01*
X422041Y226856D01*
X422772Y226774D01*
X423502Y226675D01*
X424229Y226558D01*
X424953Y226424D01*
X425673Y226271D01*
X426389Y226101D01*
X427101Y225913D01*
X427809Y225708D01*
X428510Y225486D01*
X429207Y225246D01*
X429897Y224990D01*
X430581Y224716D01*
X431257Y224426D01*
X431927Y224120D01*
X432588Y223797D01*
X433242Y223458D01*
X433887Y223103D01*
X434523Y222732D01*
X435150Y222346D01*
X435767Y221944D01*
X436374Y221528D01*
X436971Y221096D01*
X437557Y220650D01*
X438132Y220190D01*
X438695Y219716D01*
X439247Y219229D01*
X439786Y218727D01*
X440313Y218213D01*
X440827Y217686D01*
X441329Y217147D01*
X441816Y216595D01*
X442290Y216032D01*
X442750Y215457D01*
X443196Y214871D01*
X443628Y214274D01*
X444044Y213667D01*
X444446Y213050D01*
X444832Y212423D01*
X445203Y211787D01*
X445558Y211142D01*
X445897Y210488D01*
X446220Y209827D01*
X446526Y209157D01*
X446816Y208481D01*
X447090Y207797D01*
X447346Y207107D01*
X447586Y206410D01*
X447808Y205709D01*
X448013Y205001D01*
X448201Y204289D01*
X448371Y203573D01*
X448524Y202853D01*
X448658Y202129D01*
X448775Y201402D01*
X448874Y200672D01*
X448956Y199941D01*
X449019Y199207D01*
X449064Y198472D01*
X449091Y197736D01*
X449100Y197000D01*
X449091Y196264D01*
X449064Y195528D01*
X449019Y194793D01*
X448956Y194059D01*
X448874Y193328D01*
X448775Y192598D01*
X448658Y191871D01*
X448524Y191147D01*
X448371Y190427D01*
X448201Y189711D01*
X448013Y188999D01*
X447808Y188291D01*
X447586Y187590D01*
X447346Y186893D01*
X447090Y186203D01*
X446816Y185519D01*
X446526Y184843D01*
X446220Y184173D01*
X445897Y183512D01*
X445558Y182858D01*
X445203Y182213D01*
X444832Y181577D01*
X444446Y180950D01*
X444044Y180333D01*
X443628Y179726D01*
X443196Y179129D01*
X442750Y178543D01*
X442290Y177968D01*
X441816Y177405D01*
X441329Y176853D01*
X440827Y176314D01*
X440313Y175787D01*
X439786Y175273D01*
X439247Y174771D01*
X438695Y174284D01*
X438132Y173810D01*
X437557Y173350D01*
X436971Y172904D01*
X436374Y172472D01*
X435767Y172056D01*
X435150Y171654D01*
X434523Y171268D01*
X433887Y170897D01*
X433242Y170542D01*
X432588Y170203D01*
X431927Y169880D01*
X431257Y169574D01*
X430581Y169284D01*
X429897Y169010D01*
X429207Y168754D01*
X428510Y168514D01*
X427809Y168292D01*
X427101Y168087D01*
X426389Y167899D01*
X425673Y167729D01*
X424953Y167576D01*
X424229Y167442D01*
X423502Y167325D01*
X422772Y167226D01*
X422041Y167144D01*
X421307Y167081D01*
X420572Y167036D01*
X419836Y167009D01*
X419100Y167000D01*
X418364Y167009D01*
X417628Y167036D01*
X416893Y167081D01*
X416159Y167144D01*
X415428Y167226D01*
X414698Y167325D01*
X413971Y167442D01*
X413247Y167576D01*
X412527Y167729D01*
X411811Y167899D01*
X411099Y168087D01*
X410391Y168292D01*
X409690Y168514D01*
X408993Y168754D01*
X408303Y169010D01*
X407619Y169284D01*
X406943Y169574D01*
X406273Y169880D01*
X405612Y170203D01*
X404958Y170542D01*
X404313Y170897D01*
X403677Y171268D01*
X403050Y171654D01*
X402433Y172056D01*
X401826Y172472D01*
X401229Y172904D01*
X400643Y173350D01*
X400068Y173810D01*
X399505Y174284D01*
X398953Y174771D01*
X398414Y175273D01*
X397887Y175787D01*
X397373Y176314D01*
X396871Y176853D01*
X396384Y177405D01*
X395910Y177968D01*
X395450Y178543D01*
X395004Y179129D01*
X394572Y179726D01*
X394156Y180333D01*
X393754Y180950D01*
X393368Y181577D01*
X392997Y182213D01*
X392642Y182858D01*
X392303Y183512D01*
X391980Y184173D01*
X391674Y184843D01*
X391384Y185519D01*
X391110Y186203D01*
X390854Y186893D01*
X390614Y187590D01*
X390392Y188291D01*
X390187Y188999D01*
X389999Y189711D01*
X389829Y190427D01*
X389676Y191147D01*
X389542Y191871D01*
X389425Y192598D01*
X389326Y193328D01*
X389244Y194059D01*
X389181Y194793D01*
X389136Y195528D01*
X389109Y196264D01*
X389100Y197000D01*
D13*
X368681Y254381D02*
X368681Y261747D01*
X370727Y261747D01*
X370816Y261745D01*
X370905Y261739D01*
X370994Y261729D01*
X371082Y261716D01*
X371170Y261699D01*
X371257Y261677D01*
X371342Y261652D01*
X371427Y261624D01*
X371510Y261591D01*
X371592Y261555D01*
X371672Y261516D01*
X371750Y261473D01*
X371826Y261427D01*
X371901Y261377D01*
X371973Y261324D01*
X372042Y261268D01*
X372109Y261209D01*
X372174Y261148D01*
X372235Y261083D01*
X372294Y261016D01*
X372350Y260947D01*
X372403Y260875D01*
X372453Y260800D01*
X372499Y260724D01*
X372542Y260646D01*
X372581Y260566D01*
X372617Y260484D01*
X372650Y260401D01*
X372678Y260316D01*
X372703Y260231D01*
X372725Y260144D01*
X372742Y260056D01*
X372755Y259968D01*
X372765Y259879D01*
X372771Y259790D01*
X372773Y259701D01*
X372771Y259612D01*
X372765Y259523D01*
X372755Y259434D01*
X372742Y259346D01*
X372725Y259258D01*
X372703Y259171D01*
X372678Y259086D01*
X372650Y259001D01*
X372617Y258918D01*
X372581Y258836D01*
X372542Y258756D01*
X372499Y258678D01*
X372453Y258602D01*
X372403Y258527D01*
X372350Y258455D01*
X372294Y258386D01*
X372235Y258319D01*
X372174Y258254D01*
X372109Y258193D01*
X372042Y258134D01*
X371973Y258078D01*
X371901Y258025D01*
X371826Y257975D01*
X371750Y257929D01*
X371672Y257886D01*
X371592Y257847D01*
X371510Y257811D01*
X371427Y257778D01*
X371342Y257750D01*
X371257Y257725D01*
X371170Y257703D01*
X371082Y257686D01*
X370994Y257673D01*
X370905Y257663D01*
X370816Y257657D01*
X370727Y257655D01*
X368681Y257655D01*
X371136Y257655D02*
X372773Y254381D01*
X375945Y260110D02*
X377991Y261747D01*
X377991Y254381D01*
X375945Y254381D02*
X380037Y254381D01*
D11*
X800900Y177000D02*
X800900Y127000D01*
X800900Y217000D02*
X800900Y252000D01*
X900900Y252000D01*
X900900Y217000D01*
X900900Y177000D02*
X900900Y127000D01*
X890900Y127000D01*
X810900Y127000D02*
X800900Y127000D01*
X820900Y197000D02*
X820909Y197736D01*
X820936Y198472D01*
X820981Y199207D01*
X821044Y199941D01*
X821126Y200672D01*
X821225Y201402D01*
X821342Y202129D01*
X821476Y202853D01*
X821629Y203573D01*
X821799Y204289D01*
X821987Y205001D01*
X822192Y205709D01*
X822414Y206410D01*
X822654Y207107D01*
X822910Y207797D01*
X823184Y208481D01*
X823474Y209157D01*
X823780Y209827D01*
X824103Y210488D01*
X824442Y211142D01*
X824797Y211787D01*
X825168Y212423D01*
X825554Y213050D01*
X825956Y213667D01*
X826372Y214274D01*
X826804Y214871D01*
X827250Y215457D01*
X827710Y216032D01*
X828184Y216595D01*
X828671Y217147D01*
X829173Y217686D01*
X829687Y218213D01*
X830214Y218727D01*
X830753Y219229D01*
X831305Y219716D01*
X831868Y220190D01*
X832443Y220650D01*
X833029Y221096D01*
X833626Y221528D01*
X834233Y221944D01*
X834850Y222346D01*
X835477Y222732D01*
X836113Y223103D01*
X836758Y223458D01*
X837412Y223797D01*
X838073Y224120D01*
X838743Y224426D01*
X839419Y224716D01*
X840103Y224990D01*
X840793Y225246D01*
X841490Y225486D01*
X842191Y225708D01*
X842899Y225913D01*
X843611Y226101D01*
X844327Y226271D01*
X845047Y226424D01*
X845771Y226558D01*
X846498Y226675D01*
X847228Y226774D01*
X847959Y226856D01*
X848693Y226919D01*
X849428Y226964D01*
X850164Y226991D01*
X850900Y227000D01*
X851636Y226991D01*
X852372Y226964D01*
X853107Y226919D01*
X853841Y226856D01*
X854572Y226774D01*
X855302Y226675D01*
X856029Y226558D01*
X856753Y226424D01*
X857473Y226271D01*
X858189Y226101D01*
X858901Y225913D01*
X859609Y225708D01*
X860310Y225486D01*
X861007Y225246D01*
X861697Y224990D01*
X862381Y224716D01*
X863057Y224426D01*
X863727Y224120D01*
X864388Y223797D01*
X865042Y223458D01*
X865687Y223103D01*
X866323Y222732D01*
X866950Y222346D01*
X867567Y221944D01*
X868174Y221528D01*
X868771Y221096D01*
X869357Y220650D01*
X869932Y220190D01*
X870495Y219716D01*
X871047Y219229D01*
X871586Y218727D01*
X872113Y218213D01*
X872627Y217686D01*
X873129Y217147D01*
X873616Y216595D01*
X874090Y216032D01*
X874550Y215457D01*
X874996Y214871D01*
X875428Y214274D01*
X875844Y213667D01*
X876246Y213050D01*
X876632Y212423D01*
X877003Y211787D01*
X877358Y211142D01*
X877697Y210488D01*
X878020Y209827D01*
X878326Y209157D01*
X878616Y208481D01*
X878890Y207797D01*
X879146Y207107D01*
X879386Y206410D01*
X879608Y205709D01*
X879813Y205001D01*
X880001Y204289D01*
X880171Y203573D01*
X880324Y202853D01*
X880458Y202129D01*
X880575Y201402D01*
X880674Y200672D01*
X880756Y199941D01*
X880819Y199207D01*
X880864Y198472D01*
X880891Y197736D01*
X880900Y197000D01*
X880891Y196264D01*
X880864Y195528D01*
X880819Y194793D01*
X880756Y194059D01*
X880674Y193328D01*
X880575Y192598D01*
X880458Y191871D01*
X880324Y191147D01*
X880171Y190427D01*
X880001Y189711D01*
X879813Y188999D01*
X879608Y188291D01*
X879386Y187590D01*
X879146Y186893D01*
X878890Y186203D01*
X878616Y185519D01*
X878326Y184843D01*
X878020Y184173D01*
X877697Y183512D01*
X877358Y182858D01*
X877003Y182213D01*
X876632Y181577D01*
X876246Y180950D01*
X875844Y180333D01*
X875428Y179726D01*
X874996Y179129D01*
X874550Y178543D01*
X874090Y177968D01*
X873616Y177405D01*
X873129Y176853D01*
X872627Y176314D01*
X872113Y175787D01*
X871586Y175273D01*
X871047Y174771D01*
X870495Y174284D01*
X869932Y173810D01*
X869357Y173350D01*
X868771Y172904D01*
X868174Y172472D01*
X867567Y172056D01*
X866950Y171654D01*
X866323Y171268D01*
X865687Y170897D01*
X865042Y170542D01*
X864388Y170203D01*
X863727Y169880D01*
X863057Y169574D01*
X862381Y169284D01*
X861697Y169010D01*
X861007Y168754D01*
X860310Y168514D01*
X859609Y168292D01*
X858901Y168087D01*
X858189Y167899D01*
X857473Y167729D01*
X856753Y167576D01*
X856029Y167442D01*
X855302Y167325D01*
X854572Y167226D01*
X853841Y167144D01*
X853107Y167081D01*
X852372Y167036D01*
X851636Y167009D01*
X850900Y167000D01*
X850164Y167009D01*
X849428Y167036D01*
X848693Y167081D01*
X847959Y167144D01*
X847228Y167226D01*
X846498Y167325D01*
X845771Y167442D01*
X845047Y167576D01*
X844327Y167729D01*
X843611Y167899D01*
X842899Y168087D01*
X842191Y168292D01*
X841490Y168514D01*
X840793Y168754D01*
X840103Y169010D01*
X839419Y169284D01*
X838743Y169574D01*
X838073Y169880D01*
X837412Y170203D01*
X836758Y170542D01*
X836113Y170897D01*
X835477Y171268D01*
X834850Y171654D01*
X834233Y172056D01*
X833626Y172472D01*
X833029Y172904D01*
X832443Y173350D01*
X831868Y173810D01*
X831305Y174284D01*
X830753Y174771D01*
X830214Y175273D01*
X829687Y175787D01*
X829173Y176314D01*
X828671Y176853D01*
X828184Y177405D01*
X827710Y177968D01*
X827250Y178543D01*
X826804Y179129D01*
X826372Y179726D01*
X825956Y180333D01*
X825554Y180950D01*
X825168Y181577D01*
X824797Y182213D01*
X824442Y182858D01*
X824103Y183512D01*
X823780Y184173D01*
X823474Y184843D01*
X823184Y185519D01*
X822910Y186203D01*
X822654Y186893D01*
X822414Y187590D01*
X822192Y188291D01*
X821987Y188999D01*
X821799Y189711D01*
X821629Y190427D01*
X821476Y191147D01*
X821342Y191871D01*
X821225Y192598D01*
X821126Y193328D01*
X821044Y194059D01*
X820981Y194793D01*
X820936Y195528D01*
X820909Y196264D01*
X820900Y197000D01*
D13*
X800481Y254381D02*
X800481Y261747D01*
X802527Y261747D01*
X802616Y261745D01*
X802705Y261739D01*
X802794Y261729D01*
X802882Y261716D01*
X802970Y261699D01*
X803057Y261677D01*
X803142Y261652D01*
X803227Y261624D01*
X803310Y261591D01*
X803392Y261555D01*
X803472Y261516D01*
X803550Y261473D01*
X803626Y261427D01*
X803701Y261377D01*
X803773Y261324D01*
X803842Y261268D01*
X803909Y261209D01*
X803974Y261148D01*
X804035Y261083D01*
X804094Y261016D01*
X804150Y260947D01*
X804203Y260875D01*
X804253Y260800D01*
X804299Y260724D01*
X804342Y260646D01*
X804381Y260566D01*
X804417Y260484D01*
X804450Y260401D01*
X804478Y260316D01*
X804503Y260231D01*
X804525Y260144D01*
X804542Y260056D01*
X804555Y259968D01*
X804565Y259879D01*
X804571Y259790D01*
X804573Y259701D01*
X804571Y259612D01*
X804565Y259523D01*
X804555Y259434D01*
X804542Y259346D01*
X804525Y259258D01*
X804503Y259171D01*
X804478Y259086D01*
X804450Y259001D01*
X804417Y258918D01*
X804381Y258836D01*
X804342Y258756D01*
X804299Y258678D01*
X804253Y258602D01*
X804203Y258527D01*
X804150Y258455D01*
X804094Y258386D01*
X804035Y258319D01*
X803974Y258254D01*
X803909Y258193D01*
X803842Y258134D01*
X803773Y258078D01*
X803701Y258025D01*
X803626Y257975D01*
X803550Y257929D01*
X803472Y257886D01*
X803392Y257847D01*
X803310Y257811D01*
X803227Y257778D01*
X803142Y257750D01*
X803057Y257725D01*
X802970Y257703D01*
X802882Y257686D01*
X802794Y257673D01*
X802705Y257663D01*
X802616Y257657D01*
X802527Y257655D01*
X800481Y257655D01*
X802936Y257655D02*
X804573Y254381D01*
X811838Y259906D02*
X811836Y259991D01*
X811830Y260076D01*
X811820Y260160D01*
X811807Y260244D01*
X811789Y260328D01*
X811768Y260410D01*
X811743Y260491D01*
X811714Y260571D01*
X811681Y260650D01*
X811645Y260727D01*
X811605Y260802D01*
X811562Y260876D01*
X811516Y260947D01*
X811466Y261016D01*
X811413Y261083D01*
X811357Y261147D01*
X811298Y261208D01*
X811237Y261267D01*
X811173Y261323D01*
X811106Y261376D01*
X811037Y261426D01*
X810966Y261472D01*
X810892Y261515D01*
X810817Y261555D01*
X810740Y261591D01*
X810661Y261624D01*
X810581Y261653D01*
X810500Y261678D01*
X810418Y261699D01*
X810334Y261717D01*
X810250Y261730D01*
X810166Y261740D01*
X810081Y261746D01*
X809996Y261748D01*
X809996Y261747D02*
X809900Y261745D01*
X809804Y261739D01*
X809709Y261729D01*
X809614Y261716D01*
X809519Y261698D01*
X809426Y261677D01*
X809333Y261652D01*
X809242Y261623D01*
X809151Y261591D01*
X809062Y261555D01*
X808975Y261515D01*
X808889Y261472D01*
X808805Y261426D01*
X808723Y261376D01*
X808643Y261322D01*
X808566Y261266D01*
X808491Y261206D01*
X808418Y261144D01*
X808348Y261078D01*
X808280Y261010D01*
X808215Y260939D01*
X808154Y260866D01*
X808095Y260790D01*
X808039Y260711D01*
X807987Y260631D01*
X807938Y260548D01*
X807892Y260464D01*
X807850Y260378D01*
X807812Y260290D01*
X807777Y260201D01*
X807745Y260110D01*
X811223Y258474D02*
X811283Y258533D01*
X811340Y258595D01*
X811395Y258659D01*
X811446Y258726D01*
X811495Y258795D01*
X811541Y258865D01*
X811584Y258938D01*
X811624Y259012D01*
X811660Y259088D01*
X811693Y259166D01*
X811723Y259245D01*
X811750Y259325D01*
X811773Y259406D01*
X811792Y259488D01*
X811808Y259570D01*
X811821Y259654D01*
X811830Y259738D01*
X811835Y259822D01*
X811837Y259906D01*
X811223Y258473D02*
X807745Y254381D01*
X811837Y254381D01*
D11*
X50800Y871220D02*
X50800Y881380D01*
D13*
X38481Y889381D02*
X38481Y896747D01*
X40527Y896747D01*
X40616Y896745D01*
X40705Y896739D01*
X40794Y896729D01*
X40882Y896716D01*
X40970Y896699D01*
X41057Y896677D01*
X41142Y896652D01*
X41227Y896624D01*
X41310Y896591D01*
X41392Y896555D01*
X41472Y896516D01*
X41550Y896473D01*
X41626Y896427D01*
X41701Y896377D01*
X41773Y896324D01*
X41842Y896268D01*
X41909Y896209D01*
X41974Y896148D01*
X42035Y896083D01*
X42094Y896016D01*
X42150Y895947D01*
X42203Y895875D01*
X42253Y895800D01*
X42299Y895724D01*
X42342Y895646D01*
X42381Y895566D01*
X42417Y895484D01*
X42450Y895401D01*
X42478Y895316D01*
X42503Y895231D01*
X42525Y895144D01*
X42542Y895056D01*
X42555Y894968D01*
X42565Y894879D01*
X42571Y894790D01*
X42573Y894701D01*
X42571Y894612D01*
X42565Y894523D01*
X42555Y894434D01*
X42542Y894346D01*
X42525Y894258D01*
X42503Y894171D01*
X42478Y894086D01*
X42450Y894001D01*
X42417Y893918D01*
X42381Y893836D01*
X42342Y893756D01*
X42299Y893678D01*
X42253Y893602D01*
X42203Y893527D01*
X42150Y893455D01*
X42094Y893386D01*
X42035Y893319D01*
X41974Y893254D01*
X41909Y893193D01*
X41842Y893134D01*
X41773Y893078D01*
X41701Y893025D01*
X41626Y892975D01*
X41550Y892929D01*
X41472Y892886D01*
X41392Y892847D01*
X41310Y892811D01*
X41227Y892778D01*
X41142Y892750D01*
X41057Y892725D01*
X40970Y892703D01*
X40882Y892686D01*
X40794Y892673D01*
X40705Y892663D01*
X40616Y892657D01*
X40527Y892655D01*
X38481Y892655D01*
X40936Y892655D02*
X42573Y889381D01*
X45745Y889381D02*
X47791Y889381D01*
X47880Y889383D01*
X47969Y889389D01*
X48058Y889399D01*
X48146Y889412D01*
X48234Y889429D01*
X48321Y889451D01*
X48406Y889476D01*
X48491Y889504D01*
X48574Y889537D01*
X48656Y889573D01*
X48736Y889612D01*
X48814Y889655D01*
X48890Y889701D01*
X48965Y889751D01*
X49037Y889804D01*
X49106Y889860D01*
X49173Y889919D01*
X49238Y889980D01*
X49299Y890045D01*
X49358Y890112D01*
X49414Y890181D01*
X49467Y890253D01*
X49517Y890328D01*
X49563Y890404D01*
X49606Y890482D01*
X49645Y890562D01*
X49681Y890644D01*
X49714Y890727D01*
X49742Y890812D01*
X49767Y890897D01*
X49789Y890984D01*
X49806Y891072D01*
X49819Y891160D01*
X49829Y891249D01*
X49835Y891338D01*
X49837Y891427D01*
X49835Y891516D01*
X49829Y891605D01*
X49819Y891694D01*
X49806Y891782D01*
X49789Y891870D01*
X49767Y891957D01*
X49742Y892042D01*
X49714Y892127D01*
X49681Y892210D01*
X49645Y892292D01*
X49606Y892372D01*
X49563Y892450D01*
X49517Y892526D01*
X49467Y892601D01*
X49414Y892673D01*
X49358Y892742D01*
X49299Y892809D01*
X49238Y892874D01*
X49173Y892935D01*
X49106Y892994D01*
X49037Y893050D01*
X48965Y893103D01*
X48890Y893153D01*
X48814Y893199D01*
X48736Y893242D01*
X48656Y893281D01*
X48574Y893317D01*
X48491Y893350D01*
X48406Y893378D01*
X48321Y893403D01*
X48234Y893425D01*
X48146Y893442D01*
X48058Y893455D01*
X47969Y893465D01*
X47880Y893471D01*
X47791Y893473D01*
X48200Y896747D02*
X45745Y896747D01*
X48200Y896747D02*
X48279Y896745D01*
X48358Y896739D01*
X48437Y896730D01*
X48515Y896717D01*
X48592Y896699D01*
X48668Y896679D01*
X48743Y896654D01*
X48817Y896626D01*
X48890Y896595D01*
X48961Y896559D01*
X49030Y896521D01*
X49097Y896479D01*
X49162Y896434D01*
X49225Y896386D01*
X49286Y896335D01*
X49343Y896281D01*
X49399Y896225D01*
X49451Y896166D01*
X49501Y896104D01*
X49547Y896040D01*
X49591Y895974D01*
X49631Y895906D01*
X49667Y895836D01*
X49701Y895764D01*
X49731Y895690D01*
X49757Y895616D01*
X49780Y895540D01*
X49798Y895463D01*
X49814Y895386D01*
X49825Y895307D01*
X49833Y895229D01*
X49837Y895150D01*
X49837Y895070D01*
X49833Y894991D01*
X49825Y894913D01*
X49814Y894834D01*
X49798Y894757D01*
X49780Y894680D01*
X49757Y894604D01*
X49731Y894530D01*
X49701Y894456D01*
X49667Y894384D01*
X49631Y894314D01*
X49591Y894246D01*
X49547Y894180D01*
X49501Y894116D01*
X49451Y894054D01*
X49399Y893995D01*
X49343Y893939D01*
X49286Y893885D01*
X49225Y893834D01*
X49162Y893786D01*
X49097Y893741D01*
X49030Y893699D01*
X48961Y893661D01*
X48890Y893625D01*
X48817Y893594D01*
X48743Y893566D01*
X48668Y893541D01*
X48592Y893521D01*
X48515Y893503D01*
X48437Y893490D01*
X48358Y893481D01*
X48279Y893475D01*
X48200Y893473D01*
X46563Y893473D01*
D11*
X248920Y330200D02*
X259080Y330200D01*
D13*
X240919Y317881D02*
X233553Y317881D01*
X233553Y319927D01*
X233555Y320016D01*
X233561Y320105D01*
X233571Y320194D01*
X233584Y320282D01*
X233601Y320370D01*
X233623Y320457D01*
X233648Y320542D01*
X233676Y320627D01*
X233709Y320710D01*
X233745Y320792D01*
X233784Y320872D01*
X233827Y320950D01*
X233873Y321026D01*
X233923Y321101D01*
X233976Y321173D01*
X234032Y321242D01*
X234091Y321309D01*
X234152Y321374D01*
X234217Y321435D01*
X234284Y321494D01*
X234353Y321550D01*
X234425Y321603D01*
X234500Y321653D01*
X234576Y321699D01*
X234654Y321742D01*
X234734Y321781D01*
X234816Y321817D01*
X234899Y321850D01*
X234984Y321878D01*
X235069Y321903D01*
X235156Y321925D01*
X235244Y321942D01*
X235332Y321955D01*
X235421Y321965D01*
X235510Y321971D01*
X235599Y321973D01*
X235688Y321971D01*
X235777Y321965D01*
X235866Y321955D01*
X235954Y321942D01*
X236042Y321925D01*
X236129Y321903D01*
X236214Y321878D01*
X236299Y321850D01*
X236382Y321817D01*
X236464Y321781D01*
X236544Y321742D01*
X236622Y321699D01*
X236698Y321653D01*
X236773Y321603D01*
X236845Y321550D01*
X236914Y321494D01*
X236981Y321435D01*
X237046Y321374D01*
X237107Y321309D01*
X237166Y321242D01*
X237222Y321173D01*
X237275Y321101D01*
X237325Y321026D01*
X237371Y320950D01*
X237414Y320872D01*
X237453Y320792D01*
X237489Y320710D01*
X237522Y320627D01*
X237550Y320542D01*
X237575Y320457D01*
X237597Y320370D01*
X237614Y320282D01*
X237627Y320194D01*
X237637Y320105D01*
X237643Y320016D01*
X237645Y319927D01*
X237645Y317881D01*
X237645Y320336D02*
X240919Y321973D01*
X239282Y325145D02*
X233553Y326782D01*
X239282Y325145D02*
X239282Y329237D01*
X237645Y328010D02*
X240919Y328010D01*
D11*
X1066800Y309880D02*
X1066800Y299720D01*
D13*
X1067763Y291719D02*
X1067763Y284353D01*
X1067763Y291719D02*
X1069809Y291719D01*
X1069898Y291717D01*
X1069987Y291711D01*
X1070076Y291701D01*
X1070164Y291688D01*
X1070252Y291671D01*
X1070339Y291649D01*
X1070424Y291624D01*
X1070509Y291596D01*
X1070592Y291563D01*
X1070674Y291527D01*
X1070754Y291488D01*
X1070832Y291445D01*
X1070908Y291399D01*
X1070983Y291349D01*
X1071055Y291296D01*
X1071124Y291240D01*
X1071191Y291181D01*
X1071256Y291120D01*
X1071317Y291055D01*
X1071376Y290988D01*
X1071432Y290919D01*
X1071485Y290847D01*
X1071535Y290772D01*
X1071581Y290696D01*
X1071624Y290618D01*
X1071663Y290538D01*
X1071699Y290456D01*
X1071732Y290373D01*
X1071760Y290288D01*
X1071785Y290203D01*
X1071807Y290116D01*
X1071824Y290028D01*
X1071837Y289940D01*
X1071847Y289851D01*
X1071853Y289762D01*
X1071855Y289673D01*
X1071853Y289584D01*
X1071847Y289495D01*
X1071837Y289406D01*
X1071824Y289318D01*
X1071807Y289230D01*
X1071785Y289143D01*
X1071760Y289058D01*
X1071732Y288973D01*
X1071699Y288890D01*
X1071663Y288808D01*
X1071624Y288728D01*
X1071581Y288650D01*
X1071535Y288574D01*
X1071485Y288499D01*
X1071432Y288427D01*
X1071376Y288358D01*
X1071317Y288291D01*
X1071256Y288226D01*
X1071191Y288165D01*
X1071124Y288106D01*
X1071055Y288050D01*
X1070983Y287997D01*
X1070908Y287947D01*
X1070832Y287901D01*
X1070754Y287858D01*
X1070674Y287819D01*
X1070592Y287783D01*
X1070509Y287750D01*
X1070424Y287722D01*
X1070339Y287697D01*
X1070252Y287675D01*
X1070164Y287658D01*
X1070076Y287645D01*
X1069987Y287635D01*
X1069898Y287629D01*
X1069809Y287627D01*
X1067763Y287627D01*
X1070218Y287627D02*
X1071855Y284353D01*
X1075027Y284353D02*
X1077482Y284353D01*
X1077560Y284355D01*
X1077638Y284360D01*
X1077715Y284370D01*
X1077792Y284383D01*
X1077868Y284399D01*
X1077943Y284419D01*
X1078017Y284443D01*
X1078090Y284470D01*
X1078162Y284501D01*
X1078232Y284535D01*
X1078301Y284572D01*
X1078367Y284613D01*
X1078432Y284657D01*
X1078494Y284703D01*
X1078554Y284753D01*
X1078612Y284805D01*
X1078667Y284860D01*
X1078719Y284918D01*
X1078769Y284978D01*
X1078815Y285040D01*
X1078859Y285105D01*
X1078900Y285172D01*
X1078937Y285240D01*
X1078971Y285310D01*
X1079002Y285382D01*
X1079029Y285455D01*
X1079053Y285529D01*
X1079073Y285604D01*
X1079089Y285680D01*
X1079102Y285757D01*
X1079112Y285834D01*
X1079117Y285912D01*
X1079119Y285990D01*
X1079119Y286808D01*
X1079117Y286886D01*
X1079112Y286964D01*
X1079102Y287041D01*
X1079089Y287118D01*
X1079073Y287194D01*
X1079053Y287269D01*
X1079029Y287343D01*
X1079002Y287416D01*
X1078971Y287488D01*
X1078937Y287558D01*
X1078900Y287627D01*
X1078859Y287693D01*
X1078815Y287758D01*
X1078769Y287820D01*
X1078719Y287880D01*
X1078667Y287938D01*
X1078612Y287993D01*
X1078554Y288045D01*
X1078494Y288095D01*
X1078432Y288141D01*
X1078367Y288185D01*
X1078301Y288226D01*
X1078232Y288263D01*
X1078162Y288297D01*
X1078090Y288328D01*
X1078017Y288355D01*
X1077943Y288379D01*
X1077868Y288399D01*
X1077792Y288415D01*
X1077715Y288428D01*
X1077638Y288438D01*
X1077560Y288443D01*
X1077482Y288445D01*
X1075027Y288445D01*
X1075027Y291719D01*
X1079119Y291719D01*
D14*
X943200Y374650D02*
X943207Y375190D01*
X943226Y375729D01*
X943260Y376268D01*
X943306Y376806D01*
X943365Y377343D01*
X943438Y377878D01*
X943524Y378411D01*
X943623Y378942D01*
X943735Y379470D01*
X943859Y379996D01*
X943997Y380518D01*
X944147Y381036D01*
X944310Y381551D01*
X944486Y382062D01*
X944674Y382568D01*
X944875Y383069D01*
X945087Y383565D01*
X945312Y384056D01*
X945549Y384541D01*
X945798Y385021D01*
X946058Y385494D01*
X946330Y385960D01*
X946613Y386420D01*
X946908Y386873D01*
X947213Y387318D01*
X947529Y387755D01*
X947856Y388185D01*
X948194Y388607D01*
X948541Y389020D01*
X948899Y389424D01*
X949267Y389820D01*
X949644Y390206D01*
X950030Y390583D01*
X950426Y390951D01*
X950830Y391309D01*
X951243Y391656D01*
X951665Y391994D01*
X952095Y392321D01*
X952532Y392637D01*
X952977Y392942D01*
X953430Y393237D01*
X953890Y393520D01*
X954356Y393792D01*
X954829Y394052D01*
X955309Y394301D01*
X955794Y394538D01*
X956285Y394763D01*
X956781Y394975D01*
X957282Y395176D01*
X957788Y395364D01*
X958299Y395540D01*
X958814Y395703D01*
X959332Y395853D01*
X959854Y395991D01*
X960380Y396115D01*
X960908Y396227D01*
X961439Y396326D01*
X961972Y396412D01*
X962507Y396485D01*
X963044Y396544D01*
X963582Y396590D01*
X964121Y396624D01*
X964660Y396643D01*
X965200Y396650D01*
X965740Y396643D01*
X966279Y396624D01*
X966818Y396590D01*
X967356Y396544D01*
X967893Y396485D01*
X968428Y396412D01*
X968961Y396326D01*
X969492Y396227D01*
X970020Y396115D01*
X970546Y395991D01*
X971068Y395853D01*
X971586Y395703D01*
X972101Y395540D01*
X972612Y395364D01*
X973118Y395176D01*
X973619Y394975D01*
X974115Y394763D01*
X974606Y394538D01*
X975091Y394301D01*
X975571Y394052D01*
X976044Y393792D01*
X976510Y393520D01*
X976970Y393237D01*
X977423Y392942D01*
X977868Y392637D01*
X978305Y392321D01*
X978735Y391994D01*
X979157Y391656D01*
X979570Y391309D01*
X979974Y390951D01*
X980370Y390583D01*
X980756Y390206D01*
X981133Y389820D01*
X981501Y389424D01*
X981859Y389020D01*
X982206Y388607D01*
X982544Y388185D01*
X982871Y387755D01*
X983187Y387318D01*
X983492Y386873D01*
X983787Y386420D01*
X984070Y385960D01*
X984342Y385494D01*
X984602Y385021D01*
X984851Y384541D01*
X985088Y384056D01*
X985313Y383565D01*
X985525Y383069D01*
X985726Y382568D01*
X985914Y382062D01*
X986090Y381551D01*
X986253Y381036D01*
X986403Y380518D01*
X986541Y379996D01*
X986665Y379470D01*
X986777Y378942D01*
X986876Y378411D01*
X986962Y377878D01*
X987035Y377343D01*
X987094Y376806D01*
X987140Y376268D01*
X987174Y375729D01*
X987193Y375190D01*
X987200Y374650D01*
X987193Y374110D01*
X987174Y373571D01*
X987140Y373032D01*
X987094Y372494D01*
X987035Y371957D01*
X986962Y371422D01*
X986876Y370889D01*
X986777Y370358D01*
X986665Y369830D01*
X986541Y369304D01*
X986403Y368782D01*
X986253Y368264D01*
X986090Y367749D01*
X985914Y367238D01*
X985726Y366732D01*
X985525Y366231D01*
X985313Y365735D01*
X985088Y365244D01*
X984851Y364759D01*
X984602Y364279D01*
X984342Y363806D01*
X984070Y363340D01*
X983787Y362880D01*
X983492Y362427D01*
X983187Y361982D01*
X982871Y361545D01*
X982544Y361115D01*
X982206Y360693D01*
X981859Y360280D01*
X981501Y359876D01*
X981133Y359480D01*
X980756Y359094D01*
X980370Y358717D01*
X979974Y358349D01*
X979570Y357991D01*
X979157Y357644D01*
X978735Y357306D01*
X978305Y356979D01*
X977868Y356663D01*
X977423Y356358D01*
X976970Y356063D01*
X976510Y355780D01*
X976044Y355508D01*
X975571Y355248D01*
X975091Y354999D01*
X974606Y354762D01*
X974115Y354537D01*
X973619Y354325D01*
X973118Y354124D01*
X972612Y353936D01*
X972101Y353760D01*
X971586Y353597D01*
X971068Y353447D01*
X970546Y353309D01*
X970020Y353185D01*
X969492Y353073D01*
X968961Y352974D01*
X968428Y352888D01*
X967893Y352815D01*
X967356Y352756D01*
X966818Y352710D01*
X966279Y352676D01*
X965740Y352657D01*
X965200Y352650D01*
X964660Y352657D01*
X964121Y352676D01*
X963582Y352710D01*
X963044Y352756D01*
X962507Y352815D01*
X961972Y352888D01*
X961439Y352974D01*
X960908Y353073D01*
X960380Y353185D01*
X959854Y353309D01*
X959332Y353447D01*
X958814Y353597D01*
X958299Y353760D01*
X957788Y353936D01*
X957282Y354124D01*
X956781Y354325D01*
X956285Y354537D01*
X955794Y354762D01*
X955309Y354999D01*
X954829Y355248D01*
X954356Y355508D01*
X953890Y355780D01*
X953430Y356063D01*
X952977Y356358D01*
X952532Y356663D01*
X952095Y356979D01*
X951665Y357306D01*
X951243Y357644D01*
X950830Y357991D01*
X950426Y358349D01*
X950030Y358717D01*
X949644Y359094D01*
X949267Y359480D01*
X948899Y359876D01*
X948541Y360280D01*
X948194Y360693D01*
X947856Y361115D01*
X947529Y361545D01*
X947213Y361982D01*
X946908Y362427D01*
X946613Y362880D01*
X946330Y363340D01*
X946058Y363806D01*
X945798Y364279D01*
X945549Y364759D01*
X945312Y365244D01*
X945087Y365735D01*
X944875Y366231D01*
X944674Y366732D01*
X944486Y367238D01*
X944310Y367749D01*
X944147Y368264D01*
X943997Y368782D01*
X943859Y369304D01*
X943735Y369830D01*
X943623Y370358D01*
X943524Y370889D01*
X943438Y371422D01*
X943365Y371957D01*
X943306Y372494D01*
X943260Y373032D01*
X943226Y373571D01*
X943207Y374110D01*
X943200Y374650D01*
X943200Y946150D02*
X943207Y946690D01*
X943226Y947229D01*
X943260Y947768D01*
X943306Y948306D01*
X943365Y948843D01*
X943438Y949378D01*
X943524Y949911D01*
X943623Y950442D01*
X943735Y950970D01*
X943859Y951496D01*
X943997Y952018D01*
X944147Y952536D01*
X944310Y953051D01*
X944486Y953562D01*
X944674Y954068D01*
X944875Y954569D01*
X945087Y955065D01*
X945312Y955556D01*
X945549Y956041D01*
X945798Y956521D01*
X946058Y956994D01*
X946330Y957460D01*
X946613Y957920D01*
X946908Y958373D01*
X947213Y958818D01*
X947529Y959255D01*
X947856Y959685D01*
X948194Y960107D01*
X948541Y960520D01*
X948899Y960924D01*
X949267Y961320D01*
X949644Y961706D01*
X950030Y962083D01*
X950426Y962451D01*
X950830Y962809D01*
X951243Y963156D01*
X951665Y963494D01*
X952095Y963821D01*
X952532Y964137D01*
X952977Y964442D01*
X953430Y964737D01*
X953890Y965020D01*
X954356Y965292D01*
X954829Y965552D01*
X955309Y965801D01*
X955794Y966038D01*
X956285Y966263D01*
X956781Y966475D01*
X957282Y966676D01*
X957788Y966864D01*
X958299Y967040D01*
X958814Y967203D01*
X959332Y967353D01*
X959854Y967491D01*
X960380Y967615D01*
X960908Y967727D01*
X961439Y967826D01*
X961972Y967912D01*
X962507Y967985D01*
X963044Y968044D01*
X963582Y968090D01*
X964121Y968124D01*
X964660Y968143D01*
X965200Y968150D01*
X965740Y968143D01*
X966279Y968124D01*
X966818Y968090D01*
X967356Y968044D01*
X967893Y967985D01*
X968428Y967912D01*
X968961Y967826D01*
X969492Y967727D01*
X970020Y967615D01*
X970546Y967491D01*
X971068Y967353D01*
X971586Y967203D01*
X972101Y967040D01*
X972612Y966864D01*
X973118Y966676D01*
X973619Y966475D01*
X974115Y966263D01*
X974606Y966038D01*
X975091Y965801D01*
X975571Y965552D01*
X976044Y965292D01*
X976510Y965020D01*
X976970Y964737D01*
X977423Y964442D01*
X977868Y964137D01*
X978305Y963821D01*
X978735Y963494D01*
X979157Y963156D01*
X979570Y962809D01*
X979974Y962451D01*
X980370Y962083D01*
X980756Y961706D01*
X981133Y961320D01*
X981501Y960924D01*
X981859Y960520D01*
X982206Y960107D01*
X982544Y959685D01*
X982871Y959255D01*
X983187Y958818D01*
X983492Y958373D01*
X983787Y957920D01*
X984070Y957460D01*
X984342Y956994D01*
X984602Y956521D01*
X984851Y956041D01*
X985088Y955556D01*
X985313Y955065D01*
X985525Y954569D01*
X985726Y954068D01*
X985914Y953562D01*
X986090Y953051D01*
X986253Y952536D01*
X986403Y952018D01*
X986541Y951496D01*
X986665Y950970D01*
X986777Y950442D01*
X986876Y949911D01*
X986962Y949378D01*
X987035Y948843D01*
X987094Y948306D01*
X987140Y947768D01*
X987174Y947229D01*
X987193Y946690D01*
X987200Y946150D01*
X987193Y945610D01*
X987174Y945071D01*
X987140Y944532D01*
X987094Y943994D01*
X987035Y943457D01*
X986962Y942922D01*
X986876Y942389D01*
X986777Y941858D01*
X986665Y941330D01*
X986541Y940804D01*
X986403Y940282D01*
X986253Y939764D01*
X986090Y939249D01*
X985914Y938738D01*
X985726Y938232D01*
X985525Y937731D01*
X985313Y937235D01*
X985088Y936744D01*
X984851Y936259D01*
X984602Y935779D01*
X984342Y935306D01*
X984070Y934840D01*
X983787Y934380D01*
X983492Y933927D01*
X983187Y933482D01*
X982871Y933045D01*
X982544Y932615D01*
X982206Y932193D01*
X981859Y931780D01*
X981501Y931376D01*
X981133Y930980D01*
X980756Y930594D01*
X980370Y930217D01*
X979974Y929849D01*
X979570Y929491D01*
X979157Y929144D01*
X978735Y928806D01*
X978305Y928479D01*
X977868Y928163D01*
X977423Y927858D01*
X976970Y927563D01*
X976510Y927280D01*
X976044Y927008D01*
X975571Y926748D01*
X975091Y926499D01*
X974606Y926262D01*
X974115Y926037D01*
X973619Y925825D01*
X973118Y925624D01*
X972612Y925436D01*
X972101Y925260D01*
X971586Y925097D01*
X971068Y924947D01*
X970546Y924809D01*
X970020Y924685D01*
X969492Y924573D01*
X968961Y924474D01*
X968428Y924388D01*
X967893Y924315D01*
X967356Y924256D01*
X966818Y924210D01*
X966279Y924176D01*
X965740Y924157D01*
X965200Y924150D01*
X964660Y924157D01*
X964121Y924176D01*
X963582Y924210D01*
X963044Y924256D01*
X962507Y924315D01*
X961972Y924388D01*
X961439Y924474D01*
X960908Y924573D01*
X960380Y924685D01*
X959854Y924809D01*
X959332Y924947D01*
X958814Y925097D01*
X958299Y925260D01*
X957788Y925436D01*
X957282Y925624D01*
X956781Y925825D01*
X956285Y926037D01*
X955794Y926262D01*
X955309Y926499D01*
X954829Y926748D01*
X954356Y927008D01*
X953890Y927280D01*
X953430Y927563D01*
X952977Y927858D01*
X952532Y928163D01*
X952095Y928479D01*
X951665Y928806D01*
X951243Y929144D01*
X950830Y929491D01*
X950426Y929849D01*
X950030Y930217D01*
X949644Y930594D01*
X949267Y930980D01*
X948899Y931376D01*
X948541Y931780D01*
X948194Y932193D01*
X947856Y932615D01*
X947529Y933045D01*
X947213Y933482D01*
X946908Y933927D01*
X946613Y934380D01*
X946330Y934840D01*
X946058Y935306D01*
X945798Y935779D01*
X945549Y936259D01*
X945312Y936744D01*
X945087Y937235D01*
X944875Y937731D01*
X944674Y938232D01*
X944486Y938738D01*
X944310Y939249D01*
X944147Y939764D01*
X943997Y940282D01*
X943859Y940804D01*
X943735Y941330D01*
X943623Y941858D01*
X943524Y942389D01*
X943438Y942922D01*
X943365Y943457D01*
X943306Y943994D01*
X943260Y944532D01*
X943226Y945071D01*
X943207Y945610D01*
X943200Y946150D01*
X181200Y374650D02*
X181207Y375190D01*
X181226Y375729D01*
X181260Y376268D01*
X181306Y376806D01*
X181365Y377343D01*
X181438Y377878D01*
X181524Y378411D01*
X181623Y378942D01*
X181735Y379470D01*
X181859Y379996D01*
X181997Y380518D01*
X182147Y381036D01*
X182310Y381551D01*
X182486Y382062D01*
X182674Y382568D01*
X182875Y383069D01*
X183087Y383565D01*
X183312Y384056D01*
X183549Y384541D01*
X183798Y385021D01*
X184058Y385494D01*
X184330Y385960D01*
X184613Y386420D01*
X184908Y386873D01*
X185213Y387318D01*
X185529Y387755D01*
X185856Y388185D01*
X186194Y388607D01*
X186541Y389020D01*
X186899Y389424D01*
X187267Y389820D01*
X187644Y390206D01*
X188030Y390583D01*
X188426Y390951D01*
X188830Y391309D01*
X189243Y391656D01*
X189665Y391994D01*
X190095Y392321D01*
X190532Y392637D01*
X190977Y392942D01*
X191430Y393237D01*
X191890Y393520D01*
X192356Y393792D01*
X192829Y394052D01*
X193309Y394301D01*
X193794Y394538D01*
X194285Y394763D01*
X194781Y394975D01*
X195282Y395176D01*
X195788Y395364D01*
X196299Y395540D01*
X196814Y395703D01*
X197332Y395853D01*
X197854Y395991D01*
X198380Y396115D01*
X198908Y396227D01*
X199439Y396326D01*
X199972Y396412D01*
X200507Y396485D01*
X201044Y396544D01*
X201582Y396590D01*
X202121Y396624D01*
X202660Y396643D01*
X203200Y396650D01*
X203740Y396643D01*
X204279Y396624D01*
X204818Y396590D01*
X205356Y396544D01*
X205893Y396485D01*
X206428Y396412D01*
X206961Y396326D01*
X207492Y396227D01*
X208020Y396115D01*
X208546Y395991D01*
X209068Y395853D01*
X209586Y395703D01*
X210101Y395540D01*
X210612Y395364D01*
X211118Y395176D01*
X211619Y394975D01*
X212115Y394763D01*
X212606Y394538D01*
X213091Y394301D01*
X213571Y394052D01*
X214044Y393792D01*
X214510Y393520D01*
X214970Y393237D01*
X215423Y392942D01*
X215868Y392637D01*
X216305Y392321D01*
X216735Y391994D01*
X217157Y391656D01*
X217570Y391309D01*
X217974Y390951D01*
X218370Y390583D01*
X218756Y390206D01*
X219133Y389820D01*
X219501Y389424D01*
X219859Y389020D01*
X220206Y388607D01*
X220544Y388185D01*
X220871Y387755D01*
X221187Y387318D01*
X221492Y386873D01*
X221787Y386420D01*
X222070Y385960D01*
X222342Y385494D01*
X222602Y385021D01*
X222851Y384541D01*
X223088Y384056D01*
X223313Y383565D01*
X223525Y383069D01*
X223726Y382568D01*
X223914Y382062D01*
X224090Y381551D01*
X224253Y381036D01*
X224403Y380518D01*
X224541Y379996D01*
X224665Y379470D01*
X224777Y378942D01*
X224876Y378411D01*
X224962Y377878D01*
X225035Y377343D01*
X225094Y376806D01*
X225140Y376268D01*
X225174Y375729D01*
X225193Y375190D01*
X225200Y374650D01*
X225193Y374110D01*
X225174Y373571D01*
X225140Y373032D01*
X225094Y372494D01*
X225035Y371957D01*
X224962Y371422D01*
X224876Y370889D01*
X224777Y370358D01*
X224665Y369830D01*
X224541Y369304D01*
X224403Y368782D01*
X224253Y368264D01*
X224090Y367749D01*
X223914Y367238D01*
X223726Y366732D01*
X223525Y366231D01*
X223313Y365735D01*
X223088Y365244D01*
X222851Y364759D01*
X222602Y364279D01*
X222342Y363806D01*
X222070Y363340D01*
X221787Y362880D01*
X221492Y362427D01*
X221187Y361982D01*
X220871Y361545D01*
X220544Y361115D01*
X220206Y360693D01*
X219859Y360280D01*
X219501Y359876D01*
X219133Y359480D01*
X218756Y359094D01*
X218370Y358717D01*
X217974Y358349D01*
X217570Y357991D01*
X217157Y357644D01*
X216735Y357306D01*
X216305Y356979D01*
X215868Y356663D01*
X215423Y356358D01*
X214970Y356063D01*
X214510Y355780D01*
X214044Y355508D01*
X213571Y355248D01*
X213091Y354999D01*
X212606Y354762D01*
X212115Y354537D01*
X211619Y354325D01*
X211118Y354124D01*
X210612Y353936D01*
X210101Y353760D01*
X209586Y353597D01*
X209068Y353447D01*
X208546Y353309D01*
X208020Y353185D01*
X207492Y353073D01*
X206961Y352974D01*
X206428Y352888D01*
X205893Y352815D01*
X205356Y352756D01*
X204818Y352710D01*
X204279Y352676D01*
X203740Y352657D01*
X203200Y352650D01*
X202660Y352657D01*
X202121Y352676D01*
X201582Y352710D01*
X201044Y352756D01*
X200507Y352815D01*
X199972Y352888D01*
X199439Y352974D01*
X198908Y353073D01*
X198380Y353185D01*
X197854Y353309D01*
X197332Y353447D01*
X196814Y353597D01*
X196299Y353760D01*
X195788Y353936D01*
X195282Y354124D01*
X194781Y354325D01*
X194285Y354537D01*
X193794Y354762D01*
X193309Y354999D01*
X192829Y355248D01*
X192356Y355508D01*
X191890Y355780D01*
X191430Y356063D01*
X190977Y356358D01*
X190532Y356663D01*
X190095Y356979D01*
X189665Y357306D01*
X189243Y357644D01*
X188830Y357991D01*
X188426Y358349D01*
X188030Y358717D01*
X187644Y359094D01*
X187267Y359480D01*
X186899Y359876D01*
X186541Y360280D01*
X186194Y360693D01*
X185856Y361115D01*
X185529Y361545D01*
X185213Y361982D01*
X184908Y362427D01*
X184613Y362880D01*
X184330Y363340D01*
X184058Y363806D01*
X183798Y364279D01*
X183549Y364759D01*
X183312Y365244D01*
X183087Y365735D01*
X182875Y366231D01*
X182674Y366732D01*
X182486Y367238D01*
X182310Y367749D01*
X182147Y368264D01*
X181997Y368782D01*
X181859Y369304D01*
X181735Y369830D01*
X181623Y370358D01*
X181524Y370889D01*
X181438Y371422D01*
X181365Y371957D01*
X181306Y372494D01*
X181260Y373032D01*
X181226Y373571D01*
X181207Y374110D01*
X181200Y374650D01*
X181200Y946150D02*
X181207Y946690D01*
X181226Y947229D01*
X181260Y947768D01*
X181306Y948306D01*
X181365Y948843D01*
X181438Y949378D01*
X181524Y949911D01*
X181623Y950442D01*
X181735Y950970D01*
X181859Y951496D01*
X181997Y952018D01*
X182147Y952536D01*
X182310Y953051D01*
X182486Y953562D01*
X182674Y954068D01*
X182875Y954569D01*
X183087Y955065D01*
X183312Y955556D01*
X183549Y956041D01*
X183798Y956521D01*
X184058Y956994D01*
X184330Y957460D01*
X184613Y957920D01*
X184908Y958373D01*
X185213Y958818D01*
X185529Y959255D01*
X185856Y959685D01*
X186194Y960107D01*
X186541Y960520D01*
X186899Y960924D01*
X187267Y961320D01*
X187644Y961706D01*
X188030Y962083D01*
X188426Y962451D01*
X188830Y962809D01*
X189243Y963156D01*
X189665Y963494D01*
X190095Y963821D01*
X190532Y964137D01*
X190977Y964442D01*
X191430Y964737D01*
X191890Y965020D01*
X192356Y965292D01*
X192829Y965552D01*
X193309Y965801D01*
X193794Y966038D01*
X194285Y966263D01*
X194781Y966475D01*
X195282Y966676D01*
X195788Y966864D01*
X196299Y967040D01*
X196814Y967203D01*
X197332Y967353D01*
X197854Y967491D01*
X198380Y967615D01*
X198908Y967727D01*
X199439Y967826D01*
X199972Y967912D01*
X200507Y967985D01*
X201044Y968044D01*
X201582Y968090D01*
X202121Y968124D01*
X202660Y968143D01*
X203200Y968150D01*
X203740Y968143D01*
X204279Y968124D01*
X204818Y968090D01*
X205356Y968044D01*
X205893Y967985D01*
X206428Y967912D01*
X206961Y967826D01*
X207492Y967727D01*
X208020Y967615D01*
X208546Y967491D01*
X209068Y967353D01*
X209586Y967203D01*
X210101Y967040D01*
X210612Y966864D01*
X211118Y966676D01*
X211619Y966475D01*
X212115Y966263D01*
X212606Y966038D01*
X213091Y965801D01*
X213571Y965552D01*
X214044Y965292D01*
X214510Y965020D01*
X214970Y964737D01*
X215423Y964442D01*
X215868Y964137D01*
X216305Y963821D01*
X216735Y963494D01*
X217157Y963156D01*
X217570Y962809D01*
X217974Y962451D01*
X218370Y962083D01*
X218756Y961706D01*
X219133Y961320D01*
X219501Y960924D01*
X219859Y960520D01*
X220206Y960107D01*
X220544Y959685D01*
X220871Y959255D01*
X221187Y958818D01*
X221492Y958373D01*
X221787Y957920D01*
X222070Y957460D01*
X222342Y956994D01*
X222602Y956521D01*
X222851Y956041D01*
X223088Y955556D01*
X223313Y955065D01*
X223525Y954569D01*
X223726Y954068D01*
X223914Y953562D01*
X224090Y953051D01*
X224253Y952536D01*
X224403Y952018D01*
X224541Y951496D01*
X224665Y950970D01*
X224777Y950442D01*
X224876Y949911D01*
X224962Y949378D01*
X225035Y948843D01*
X225094Y948306D01*
X225140Y947768D01*
X225174Y947229D01*
X225193Y946690D01*
X225200Y946150D01*
X225193Y945610D01*
X225174Y945071D01*
X225140Y944532D01*
X225094Y943994D01*
X225035Y943457D01*
X224962Y942922D01*
X224876Y942389D01*
X224777Y941858D01*
X224665Y941330D01*
X224541Y940804D01*
X224403Y940282D01*
X224253Y939764D01*
X224090Y939249D01*
X223914Y938738D01*
X223726Y938232D01*
X223525Y937731D01*
X223313Y937235D01*
X223088Y936744D01*
X222851Y936259D01*
X222602Y935779D01*
X222342Y935306D01*
X222070Y934840D01*
X221787Y934380D01*
X221492Y933927D01*
X221187Y933482D01*
X220871Y933045D01*
X220544Y932615D01*
X220206Y932193D01*
X219859Y931780D01*
X219501Y931376D01*
X219133Y930980D01*
X218756Y930594D01*
X218370Y930217D01*
X217974Y929849D01*
X217570Y929491D01*
X217157Y929144D01*
X216735Y928806D01*
X216305Y928479D01*
X215868Y928163D01*
X215423Y927858D01*
X214970Y927563D01*
X214510Y927280D01*
X214044Y927008D01*
X213571Y926748D01*
X213091Y926499D01*
X212606Y926262D01*
X212115Y926037D01*
X211619Y925825D01*
X211118Y925624D01*
X210612Y925436D01*
X210101Y925260D01*
X209586Y925097D01*
X209068Y924947D01*
X208546Y924809D01*
X208020Y924685D01*
X207492Y924573D01*
X206961Y924474D01*
X206428Y924388D01*
X205893Y924315D01*
X205356Y924256D01*
X204818Y924210D01*
X204279Y924176D01*
X203740Y924157D01*
X203200Y924150D01*
X202660Y924157D01*
X202121Y924176D01*
X201582Y924210D01*
X201044Y924256D01*
X200507Y924315D01*
X199972Y924388D01*
X199439Y924474D01*
X198908Y924573D01*
X198380Y924685D01*
X197854Y924809D01*
X197332Y924947D01*
X196814Y925097D01*
X196299Y925260D01*
X195788Y925436D01*
X195282Y925624D01*
X194781Y925825D01*
X194285Y926037D01*
X193794Y926262D01*
X193309Y926499D01*
X192829Y926748D01*
X192356Y927008D01*
X191890Y927280D01*
X191430Y927563D01*
X190977Y927858D01*
X190532Y928163D01*
X190095Y928479D01*
X189665Y928806D01*
X189243Y929144D01*
X188830Y929491D01*
X188426Y929849D01*
X188030Y930217D01*
X187644Y930594D01*
X187267Y930980D01*
X186899Y931376D01*
X186541Y931780D01*
X186194Y932193D01*
X185856Y932615D01*
X185529Y933045D01*
X185213Y933482D01*
X184908Y933927D01*
X184613Y934380D01*
X184330Y934840D01*
X184058Y935306D01*
X183798Y935779D01*
X183549Y936259D01*
X183312Y936744D01*
X183087Y937235D01*
X182875Y937731D01*
X182674Y938232D01*
X182486Y938738D01*
X182310Y939249D01*
X182147Y939764D01*
X181997Y940282D01*
X181859Y940804D01*
X181735Y941330D01*
X181623Y941858D01*
X181524Y942389D01*
X181438Y942922D01*
X181365Y943457D01*
X181306Y943994D01*
X181260Y944532D01*
X181226Y945071D01*
X181207Y945610D01*
X181200Y946150D01*
D15*
X965200Y347980D02*
X965814Y347987D01*
X966427Y348010D01*
X967040Y348047D01*
X967651Y348099D01*
X968262Y348165D01*
X968870Y348247D01*
X969476Y348343D01*
X970080Y348453D01*
X970681Y348578D01*
X971279Y348718D01*
X971873Y348872D01*
X972463Y349041D01*
X973049Y349223D01*
X973630Y349420D01*
X974207Y349631D01*
X974778Y349855D01*
X975344Y350093D01*
X975904Y350345D01*
X976457Y350611D01*
X977004Y350889D01*
X977544Y351181D01*
X978077Y351486D01*
X978602Y351804D01*
X979120Y352134D01*
X979629Y352476D01*
X980130Y352831D01*
X980622Y353198D01*
X981105Y353576D01*
X981579Y353966D01*
X982043Y354368D01*
X982498Y354780D01*
X982942Y355204D01*
X983376Y355638D01*
X983800Y356082D01*
X984212Y356537D01*
X984614Y357001D01*
X985004Y357475D01*
X985382Y357958D01*
X985749Y358450D01*
X986104Y358951D01*
X986446Y359460D01*
X986776Y359978D01*
X987094Y360503D01*
X987399Y361036D01*
X987691Y361576D01*
X987969Y362123D01*
X988235Y362676D01*
X988487Y363236D01*
X988725Y363802D01*
X988949Y364373D01*
X989160Y364950D01*
X989357Y365531D01*
X989539Y366117D01*
X989708Y366707D01*
X989862Y367301D01*
X990002Y367899D01*
X990127Y368500D01*
X990237Y369104D01*
X990333Y369710D01*
X990415Y370318D01*
X990481Y370929D01*
X990533Y371540D01*
X990570Y372153D01*
X990593Y372766D01*
X990600Y373380D01*
X990600Y947420D01*
X990593Y948034D01*
X990570Y948647D01*
X990533Y949260D01*
X990481Y949871D01*
X990415Y950482D01*
X990333Y951090D01*
X990237Y951696D01*
X990127Y952300D01*
X990002Y952901D01*
X989862Y953499D01*
X989708Y954093D01*
X989539Y954683D01*
X989357Y955269D01*
X989160Y955850D01*
X988949Y956427D01*
X988725Y956998D01*
X988487Y957564D01*
X988235Y958124D01*
X987969Y958677D01*
X987691Y959224D01*
X987399Y959764D01*
X987094Y960297D01*
X986776Y960822D01*
X986446Y961340D01*
X986104Y961849D01*
X985749Y962350D01*
X985382Y962842D01*
X985004Y963325D01*
X984614Y963799D01*
X984212Y964263D01*
X983800Y964718D01*
X983376Y965162D01*
X982942Y965596D01*
X982498Y966020D01*
X982043Y966432D01*
X981579Y966834D01*
X981105Y967224D01*
X980622Y967602D01*
X980130Y967969D01*
X979629Y968324D01*
X979120Y968666D01*
X978602Y968996D01*
X978077Y969314D01*
X977544Y969619D01*
X977004Y969911D01*
X976457Y970189D01*
X975904Y970455D01*
X975344Y970707D01*
X974778Y970945D01*
X974207Y971169D01*
X973630Y971380D01*
X973049Y971577D01*
X972463Y971759D01*
X971873Y971928D01*
X971279Y972082D01*
X970681Y972222D01*
X970080Y972347D01*
X969476Y972457D01*
X968870Y972553D01*
X968262Y972635D01*
X967651Y972701D01*
X967040Y972753D01*
X966427Y972790D01*
X965814Y972813D01*
X965200Y972820D01*
X964586Y972813D01*
X963973Y972790D01*
X963360Y972753D01*
X962749Y972701D01*
X962138Y972635D01*
X961530Y972553D01*
X960924Y972457D01*
X960320Y972347D01*
X959719Y972222D01*
X959121Y972082D01*
X958527Y971928D01*
X957937Y971759D01*
X957351Y971577D01*
X956770Y971380D01*
X956193Y971169D01*
X955622Y970945D01*
X955056Y970707D01*
X954496Y970455D01*
X953943Y970189D01*
X953396Y969911D01*
X952856Y969619D01*
X952323Y969314D01*
X951798Y968996D01*
X951280Y968666D01*
X950771Y968324D01*
X950270Y967969D01*
X949778Y967602D01*
X949295Y967224D01*
X948821Y966834D01*
X948357Y966432D01*
X947902Y966020D01*
X947458Y965596D01*
X947024Y965162D01*
X946600Y964718D01*
X946188Y964263D01*
X945786Y963799D01*
X945396Y963325D01*
X945018Y962842D01*
X944651Y962350D01*
X944296Y961849D01*
X943954Y961340D01*
X943624Y960822D01*
X943306Y960297D01*
X943001Y959764D01*
X942709Y959224D01*
X942431Y958677D01*
X942165Y958124D01*
X941913Y957564D01*
X941675Y956998D01*
X941451Y956427D01*
X941240Y955850D01*
X941043Y955269D01*
X940861Y954683D01*
X940692Y954093D01*
X940538Y953499D01*
X940398Y952901D01*
X940273Y952300D01*
X940163Y951696D01*
X940067Y951090D01*
X939985Y950482D01*
X939919Y949871D01*
X939867Y949260D01*
X939830Y948647D01*
X939807Y948034D01*
X939800Y947420D01*
X939800Y914400D01*
X228600Y914400D01*
X228600Y947420D01*
X228593Y948034D01*
X228570Y948647D01*
X228533Y949260D01*
X228481Y949871D01*
X228415Y950482D01*
X228333Y951090D01*
X228237Y951696D01*
X228127Y952300D01*
X228002Y952901D01*
X227862Y953499D01*
X227708Y954093D01*
X227539Y954683D01*
X227357Y955269D01*
X227160Y955850D01*
X226949Y956427D01*
X226725Y956998D01*
X226487Y957564D01*
X226235Y958124D01*
X225969Y958677D01*
X225691Y959224D01*
X225399Y959764D01*
X225094Y960297D01*
X224776Y960822D01*
X224446Y961340D01*
X224104Y961849D01*
X223749Y962350D01*
X223382Y962842D01*
X223004Y963325D01*
X222614Y963799D01*
X222212Y964263D01*
X221800Y964718D01*
X221376Y965162D01*
X220942Y965596D01*
X220498Y966020D01*
X220043Y966432D01*
X219579Y966834D01*
X219105Y967224D01*
X218622Y967602D01*
X218130Y967969D01*
X217629Y968324D01*
X217120Y968666D01*
X216602Y968996D01*
X216077Y969314D01*
X215544Y969619D01*
X215004Y969911D01*
X214457Y970189D01*
X213904Y970455D01*
X213344Y970707D01*
X212778Y970945D01*
X212207Y971169D01*
X211630Y971380D01*
X211049Y971577D01*
X210463Y971759D01*
X209873Y971928D01*
X209279Y972082D01*
X208681Y972222D01*
X208080Y972347D01*
X207476Y972457D01*
X206870Y972553D01*
X206262Y972635D01*
X205651Y972701D01*
X205040Y972753D01*
X204427Y972790D01*
X203814Y972813D01*
X203200Y972820D01*
X202586Y972813D01*
X201973Y972790D01*
X201360Y972753D01*
X200749Y972701D01*
X200138Y972635D01*
X199530Y972553D01*
X198924Y972457D01*
X198320Y972347D01*
X197719Y972222D01*
X197121Y972082D01*
X196527Y971928D01*
X195937Y971759D01*
X195351Y971577D01*
X194770Y971380D01*
X194193Y971169D01*
X193622Y970945D01*
X193056Y970707D01*
X192496Y970455D01*
X191943Y970189D01*
X191396Y969911D01*
X190856Y969619D01*
X190323Y969314D01*
X189798Y968996D01*
X189280Y968666D01*
X188771Y968324D01*
X188270Y967969D01*
X187778Y967602D01*
X187295Y967224D01*
X186821Y966834D01*
X186357Y966432D01*
X185902Y966020D01*
X185458Y965596D01*
X185024Y965162D01*
X184600Y964718D01*
X184188Y964263D01*
X183786Y963799D01*
X183396Y963325D01*
X183018Y962842D01*
X182651Y962350D01*
X182296Y961849D01*
X181954Y961340D01*
X181624Y960822D01*
X181306Y960297D01*
X181001Y959764D01*
X180709Y959224D01*
X180431Y958677D01*
X180165Y958124D01*
X179913Y957564D01*
X179675Y956998D01*
X179451Y956427D01*
X179240Y955850D01*
X179043Y955269D01*
X178861Y954683D01*
X178692Y954093D01*
X178538Y953499D01*
X178398Y952901D01*
X178273Y952300D01*
X178163Y951696D01*
X178067Y951090D01*
X177985Y950482D01*
X177919Y949871D01*
X177867Y949260D01*
X177830Y948647D01*
X177807Y948034D01*
X177800Y947420D01*
X177800Y373380D01*
X177807Y372766D01*
X177830Y372153D01*
X177867Y371540D01*
X177919Y370929D01*
X177985Y370318D01*
X178067Y369710D01*
X178163Y369104D01*
X178273Y368500D01*
X178398Y367899D01*
X178538Y367301D01*
X178692Y366707D01*
X178861Y366117D01*
X179043Y365531D01*
X179240Y364950D01*
X179451Y364373D01*
X179675Y363802D01*
X179913Y363236D01*
X180165Y362676D01*
X180431Y362123D01*
X180709Y361576D01*
X181001Y361036D01*
X181306Y360503D01*
X181624Y359978D01*
X181954Y359460D01*
X182296Y358951D01*
X182651Y358450D01*
X183018Y357958D01*
X183396Y357475D01*
X183786Y357001D01*
X184188Y356537D01*
X184600Y356082D01*
X185024Y355638D01*
X185458Y355204D01*
X185902Y354780D01*
X186357Y354368D01*
X186821Y353966D01*
X187295Y353576D01*
X187778Y353198D01*
X188270Y352831D01*
X188771Y352476D01*
X189280Y352134D01*
X189798Y351804D01*
X190323Y351486D01*
X190856Y351181D01*
X191396Y350889D01*
X191943Y350611D01*
X192496Y350345D01*
X193056Y350093D01*
X193622Y349855D01*
X194193Y349631D01*
X194770Y349420D01*
X195351Y349223D01*
X195937Y349041D01*
X196527Y348872D01*
X197121Y348718D01*
X197719Y348578D01*
X198320Y348453D01*
X198924Y348343D01*
X199530Y348247D01*
X200138Y348165D01*
X200749Y348099D01*
X201360Y348047D01*
X201973Y348010D01*
X202586Y347987D01*
X203200Y347980D01*
X203814Y347987D01*
X204427Y348010D01*
X205040Y348047D01*
X205651Y348099D01*
X206262Y348165D01*
X206870Y348247D01*
X207476Y348343D01*
X208080Y348453D01*
X208681Y348578D01*
X209279Y348718D01*
X209873Y348872D01*
X210463Y349041D01*
X211049Y349223D01*
X211630Y349420D01*
X212207Y349631D01*
X212778Y349855D01*
X213344Y350093D01*
X213904Y350345D01*
X214457Y350611D01*
X215004Y350889D01*
X215544Y351181D01*
X216077Y351486D01*
X216602Y351804D01*
X217120Y352134D01*
X217629Y352476D01*
X218130Y352831D01*
X218622Y353198D01*
X219105Y353576D01*
X219579Y353966D01*
X220043Y354368D01*
X220498Y354780D01*
X220942Y355204D01*
X221376Y355638D01*
X221800Y356082D01*
X222212Y356537D01*
X222614Y357001D01*
X223004Y357475D01*
X223382Y357958D01*
X223749Y358450D01*
X224104Y358951D01*
X224446Y359460D01*
X224776Y359978D01*
X225094Y360503D01*
X225399Y361036D01*
X225691Y361576D01*
X225969Y362123D01*
X226235Y362676D01*
X226487Y363236D01*
X226725Y363802D01*
X226949Y364373D01*
X227160Y364950D01*
X227357Y365531D01*
X227539Y366117D01*
X227708Y366707D01*
X227862Y367301D01*
X228002Y367899D01*
X228127Y368500D01*
X228237Y369104D01*
X228333Y369710D01*
X228415Y370318D01*
X228481Y370929D01*
X228533Y371540D01*
X228570Y372153D01*
X228593Y372766D01*
X228600Y373380D01*
X228600Y406400D01*
X939800Y406400D01*
X939800Y373380D01*
X939807Y372766D01*
X939830Y372153D01*
X939867Y371540D01*
X939919Y370929D01*
X939985Y370318D01*
X940067Y369710D01*
X940163Y369104D01*
X940273Y368500D01*
X940398Y367899D01*
X940538Y367301D01*
X940692Y366707D01*
X940861Y366117D01*
X941043Y365531D01*
X941240Y364950D01*
X941451Y364373D01*
X941675Y363802D01*
X941913Y363236D01*
X942165Y362676D01*
X942431Y362123D01*
X942709Y361576D01*
X943001Y361036D01*
X943306Y360503D01*
X943624Y359978D01*
X943954Y359460D01*
X944296Y358951D01*
X944651Y358450D01*
X945018Y357958D01*
X945396Y357475D01*
X945786Y357001D01*
X946188Y356537D01*
X946600Y356082D01*
X947024Y355638D01*
X947458Y355204D01*
X947902Y354780D01*
X948357Y354368D01*
X948821Y353966D01*
X949295Y353576D01*
X949778Y353198D01*
X950270Y352831D01*
X950771Y352476D01*
X951280Y352134D01*
X951798Y351804D01*
X952323Y351486D01*
X952856Y351181D01*
X953396Y350889D01*
X953943Y350611D01*
X954496Y350345D01*
X955056Y350093D01*
X955622Y349855D01*
X956193Y349631D01*
X956770Y349420D01*
X957351Y349223D01*
X957937Y349041D01*
X958527Y348872D01*
X959121Y348718D01*
X959719Y348578D01*
X960320Y348453D01*
X960924Y348343D01*
X961530Y348247D01*
X962138Y348165D01*
X962749Y348099D01*
X963360Y348047D01*
X963973Y348010D01*
X964586Y347987D01*
X965200Y347980D01*
D10*
X253238Y347387D02*
X253236Y347484D01*
X253230Y347582D01*
X253221Y347679D01*
X253207Y347776D01*
X253190Y347872D01*
X253169Y347967D01*
X253145Y348061D01*
X253116Y348155D01*
X253084Y348247D01*
X253049Y348338D01*
X253010Y348427D01*
X252967Y348515D01*
X252921Y348601D01*
X252872Y348685D01*
X252819Y348767D01*
X252764Y348847D01*
X252705Y348925D01*
X252643Y349000D01*
X252578Y349073D01*
X252510Y349143D01*
X252440Y349211D01*
X252367Y349276D01*
X252292Y349338D01*
X252214Y349397D01*
X252134Y349452D01*
X252052Y349505D01*
X251968Y349554D01*
X251882Y349600D01*
X251794Y349643D01*
X251705Y349682D01*
X251614Y349717D01*
X251522Y349749D01*
X251428Y349778D01*
X251334Y349802D01*
X251239Y349823D01*
X251143Y349840D01*
X251046Y349854D01*
X250949Y349863D01*
X250852Y349869D01*
X250754Y349871D01*
X253238Y347387D02*
X253236Y347244D01*
X253230Y347101D01*
X253221Y346959D01*
X253207Y346817D01*
X253189Y346675D01*
X253168Y346534D01*
X253143Y346393D01*
X253114Y346253D01*
X253081Y346114D01*
X253045Y345976D01*
X253004Y345839D01*
X252960Y345703D01*
X252913Y345568D01*
X252861Y345435D01*
X252806Y345303D01*
X252748Y345173D01*
X252686Y345044D01*
X252620Y344917D01*
X252551Y344792D01*
X252479Y344669D01*
X252403Y344548D01*
X252325Y344429D01*
X252242Y344312D01*
X252157Y344197D01*
X252069Y344085D01*
X251977Y343975D01*
X251883Y343868D01*
X251786Y343763D01*
X251686Y343661D01*
X244546Y343972D02*
X244448Y343974D01*
X244351Y343980D01*
X244254Y343989D01*
X244157Y344003D01*
X244061Y344020D01*
X243966Y344041D01*
X243872Y344065D01*
X243778Y344094D01*
X243686Y344126D01*
X243595Y344161D01*
X243506Y344200D01*
X243418Y344243D01*
X243332Y344289D01*
X243248Y344338D01*
X243166Y344391D01*
X243086Y344446D01*
X243008Y344505D01*
X242933Y344567D01*
X242860Y344632D01*
X242790Y344700D01*
X242722Y344770D01*
X242657Y344843D01*
X242595Y344918D01*
X242536Y344996D01*
X242481Y345076D01*
X242428Y345158D01*
X242379Y345242D01*
X242333Y345328D01*
X242290Y345416D01*
X242251Y345505D01*
X242216Y345596D01*
X242184Y345688D01*
X242155Y345782D01*
X242131Y345876D01*
X242110Y345971D01*
X242093Y346067D01*
X242079Y346164D01*
X242070Y346261D01*
X242064Y346358D01*
X242062Y346456D01*
X242064Y346586D01*
X242069Y346716D01*
X242078Y346846D01*
X242091Y346976D01*
X242107Y347105D01*
X242127Y347234D01*
X242151Y347362D01*
X242178Y347490D01*
X242209Y347616D01*
X242243Y347742D01*
X242281Y347867D01*
X242322Y347990D01*
X242367Y348113D01*
X242415Y348234D01*
X242466Y348354D01*
X242521Y348472D01*
X242579Y348588D01*
X242640Y348703D01*
X242705Y348817D01*
X242772Y348928D01*
X242843Y349037D01*
X242917Y349145D01*
X242993Y349250D01*
X246719Y345215D02*
X246668Y345132D01*
X246614Y345051D01*
X246557Y344973D01*
X246497Y344897D01*
X246434Y344823D01*
X246368Y344752D01*
X246300Y344683D01*
X246229Y344617D01*
X246156Y344553D01*
X246080Y344493D01*
X246002Y344436D01*
X245921Y344381D01*
X245839Y344330D01*
X245755Y344282D01*
X245669Y344237D01*
X245581Y344195D01*
X245492Y344157D01*
X245402Y344123D01*
X245310Y344091D01*
X245217Y344064D01*
X245123Y344040D01*
X245028Y344019D01*
X244932Y344003D01*
X244836Y343990D01*
X244740Y343980D01*
X244643Y343975D01*
X244546Y343973D01*
X248581Y348628D02*
X248632Y348711D01*
X248686Y348792D01*
X248743Y348870D01*
X248803Y348946D01*
X248866Y349020D01*
X248932Y349091D01*
X249000Y349160D01*
X249071Y349226D01*
X249144Y349290D01*
X249220Y349350D01*
X249298Y349407D01*
X249379Y349462D01*
X249461Y349513D01*
X249545Y349561D01*
X249631Y349606D01*
X249719Y349648D01*
X249808Y349686D01*
X249898Y349720D01*
X249990Y349752D01*
X250083Y349779D01*
X250177Y349803D01*
X250272Y349824D01*
X250368Y349840D01*
X250464Y349853D01*
X250560Y349863D01*
X250657Y349868D01*
X250754Y349870D01*
X248581Y348629D02*
X246719Y345214D01*
X242062Y355304D02*
X253238Y355304D01*
X242062Y355304D02*
X242062Y358408D01*
X242064Y358519D01*
X242070Y358629D01*
X242080Y358740D01*
X242094Y358850D01*
X242111Y358959D01*
X242133Y359068D01*
X242158Y359176D01*
X242188Y359282D01*
X242221Y359388D01*
X242258Y359493D01*
X242298Y359596D01*
X242343Y359697D01*
X242390Y359797D01*
X242442Y359896D01*
X242497Y359992D01*
X242555Y360086D01*
X242616Y360178D01*
X242681Y360268D01*
X242749Y360356D01*
X242820Y360441D01*
X242894Y360523D01*
X242971Y360603D01*
X243051Y360680D01*
X243133Y360754D01*
X243218Y360825D01*
X243306Y360893D01*
X243396Y360958D01*
X243488Y361019D01*
X243582Y361077D01*
X243678Y361132D01*
X243777Y361184D01*
X243877Y361231D01*
X243978Y361276D01*
X244081Y361316D01*
X244186Y361353D01*
X244292Y361386D01*
X244398Y361416D01*
X244506Y361441D01*
X244615Y361463D01*
X244724Y361480D01*
X244834Y361494D01*
X244945Y361504D01*
X245055Y361510D01*
X245166Y361512D01*
X245277Y361510D01*
X245387Y361504D01*
X245498Y361494D01*
X245608Y361480D01*
X245717Y361463D01*
X245826Y361441D01*
X245934Y361416D01*
X246040Y361386D01*
X246146Y361353D01*
X246251Y361316D01*
X246354Y361276D01*
X246455Y361231D01*
X246555Y361184D01*
X246654Y361132D01*
X246750Y361077D01*
X246844Y361019D01*
X246936Y360958D01*
X247026Y360893D01*
X247114Y360825D01*
X247199Y360754D01*
X247281Y360680D01*
X247361Y360603D01*
X247438Y360523D01*
X247512Y360441D01*
X247583Y360356D01*
X247651Y360268D01*
X247716Y360178D01*
X247777Y360086D01*
X247835Y359992D01*
X247890Y359896D01*
X247942Y359797D01*
X247989Y359697D01*
X248034Y359596D01*
X248074Y359493D01*
X248111Y359388D01*
X248144Y359282D01*
X248174Y359176D01*
X248199Y359068D01*
X248221Y358959D01*
X248238Y358850D01*
X248252Y358740D01*
X248262Y358629D01*
X248268Y358519D01*
X248270Y358408D01*
X248271Y358408D02*
X248271Y355304D01*
X253238Y366959D02*
X242062Y366959D01*
X253238Y365718D02*
X253238Y368201D01*
X242062Y368201D02*
X242062Y365718D01*
X242062Y373380D02*
X253238Y373380D01*
X242062Y373380D02*
X242062Y376484D01*
X242064Y376592D01*
X242070Y376701D01*
X242079Y376808D01*
X242092Y376916D01*
X242109Y377023D01*
X242130Y377129D01*
X242154Y377235D01*
X242182Y377340D01*
X242214Y377443D01*
X242249Y377546D01*
X242288Y377647D01*
X242330Y377747D01*
X242376Y377845D01*
X242425Y377941D01*
X242478Y378036D01*
X242534Y378129D01*
X242593Y378220D01*
X242655Y378308D01*
X242720Y378395D01*
X242788Y378479D01*
X242859Y378561D01*
X242933Y378640D01*
X243010Y378717D01*
X243089Y378791D01*
X243171Y378862D01*
X243255Y378930D01*
X243342Y378995D01*
X243430Y379057D01*
X243521Y379116D01*
X243614Y379172D01*
X243709Y379225D01*
X243805Y379274D01*
X243904Y379320D01*
X244003Y379362D01*
X244104Y379401D01*
X244207Y379436D01*
X244310Y379468D01*
X244415Y379496D01*
X244521Y379520D01*
X244627Y379541D01*
X244734Y379558D01*
X244842Y379571D01*
X244950Y379580D01*
X245058Y379586D01*
X245166Y379588D01*
X245166Y379589D02*
X250134Y379589D01*
X250134Y379588D02*
X250245Y379586D01*
X250355Y379580D01*
X250466Y379570D01*
X250576Y379556D01*
X250685Y379539D01*
X250794Y379517D01*
X250902Y379492D01*
X251008Y379462D01*
X251114Y379429D01*
X251219Y379392D01*
X251322Y379352D01*
X251423Y379307D01*
X251523Y379260D01*
X251622Y379208D01*
X251718Y379153D01*
X251812Y379095D01*
X251904Y379034D01*
X251994Y378969D01*
X252082Y378901D01*
X252167Y378830D01*
X252249Y378756D01*
X252329Y378679D01*
X252406Y378599D01*
X252480Y378517D01*
X252551Y378432D01*
X252619Y378344D01*
X252684Y378254D01*
X252745Y378162D01*
X252803Y378068D01*
X252858Y377972D01*
X252910Y377873D01*
X252957Y377773D01*
X253002Y377672D01*
X253042Y377569D01*
X253079Y377464D01*
X253112Y377358D01*
X253142Y377252D01*
X253167Y377144D01*
X253189Y377035D01*
X253206Y376926D01*
X253220Y376816D01*
X253230Y376705D01*
X253236Y376595D01*
X253238Y376484D01*
X253238Y373380D01*
X253238Y386009D02*
X242062Y386009D01*
X253238Y384768D02*
X253238Y387251D01*
X242062Y387251D02*
X242062Y384768D01*
X253238Y395393D02*
X253236Y395490D01*
X253230Y395588D01*
X253221Y395685D01*
X253207Y395782D01*
X253190Y395878D01*
X253169Y395973D01*
X253145Y396067D01*
X253116Y396161D01*
X253084Y396253D01*
X253049Y396344D01*
X253010Y396433D01*
X252967Y396521D01*
X252921Y396607D01*
X252872Y396691D01*
X252819Y396773D01*
X252764Y396853D01*
X252705Y396931D01*
X252643Y397006D01*
X252578Y397079D01*
X252510Y397149D01*
X252440Y397217D01*
X252367Y397282D01*
X252292Y397344D01*
X252214Y397403D01*
X252134Y397458D01*
X252052Y397511D01*
X251968Y397560D01*
X251882Y397606D01*
X251794Y397649D01*
X251705Y397688D01*
X251614Y397723D01*
X251522Y397755D01*
X251428Y397784D01*
X251334Y397808D01*
X251239Y397829D01*
X251143Y397846D01*
X251046Y397860D01*
X250949Y397869D01*
X250852Y397875D01*
X250754Y397877D01*
X253238Y395393D02*
X253236Y395250D01*
X253230Y395107D01*
X253221Y394965D01*
X253207Y394823D01*
X253189Y394681D01*
X253168Y394540D01*
X253143Y394399D01*
X253114Y394259D01*
X253081Y394120D01*
X253045Y393982D01*
X253004Y393845D01*
X252960Y393709D01*
X252913Y393574D01*
X252861Y393441D01*
X252806Y393309D01*
X252748Y393179D01*
X252686Y393050D01*
X252620Y392923D01*
X252551Y392798D01*
X252479Y392675D01*
X252403Y392554D01*
X252325Y392435D01*
X252242Y392318D01*
X252157Y392203D01*
X252069Y392091D01*
X251977Y391981D01*
X251883Y391874D01*
X251786Y391769D01*
X251686Y391667D01*
X244546Y391978D02*
X244448Y391980D01*
X244351Y391986D01*
X244254Y391995D01*
X244157Y392009D01*
X244061Y392026D01*
X243966Y392047D01*
X243872Y392071D01*
X243778Y392100D01*
X243686Y392132D01*
X243595Y392167D01*
X243506Y392206D01*
X243418Y392249D01*
X243332Y392295D01*
X243248Y392344D01*
X243166Y392397D01*
X243086Y392452D01*
X243008Y392511D01*
X242933Y392573D01*
X242860Y392638D01*
X242790Y392706D01*
X242722Y392776D01*
X242657Y392849D01*
X242595Y392924D01*
X242536Y393002D01*
X242481Y393082D01*
X242428Y393164D01*
X242379Y393248D01*
X242333Y393334D01*
X242290Y393422D01*
X242251Y393511D01*
X242216Y393602D01*
X242184Y393694D01*
X242155Y393788D01*
X242131Y393882D01*
X242110Y393977D01*
X242093Y394073D01*
X242079Y394170D01*
X242070Y394267D01*
X242064Y394364D01*
X242062Y394462D01*
X242064Y394592D01*
X242069Y394722D01*
X242078Y394852D01*
X242091Y394982D01*
X242107Y395111D01*
X242127Y395240D01*
X242151Y395368D01*
X242178Y395496D01*
X242209Y395622D01*
X242243Y395748D01*
X242281Y395873D01*
X242322Y395996D01*
X242367Y396119D01*
X242415Y396240D01*
X242466Y396360D01*
X242521Y396478D01*
X242579Y396594D01*
X242640Y396709D01*
X242705Y396823D01*
X242772Y396934D01*
X242843Y397043D01*
X242917Y397151D01*
X242993Y397256D01*
X246719Y393221D02*
X246668Y393138D01*
X246614Y393057D01*
X246557Y392979D01*
X246497Y392903D01*
X246434Y392829D01*
X246368Y392758D01*
X246300Y392689D01*
X246229Y392623D01*
X246156Y392559D01*
X246080Y392499D01*
X246002Y392442D01*
X245921Y392387D01*
X245839Y392336D01*
X245755Y392288D01*
X245669Y392243D01*
X245581Y392201D01*
X245492Y392163D01*
X245402Y392129D01*
X245310Y392097D01*
X245217Y392070D01*
X245123Y392046D01*
X245028Y392025D01*
X244932Y392009D01*
X244836Y391996D01*
X244740Y391986D01*
X244643Y391981D01*
X244546Y391979D01*
X248581Y396634D02*
X248632Y396717D01*
X248686Y396798D01*
X248743Y396876D01*
X248803Y396952D01*
X248866Y397026D01*
X248932Y397097D01*
X249000Y397166D01*
X249071Y397232D01*
X249144Y397296D01*
X249220Y397356D01*
X249298Y397413D01*
X249379Y397468D01*
X249461Y397519D01*
X249545Y397567D01*
X249631Y397612D01*
X249719Y397654D01*
X249808Y397692D01*
X249898Y397726D01*
X249990Y397758D01*
X250083Y397785D01*
X250177Y397809D01*
X250272Y397830D01*
X250368Y397846D01*
X250464Y397859D01*
X250560Y397869D01*
X250657Y397874D01*
X250754Y397876D01*
X248581Y396635D02*
X246719Y393220D01*
X242062Y403310D02*
X253238Y403310D01*
X242062Y403310D02*
X242062Y406414D01*
X242064Y406525D01*
X242070Y406635D01*
X242080Y406746D01*
X242094Y406856D01*
X242111Y406965D01*
X242133Y407074D01*
X242158Y407182D01*
X242188Y407288D01*
X242221Y407394D01*
X242258Y407499D01*
X242298Y407602D01*
X242343Y407703D01*
X242390Y407803D01*
X242442Y407902D01*
X242497Y407998D01*
X242555Y408092D01*
X242616Y408184D01*
X242681Y408274D01*
X242749Y408362D01*
X242820Y408447D01*
X242894Y408529D01*
X242971Y408609D01*
X243051Y408686D01*
X243133Y408760D01*
X243218Y408831D01*
X243306Y408899D01*
X243396Y408964D01*
X243488Y409025D01*
X243582Y409083D01*
X243678Y409138D01*
X243777Y409190D01*
X243877Y409237D01*
X243978Y409282D01*
X244081Y409322D01*
X244186Y409359D01*
X244292Y409392D01*
X244398Y409422D01*
X244506Y409447D01*
X244615Y409469D01*
X244724Y409486D01*
X244834Y409500D01*
X244945Y409510D01*
X245055Y409516D01*
X245166Y409518D01*
X245277Y409516D01*
X245387Y409510D01*
X245498Y409500D01*
X245608Y409486D01*
X245717Y409469D01*
X245826Y409447D01*
X245934Y409422D01*
X246040Y409392D01*
X246146Y409359D01*
X246251Y409322D01*
X246354Y409282D01*
X246455Y409237D01*
X246555Y409190D01*
X246654Y409138D01*
X246750Y409083D01*
X246844Y409025D01*
X246936Y408964D01*
X247026Y408899D01*
X247114Y408831D01*
X247199Y408760D01*
X247281Y408686D01*
X247361Y408609D01*
X247438Y408529D01*
X247512Y408447D01*
X247583Y408362D01*
X247651Y408274D01*
X247716Y408184D01*
X247777Y408092D01*
X247835Y407998D01*
X247890Y407902D01*
X247942Y407803D01*
X247989Y407703D01*
X248034Y407602D01*
X248074Y407499D01*
X248111Y407394D01*
X248144Y407288D01*
X248174Y407182D01*
X248199Y407074D01*
X248221Y406965D01*
X248238Y406856D01*
X248252Y406746D01*
X248262Y406635D01*
X248268Y406525D01*
X248270Y406414D01*
X248271Y406414D02*
X248271Y403310D01*
X253238Y414556D02*
X242062Y414556D01*
X253238Y414556D02*
X253238Y419523D01*
X253238Y423432D02*
X242062Y427157D01*
X253238Y430883D01*
X250444Y429951D02*
X250444Y424363D01*
X242062Y434862D02*
X247340Y438587D01*
X242062Y442313D01*
X247340Y438587D02*
X253238Y438587D01*
D15*
X1180300Y194000D02*
X1180542Y194003D01*
X1180783Y194012D01*
X1181024Y194026D01*
X1181265Y194047D01*
X1181505Y194073D01*
X1181745Y194105D01*
X1181984Y194143D01*
X1182221Y194186D01*
X1182458Y194236D01*
X1182693Y194291D01*
X1182927Y194351D01*
X1183159Y194418D01*
X1183390Y194489D01*
X1183619Y194567D01*
X1183846Y194650D01*
X1184071Y194738D01*
X1184294Y194832D01*
X1184514Y194931D01*
X1184732Y195036D01*
X1184947Y195145D01*
X1185160Y195260D01*
X1185370Y195380D01*
X1185576Y195505D01*
X1185780Y195635D01*
X1185981Y195770D01*
X1186178Y195910D01*
X1186372Y196054D01*
X1186562Y196203D01*
X1186748Y196357D01*
X1186931Y196515D01*
X1187110Y196677D01*
X1187285Y196844D01*
X1187456Y197015D01*
X1187623Y197190D01*
X1187785Y197369D01*
X1187943Y197552D01*
X1188097Y197738D01*
X1188246Y197928D01*
X1188390Y198122D01*
X1188530Y198319D01*
X1188665Y198520D01*
X1188795Y198724D01*
X1188920Y198930D01*
X1189040Y199140D01*
X1189155Y199353D01*
X1189264Y199568D01*
X1189369Y199786D01*
X1189468Y200006D01*
X1189562Y200229D01*
X1189650Y200454D01*
X1189733Y200681D01*
X1189811Y200910D01*
X1189882Y201141D01*
X1189949Y201373D01*
X1190009Y201607D01*
X1190064Y201842D01*
X1190114Y202079D01*
X1190157Y202316D01*
X1190195Y202555D01*
X1190227Y202795D01*
X1190253Y203035D01*
X1190274Y203276D01*
X1190288Y203517D01*
X1190297Y203758D01*
X1190300Y204000D01*
X1180300Y194000D02*
X1080300Y194000D01*
X1080058Y194003D01*
X1079817Y194012D01*
X1079576Y194026D01*
X1079335Y194047D01*
X1079095Y194073D01*
X1078855Y194105D01*
X1078616Y194143D01*
X1078379Y194186D01*
X1078142Y194236D01*
X1077907Y194291D01*
X1077673Y194351D01*
X1077441Y194418D01*
X1077210Y194489D01*
X1076981Y194567D01*
X1076754Y194650D01*
X1076529Y194738D01*
X1076306Y194832D01*
X1076086Y194931D01*
X1075868Y195036D01*
X1075653Y195145D01*
X1075440Y195260D01*
X1075230Y195380D01*
X1075024Y195505D01*
X1074820Y195635D01*
X1074619Y195770D01*
X1074422Y195910D01*
X1074228Y196054D01*
X1074038Y196203D01*
X1073852Y196357D01*
X1073669Y196515D01*
X1073490Y196677D01*
X1073315Y196844D01*
X1073144Y197015D01*
X1072977Y197190D01*
X1072815Y197369D01*
X1072657Y197552D01*
X1072503Y197738D01*
X1072354Y197928D01*
X1072210Y198122D01*
X1072070Y198319D01*
X1071935Y198520D01*
X1071805Y198724D01*
X1071680Y198930D01*
X1071560Y199140D01*
X1071445Y199353D01*
X1071336Y199568D01*
X1071231Y199786D01*
X1071132Y200006D01*
X1071038Y200229D01*
X1070950Y200454D01*
X1070867Y200681D01*
X1070789Y200910D01*
X1070718Y201141D01*
X1070651Y201373D01*
X1070591Y201607D01*
X1070536Y201842D01*
X1070486Y202079D01*
X1070443Y202316D01*
X1070405Y202555D01*
X1070373Y202795D01*
X1070347Y203035D01*
X1070326Y203276D01*
X1070312Y203517D01*
X1070303Y203758D01*
X1070300Y204000D01*
X1070300Y304000D02*
X1070303Y304242D01*
X1070312Y304483D01*
X1070326Y304724D01*
X1070347Y304965D01*
X1070373Y305205D01*
X1070405Y305445D01*
X1070443Y305684D01*
X1070486Y305921D01*
X1070536Y306158D01*
X1070591Y306393D01*
X1070651Y306627D01*
X1070718Y306859D01*
X1070789Y307090D01*
X1070867Y307319D01*
X1070950Y307546D01*
X1071038Y307771D01*
X1071132Y307994D01*
X1071231Y308214D01*
X1071336Y308432D01*
X1071445Y308647D01*
X1071560Y308860D01*
X1071680Y309070D01*
X1071805Y309276D01*
X1071935Y309480D01*
X1072070Y309681D01*
X1072210Y309878D01*
X1072354Y310072D01*
X1072503Y310262D01*
X1072657Y310448D01*
X1072815Y310631D01*
X1072977Y310810D01*
X1073144Y310985D01*
X1073315Y311156D01*
X1073490Y311323D01*
X1073669Y311485D01*
X1073852Y311643D01*
X1074038Y311797D01*
X1074228Y311946D01*
X1074422Y312090D01*
X1074619Y312230D01*
X1074820Y312365D01*
X1075024Y312495D01*
X1075230Y312620D01*
X1075440Y312740D01*
X1075653Y312855D01*
X1075868Y312964D01*
X1076086Y313069D01*
X1076306Y313168D01*
X1076529Y313262D01*
X1076754Y313350D01*
X1076981Y313433D01*
X1077210Y313511D01*
X1077441Y313582D01*
X1077673Y313649D01*
X1077907Y313709D01*
X1078142Y313764D01*
X1078379Y313814D01*
X1078616Y313857D01*
X1078855Y313895D01*
X1079095Y313927D01*
X1079335Y313953D01*
X1079576Y313974D01*
X1079817Y313988D01*
X1080058Y313997D01*
X1080300Y314000D01*
X1180300Y314000D01*
X1180542Y313997D01*
X1180783Y313988D01*
X1181024Y313974D01*
X1181265Y313953D01*
X1181505Y313927D01*
X1181745Y313895D01*
X1181984Y313857D01*
X1182221Y313814D01*
X1182458Y313764D01*
X1182693Y313709D01*
X1182927Y313649D01*
X1183159Y313582D01*
X1183390Y313511D01*
X1183619Y313433D01*
X1183846Y313350D01*
X1184071Y313262D01*
X1184294Y313168D01*
X1184514Y313069D01*
X1184732Y312964D01*
X1184947Y312855D01*
X1185160Y312740D01*
X1185370Y312620D01*
X1185576Y312495D01*
X1185780Y312365D01*
X1185981Y312230D01*
X1186178Y312090D01*
X1186372Y311946D01*
X1186562Y311797D01*
X1186748Y311643D01*
X1186931Y311485D01*
X1187110Y311323D01*
X1187285Y311156D01*
X1187456Y310985D01*
X1187623Y310810D01*
X1187785Y310631D01*
X1187943Y310448D01*
X1188097Y310262D01*
X1188246Y310072D01*
X1188390Y309878D01*
X1188530Y309681D01*
X1188665Y309480D01*
X1188795Y309276D01*
X1188920Y309070D01*
X1189040Y308860D01*
X1189155Y308647D01*
X1189264Y308432D01*
X1189369Y308214D01*
X1189468Y307994D01*
X1189562Y307771D01*
X1189650Y307546D01*
X1189733Y307319D01*
X1189811Y307090D01*
X1189882Y306859D01*
X1189949Y306627D01*
X1190009Y306393D01*
X1190064Y306158D01*
X1190114Y305921D01*
X1190157Y305684D01*
X1190195Y305445D01*
X1190227Y305205D01*
X1190253Y304965D01*
X1190274Y304724D01*
X1190288Y304483D01*
X1190297Y304242D01*
X1190300Y304000D01*
X1094945Y254000D02*
X1094956Y254868D01*
X1094988Y255735D01*
X1095041Y256601D01*
X1095115Y257465D01*
X1095211Y258328D01*
X1095328Y259188D01*
X1095466Y260044D01*
X1095624Y260897D01*
X1095804Y261746D01*
X1096005Y262591D01*
X1096226Y263430D01*
X1096467Y264263D01*
X1096729Y265090D01*
X1097012Y265911D01*
X1097314Y266724D01*
X1097636Y267530D01*
X1097978Y268327D01*
X1098339Y269116D01*
X1098720Y269896D01*
X1099120Y270666D01*
X1099538Y271426D01*
X1099975Y272176D01*
X1100430Y272915D01*
X1100903Y273642D01*
X1101394Y274358D01*
X1101903Y275061D01*
X1102428Y275752D01*
X1102970Y276429D01*
X1103529Y277093D01*
X1104104Y277743D01*
X1104694Y278379D01*
X1105300Y279000D01*
X1105921Y279606D01*
X1106557Y280196D01*
X1107207Y280771D01*
X1107871Y281330D01*
X1108548Y281872D01*
X1109239Y282397D01*
X1109942Y282906D01*
X1110658Y283397D01*
X1111385Y283870D01*
X1112124Y284325D01*
X1112874Y284762D01*
X1113634Y285180D01*
X1114404Y285580D01*
X1115184Y285961D01*
X1115973Y286322D01*
X1116770Y286664D01*
X1117576Y286986D01*
X1118389Y287288D01*
X1119210Y287571D01*
X1120037Y287833D01*
X1120870Y288074D01*
X1121709Y288295D01*
X1122554Y288496D01*
X1123403Y288676D01*
X1124256Y288834D01*
X1125112Y288972D01*
X1125972Y289089D01*
X1126835Y289185D01*
X1127699Y289259D01*
X1128565Y289312D01*
X1129432Y289344D01*
X1130300Y289355D01*
X1131168Y289344D01*
X1132035Y289312D01*
X1132901Y289259D01*
X1133765Y289185D01*
X1134628Y289089D01*
X1135488Y288972D01*
X1136344Y288834D01*
X1137197Y288676D01*
X1138046Y288496D01*
X1138891Y288295D01*
X1139730Y288074D01*
X1140563Y287833D01*
X1141390Y287571D01*
X1142211Y287288D01*
X1143024Y286986D01*
X1143830Y286664D01*
X1144627Y286322D01*
X1145416Y285961D01*
X1146196Y285580D01*
X1146966Y285180D01*
X1147726Y284762D01*
X1148476Y284325D01*
X1149215Y283870D01*
X1149942Y283397D01*
X1150658Y282906D01*
X1151361Y282397D01*
X1152052Y281872D01*
X1152729Y281330D01*
X1153393Y280771D01*
X1154043Y280196D01*
X1154679Y279606D01*
X1155300Y279000D01*
X1155906Y278379D01*
X1156496Y277743D01*
X1157071Y277093D01*
X1157630Y276429D01*
X1158172Y275752D01*
X1158697Y275061D01*
X1159206Y274358D01*
X1159697Y273642D01*
X1160170Y272915D01*
X1160625Y272176D01*
X1161062Y271426D01*
X1161480Y270666D01*
X1161880Y269896D01*
X1162261Y269116D01*
X1162622Y268327D01*
X1162964Y267530D01*
X1163286Y266724D01*
X1163588Y265911D01*
X1163871Y265090D01*
X1164133Y264263D01*
X1164374Y263430D01*
X1164595Y262591D01*
X1164796Y261746D01*
X1164976Y260897D01*
X1165134Y260044D01*
X1165272Y259188D01*
X1165389Y258328D01*
X1165485Y257465D01*
X1165559Y256601D01*
X1165612Y255735D01*
X1165644Y254868D01*
X1165655Y254000D01*
X1165644Y253132D01*
X1165612Y252265D01*
X1165559Y251399D01*
X1165485Y250535D01*
X1165389Y249672D01*
X1165272Y248812D01*
X1165134Y247956D01*
X1164976Y247103D01*
X1164796Y246254D01*
X1164595Y245409D01*
X1164374Y244570D01*
X1164133Y243737D01*
X1163871Y242910D01*
X1163588Y242089D01*
X1163286Y241276D01*
X1162964Y240470D01*
X1162622Y239673D01*
X1162261Y238884D01*
X1161880Y238104D01*
X1161480Y237334D01*
X1161062Y236574D01*
X1160625Y235824D01*
X1160170Y235085D01*
X1159697Y234358D01*
X1159206Y233642D01*
X1158697Y232939D01*
X1158172Y232248D01*
X1157630Y231571D01*
X1157071Y230907D01*
X1156496Y230257D01*
X1155906Y229621D01*
X1155300Y229000D01*
X1154679Y228394D01*
X1154043Y227804D01*
X1153393Y227229D01*
X1152729Y226670D01*
X1152052Y226128D01*
X1151361Y225603D01*
X1150658Y225094D01*
X1149942Y224603D01*
X1149215Y224130D01*
X1148476Y223675D01*
X1147726Y223238D01*
X1146966Y222820D01*
X1146196Y222420D01*
X1145416Y222039D01*
X1144627Y221678D01*
X1143830Y221336D01*
X1143024Y221014D01*
X1142211Y220712D01*
X1141390Y220429D01*
X1140563Y220167D01*
X1139730Y219926D01*
X1138891Y219705D01*
X1138046Y219504D01*
X1137197Y219324D01*
X1136344Y219166D01*
X1135488Y219028D01*
X1134628Y218911D01*
X1133765Y218815D01*
X1132901Y218741D01*
X1132035Y218688D01*
X1131168Y218656D01*
X1130300Y218645D01*
X1129432Y218656D01*
X1128565Y218688D01*
X1127699Y218741D01*
X1126835Y218815D01*
X1125972Y218911D01*
X1125112Y219028D01*
X1124256Y219166D01*
X1123403Y219324D01*
X1122554Y219504D01*
X1121709Y219705D01*
X1120870Y219926D01*
X1120037Y220167D01*
X1119210Y220429D01*
X1118389Y220712D01*
X1117576Y221014D01*
X1116770Y221336D01*
X1115973Y221678D01*
X1115184Y222039D01*
X1114404Y222420D01*
X1113634Y222820D01*
X1112874Y223238D01*
X1112124Y223675D01*
X1111385Y224130D01*
X1110658Y224603D01*
X1109942Y225094D01*
X1109239Y225603D01*
X1108548Y226128D01*
X1107871Y226670D01*
X1107207Y227229D01*
X1106557Y227804D01*
X1105921Y228394D01*
X1105300Y229000D01*
X1104694Y229621D01*
X1104104Y230257D01*
X1103529Y230907D01*
X1102970Y231571D01*
X1102428Y232248D01*
X1101903Y232939D01*
X1101394Y233642D01*
X1100903Y234358D01*
X1100430Y235085D01*
X1099975Y235824D01*
X1099538Y236574D01*
X1099120Y237334D01*
X1098720Y238104D01*
X1098339Y238884D01*
X1097978Y239673D01*
X1097636Y240470D01*
X1097314Y241276D01*
X1097012Y242089D01*
X1096729Y242910D01*
X1096467Y243737D01*
X1096226Y244570D01*
X1096005Y245409D01*
X1095804Y246254D01*
X1095624Y247103D01*
X1095466Y247956D01*
X1095328Y248812D01*
X1095211Y249672D01*
X1095115Y250535D01*
X1095041Y251399D01*
X1094988Y252265D01*
X1094956Y253132D01*
X1094945Y254000D01*
X1110300Y274000D02*
X1150300Y274000D01*
X1150300Y234000D01*
X1110300Y234000D01*
X1110300Y274000D01*
X1070300Y291500D02*
X1070300Y304000D01*
X1070300Y266500D02*
X1070300Y241500D01*
X1070300Y216500D02*
X1070300Y204000D01*
X1190300Y291500D02*
X1190300Y304000D01*
X1190300Y266500D02*
X1190300Y241500D01*
X1190300Y216500D02*
X1190300Y204000D01*
D12*
X1083903Y318008D02*
X1084002Y318010D01*
X1084102Y318016D01*
X1084201Y318025D01*
X1084299Y318038D01*
X1084397Y318055D01*
X1084495Y318076D01*
X1084591Y318101D01*
X1084686Y318129D01*
X1084780Y318161D01*
X1084873Y318196D01*
X1084965Y318235D01*
X1085055Y318278D01*
X1085143Y318323D01*
X1085230Y318373D01*
X1085314Y318425D01*
X1085397Y318481D01*
X1085477Y318539D01*
X1085555Y318601D01*
X1085630Y318666D01*
X1085703Y318734D01*
X1085773Y318804D01*
X1085841Y318877D01*
X1085906Y318952D01*
X1085968Y319030D01*
X1086026Y319110D01*
X1086082Y319193D01*
X1086134Y319277D01*
X1086184Y319364D01*
X1086229Y319452D01*
X1086272Y319542D01*
X1086311Y319634D01*
X1086346Y319727D01*
X1086378Y319821D01*
X1086406Y319916D01*
X1086431Y320012D01*
X1086452Y320110D01*
X1086469Y320208D01*
X1086482Y320306D01*
X1086491Y320405D01*
X1086497Y320505D01*
X1086499Y320604D01*
X1083903Y318008D02*
X1083759Y318010D01*
X1083614Y318016D01*
X1083470Y318025D01*
X1083327Y318038D01*
X1083183Y318055D01*
X1083040Y318076D01*
X1082898Y318101D01*
X1082757Y318129D01*
X1082616Y318161D01*
X1082476Y318197D01*
X1082337Y318236D01*
X1082199Y318279D01*
X1082063Y318326D01*
X1081927Y318376D01*
X1081793Y318430D01*
X1081661Y318487D01*
X1081530Y318548D01*
X1081401Y318612D01*
X1081273Y318680D01*
X1081147Y318750D01*
X1081023Y318825D01*
X1080902Y318902D01*
X1080782Y318983D01*
X1080664Y319066D01*
X1080549Y319153D01*
X1080436Y319243D01*
X1080325Y319336D01*
X1080217Y319431D01*
X1080111Y319530D01*
X1080008Y319631D01*
X1080333Y327096D02*
X1080335Y327195D01*
X1080341Y327295D01*
X1080350Y327394D01*
X1080363Y327492D01*
X1080380Y327590D01*
X1080401Y327688D01*
X1080426Y327784D01*
X1080454Y327879D01*
X1080486Y327973D01*
X1080521Y328066D01*
X1080560Y328158D01*
X1080603Y328248D01*
X1080648Y328336D01*
X1080698Y328423D01*
X1080750Y328507D01*
X1080806Y328590D01*
X1080864Y328670D01*
X1080926Y328748D01*
X1080991Y328823D01*
X1081059Y328896D01*
X1081129Y328966D01*
X1081202Y329034D01*
X1081277Y329099D01*
X1081355Y329161D01*
X1081435Y329219D01*
X1081518Y329275D01*
X1081602Y329327D01*
X1081689Y329377D01*
X1081777Y329422D01*
X1081867Y329465D01*
X1081959Y329504D01*
X1082052Y329539D01*
X1082146Y329571D01*
X1082241Y329599D01*
X1082338Y329624D01*
X1082435Y329645D01*
X1082533Y329662D01*
X1082631Y329675D01*
X1082730Y329684D01*
X1082830Y329690D01*
X1082929Y329692D01*
X1083065Y329690D01*
X1083201Y329684D01*
X1083337Y329675D01*
X1083473Y329662D01*
X1083608Y329644D01*
X1083742Y329624D01*
X1083876Y329599D01*
X1084010Y329571D01*
X1084142Y329538D01*
X1084273Y329503D01*
X1084404Y329463D01*
X1084533Y329420D01*
X1084661Y329374D01*
X1084787Y329323D01*
X1084913Y329270D01*
X1085036Y329212D01*
X1085158Y329152D01*
X1085278Y329088D01*
X1085397Y329020D01*
X1085513Y328950D01*
X1085627Y328876D01*
X1085740Y328799D01*
X1085850Y328718D01*
X1081631Y324824D02*
X1081545Y324877D01*
X1081461Y324934D01*
X1081379Y324993D01*
X1081299Y325056D01*
X1081222Y325122D01*
X1081147Y325190D01*
X1081075Y325262D01*
X1081006Y325336D01*
X1080940Y325413D01*
X1080877Y325492D01*
X1080817Y325574D01*
X1080760Y325658D01*
X1080706Y325744D01*
X1080656Y325832D01*
X1080609Y325922D01*
X1080565Y326013D01*
X1080526Y326107D01*
X1080489Y326201D01*
X1080457Y326297D01*
X1080428Y326395D01*
X1080403Y326493D01*
X1080382Y326592D01*
X1080364Y326692D01*
X1080351Y326792D01*
X1080341Y326893D01*
X1080335Y326995D01*
X1080333Y327096D01*
X1085201Y322876D02*
X1085287Y322823D01*
X1085371Y322766D01*
X1085453Y322707D01*
X1085533Y322644D01*
X1085610Y322578D01*
X1085685Y322510D01*
X1085757Y322438D01*
X1085826Y322364D01*
X1085892Y322287D01*
X1085955Y322208D01*
X1086015Y322126D01*
X1086072Y322042D01*
X1086126Y321956D01*
X1086176Y321868D01*
X1086223Y321778D01*
X1086267Y321687D01*
X1086306Y321593D01*
X1086343Y321499D01*
X1086375Y321403D01*
X1086404Y321305D01*
X1086429Y321207D01*
X1086450Y321108D01*
X1086468Y321008D01*
X1086481Y320908D01*
X1086491Y320807D01*
X1086497Y320705D01*
X1086499Y320604D01*
X1085201Y322876D02*
X1081631Y324824D01*
X1090634Y329692D02*
X1093230Y318008D01*
X1095827Y325797D01*
X1098423Y318008D01*
X1101019Y329692D01*
X1105535Y327096D02*
X1108781Y329692D01*
X1108781Y318008D01*
X1112026Y318008D02*
X1105535Y318008D01*
D15*
X250500Y204000D02*
X250497Y203758D01*
X250488Y203517D01*
X250474Y203276D01*
X250453Y203035D01*
X250427Y202795D01*
X250395Y202555D01*
X250357Y202316D01*
X250314Y202079D01*
X250264Y201842D01*
X250209Y201607D01*
X250149Y201373D01*
X250082Y201141D01*
X250011Y200910D01*
X249933Y200681D01*
X249850Y200454D01*
X249762Y200229D01*
X249668Y200006D01*
X249569Y199786D01*
X249464Y199568D01*
X249355Y199353D01*
X249240Y199140D01*
X249120Y198930D01*
X248995Y198724D01*
X248865Y198520D01*
X248730Y198319D01*
X248590Y198122D01*
X248446Y197928D01*
X248297Y197738D01*
X248143Y197552D01*
X247985Y197369D01*
X247823Y197190D01*
X247656Y197015D01*
X247485Y196844D01*
X247310Y196677D01*
X247131Y196515D01*
X246948Y196357D01*
X246762Y196203D01*
X246572Y196054D01*
X246378Y195910D01*
X246181Y195770D01*
X245980Y195635D01*
X245776Y195505D01*
X245570Y195380D01*
X245360Y195260D01*
X245147Y195145D01*
X244932Y195036D01*
X244714Y194931D01*
X244494Y194832D01*
X244271Y194738D01*
X244046Y194650D01*
X243819Y194567D01*
X243590Y194489D01*
X243359Y194418D01*
X243127Y194351D01*
X242893Y194291D01*
X242658Y194236D01*
X242421Y194186D01*
X242184Y194143D01*
X241945Y194105D01*
X241705Y194073D01*
X241465Y194047D01*
X241224Y194026D01*
X240983Y194012D01*
X240742Y194003D01*
X240500Y194000D01*
X140500Y194000D01*
X140258Y194003D01*
X140017Y194012D01*
X139776Y194026D01*
X139535Y194047D01*
X139295Y194073D01*
X139055Y194105D01*
X138816Y194143D01*
X138579Y194186D01*
X138342Y194236D01*
X138107Y194291D01*
X137873Y194351D01*
X137641Y194418D01*
X137410Y194489D01*
X137181Y194567D01*
X136954Y194650D01*
X136729Y194738D01*
X136506Y194832D01*
X136286Y194931D01*
X136068Y195036D01*
X135853Y195145D01*
X135640Y195260D01*
X135430Y195380D01*
X135224Y195505D01*
X135020Y195635D01*
X134819Y195770D01*
X134622Y195910D01*
X134428Y196054D01*
X134238Y196203D01*
X134052Y196357D01*
X133869Y196515D01*
X133690Y196677D01*
X133515Y196844D01*
X133344Y197015D01*
X133177Y197190D01*
X133015Y197369D01*
X132857Y197552D01*
X132703Y197738D01*
X132554Y197928D01*
X132410Y198122D01*
X132270Y198319D01*
X132135Y198520D01*
X132005Y198724D01*
X131880Y198930D01*
X131760Y199140D01*
X131645Y199353D01*
X131536Y199568D01*
X131431Y199786D01*
X131332Y200006D01*
X131238Y200229D01*
X131150Y200454D01*
X131067Y200681D01*
X130989Y200910D01*
X130918Y201141D01*
X130851Y201373D01*
X130791Y201607D01*
X130736Y201842D01*
X130686Y202079D01*
X130643Y202316D01*
X130605Y202555D01*
X130573Y202795D01*
X130547Y203035D01*
X130526Y203276D01*
X130512Y203517D01*
X130503Y203758D01*
X130500Y204000D01*
X130500Y304000D02*
X130503Y304242D01*
X130512Y304483D01*
X130526Y304724D01*
X130547Y304965D01*
X130573Y305205D01*
X130605Y305445D01*
X130643Y305684D01*
X130686Y305921D01*
X130736Y306158D01*
X130791Y306393D01*
X130851Y306627D01*
X130918Y306859D01*
X130989Y307090D01*
X131067Y307319D01*
X131150Y307546D01*
X131238Y307771D01*
X131332Y307994D01*
X131431Y308214D01*
X131536Y308432D01*
X131645Y308647D01*
X131760Y308860D01*
X131880Y309070D01*
X132005Y309276D01*
X132135Y309480D01*
X132270Y309681D01*
X132410Y309878D01*
X132554Y310072D01*
X132703Y310262D01*
X132857Y310448D01*
X133015Y310631D01*
X133177Y310810D01*
X133344Y310985D01*
X133515Y311156D01*
X133690Y311323D01*
X133869Y311485D01*
X134052Y311643D01*
X134238Y311797D01*
X134428Y311946D01*
X134622Y312090D01*
X134819Y312230D01*
X135020Y312365D01*
X135224Y312495D01*
X135430Y312620D01*
X135640Y312740D01*
X135853Y312855D01*
X136068Y312964D01*
X136286Y313069D01*
X136506Y313168D01*
X136729Y313262D01*
X136954Y313350D01*
X137181Y313433D01*
X137410Y313511D01*
X137641Y313582D01*
X137873Y313649D01*
X138107Y313709D01*
X138342Y313764D01*
X138579Y313814D01*
X138816Y313857D01*
X139055Y313895D01*
X139295Y313927D01*
X139535Y313953D01*
X139776Y313974D01*
X140017Y313988D01*
X140258Y313997D01*
X140500Y314000D01*
X240500Y314000D01*
X240742Y313997D01*
X240983Y313988D01*
X241224Y313974D01*
X241465Y313953D01*
X241705Y313927D01*
X241945Y313895D01*
X242184Y313857D01*
X242421Y313814D01*
X242658Y313764D01*
X242893Y313709D01*
X243127Y313649D01*
X243359Y313582D01*
X243590Y313511D01*
X243819Y313433D01*
X244046Y313350D01*
X244271Y313262D01*
X244494Y313168D01*
X244714Y313069D01*
X244932Y312964D01*
X245147Y312855D01*
X245360Y312740D01*
X245570Y312620D01*
X245776Y312495D01*
X245980Y312365D01*
X246181Y312230D01*
X246378Y312090D01*
X246572Y311946D01*
X246762Y311797D01*
X246948Y311643D01*
X247131Y311485D01*
X247310Y311323D01*
X247485Y311156D01*
X247656Y310985D01*
X247823Y310810D01*
X247985Y310631D01*
X248143Y310448D01*
X248297Y310262D01*
X248446Y310072D01*
X248590Y309878D01*
X248730Y309681D01*
X248865Y309480D01*
X248995Y309276D01*
X249120Y309070D01*
X249240Y308860D01*
X249355Y308647D01*
X249464Y308432D01*
X249569Y308214D01*
X249668Y307994D01*
X249762Y307771D01*
X249850Y307546D01*
X249933Y307319D01*
X250011Y307090D01*
X250082Y306859D01*
X250149Y306627D01*
X250209Y306393D01*
X250264Y306158D01*
X250314Y305921D01*
X250357Y305684D01*
X250395Y305445D01*
X250427Y305205D01*
X250453Y304965D01*
X250474Y304724D01*
X250488Y304483D01*
X250497Y304242D01*
X250500Y304000D01*
X155145Y254000D02*
X155156Y254868D01*
X155188Y255735D01*
X155241Y256601D01*
X155315Y257465D01*
X155411Y258328D01*
X155528Y259188D01*
X155666Y260044D01*
X155824Y260897D01*
X156004Y261746D01*
X156205Y262591D01*
X156426Y263430D01*
X156667Y264263D01*
X156929Y265090D01*
X157212Y265911D01*
X157514Y266724D01*
X157836Y267530D01*
X158178Y268327D01*
X158539Y269116D01*
X158920Y269896D01*
X159320Y270666D01*
X159738Y271426D01*
X160175Y272176D01*
X160630Y272915D01*
X161103Y273642D01*
X161594Y274358D01*
X162103Y275061D01*
X162628Y275752D01*
X163170Y276429D01*
X163729Y277093D01*
X164304Y277743D01*
X164894Y278379D01*
X165500Y279000D01*
X166121Y279606D01*
X166757Y280196D01*
X167407Y280771D01*
X168071Y281330D01*
X168748Y281872D01*
X169439Y282397D01*
X170142Y282906D01*
X170858Y283397D01*
X171585Y283870D01*
X172324Y284325D01*
X173074Y284762D01*
X173834Y285180D01*
X174604Y285580D01*
X175384Y285961D01*
X176173Y286322D01*
X176970Y286664D01*
X177776Y286986D01*
X178589Y287288D01*
X179410Y287571D01*
X180237Y287833D01*
X181070Y288074D01*
X181909Y288295D01*
X182754Y288496D01*
X183603Y288676D01*
X184456Y288834D01*
X185312Y288972D01*
X186172Y289089D01*
X187035Y289185D01*
X187899Y289259D01*
X188765Y289312D01*
X189632Y289344D01*
X190500Y289355D01*
X191368Y289344D01*
X192235Y289312D01*
X193101Y289259D01*
X193965Y289185D01*
X194828Y289089D01*
X195688Y288972D01*
X196544Y288834D01*
X197397Y288676D01*
X198246Y288496D01*
X199091Y288295D01*
X199930Y288074D01*
X200763Y287833D01*
X201590Y287571D01*
X202411Y287288D01*
X203224Y286986D01*
X204030Y286664D01*
X204827Y286322D01*
X205616Y285961D01*
X206396Y285580D01*
X207166Y285180D01*
X207926Y284762D01*
X208676Y284325D01*
X209415Y283870D01*
X210142Y283397D01*
X210858Y282906D01*
X211561Y282397D01*
X212252Y281872D01*
X212929Y281330D01*
X213593Y280771D01*
X214243Y280196D01*
X214879Y279606D01*
X215500Y279000D01*
X216106Y278379D01*
X216696Y277743D01*
X217271Y277093D01*
X217830Y276429D01*
X218372Y275752D01*
X218897Y275061D01*
X219406Y274358D01*
X219897Y273642D01*
X220370Y272915D01*
X220825Y272176D01*
X221262Y271426D01*
X221680Y270666D01*
X222080Y269896D01*
X222461Y269116D01*
X222822Y268327D01*
X223164Y267530D01*
X223486Y266724D01*
X223788Y265911D01*
X224071Y265090D01*
X224333Y264263D01*
X224574Y263430D01*
X224795Y262591D01*
X224996Y261746D01*
X225176Y260897D01*
X225334Y260044D01*
X225472Y259188D01*
X225589Y258328D01*
X225685Y257465D01*
X225759Y256601D01*
X225812Y255735D01*
X225844Y254868D01*
X225855Y254000D01*
X225844Y253132D01*
X225812Y252265D01*
X225759Y251399D01*
X225685Y250535D01*
X225589Y249672D01*
X225472Y248812D01*
X225334Y247956D01*
X225176Y247103D01*
X224996Y246254D01*
X224795Y245409D01*
X224574Y244570D01*
X224333Y243737D01*
X224071Y242910D01*
X223788Y242089D01*
X223486Y241276D01*
X223164Y240470D01*
X222822Y239673D01*
X222461Y238884D01*
X222080Y238104D01*
X221680Y237334D01*
X221262Y236574D01*
X220825Y235824D01*
X220370Y235085D01*
X219897Y234358D01*
X219406Y233642D01*
X218897Y232939D01*
X218372Y232248D01*
X217830Y231571D01*
X217271Y230907D01*
X216696Y230257D01*
X216106Y229621D01*
X215500Y229000D01*
X214879Y228394D01*
X214243Y227804D01*
X213593Y227229D01*
X212929Y226670D01*
X212252Y226128D01*
X211561Y225603D01*
X210858Y225094D01*
X210142Y224603D01*
X209415Y224130D01*
X208676Y223675D01*
X207926Y223238D01*
X207166Y222820D01*
X206396Y222420D01*
X205616Y222039D01*
X204827Y221678D01*
X204030Y221336D01*
X203224Y221014D01*
X202411Y220712D01*
X201590Y220429D01*
X200763Y220167D01*
X199930Y219926D01*
X199091Y219705D01*
X198246Y219504D01*
X197397Y219324D01*
X196544Y219166D01*
X195688Y219028D01*
X194828Y218911D01*
X193965Y218815D01*
X193101Y218741D01*
X192235Y218688D01*
X191368Y218656D01*
X190500Y218645D01*
X189632Y218656D01*
X188765Y218688D01*
X187899Y218741D01*
X187035Y218815D01*
X186172Y218911D01*
X185312Y219028D01*
X184456Y219166D01*
X183603Y219324D01*
X182754Y219504D01*
X181909Y219705D01*
X181070Y219926D01*
X180237Y220167D01*
X179410Y220429D01*
X178589Y220712D01*
X177776Y221014D01*
X176970Y221336D01*
X176173Y221678D01*
X175384Y222039D01*
X174604Y222420D01*
X173834Y222820D01*
X173074Y223238D01*
X172324Y223675D01*
X171585Y224130D01*
X170858Y224603D01*
X170142Y225094D01*
X169439Y225603D01*
X168748Y226128D01*
X168071Y226670D01*
X167407Y227229D01*
X166757Y227804D01*
X166121Y228394D01*
X165500Y229000D01*
X164894Y229621D01*
X164304Y230257D01*
X163729Y230907D01*
X163170Y231571D01*
X162628Y232248D01*
X162103Y232939D01*
X161594Y233642D01*
X161103Y234358D01*
X160630Y235085D01*
X160175Y235824D01*
X159738Y236574D01*
X159320Y237334D01*
X158920Y238104D01*
X158539Y238884D01*
X158178Y239673D01*
X157836Y240470D01*
X157514Y241276D01*
X157212Y242089D01*
X156929Y242910D01*
X156667Y243737D01*
X156426Y244570D01*
X156205Y245409D01*
X156004Y246254D01*
X155824Y247103D01*
X155666Y247956D01*
X155528Y248812D01*
X155411Y249672D01*
X155315Y250535D01*
X155241Y251399D01*
X155188Y252265D01*
X155156Y253132D01*
X155145Y254000D01*
X170500Y274000D02*
X210500Y274000D01*
X210500Y234000D01*
X170500Y234000D01*
X170500Y274000D01*
X130500Y291500D02*
X130500Y304000D01*
X130500Y266500D02*
X130500Y241500D01*
X130500Y216500D02*
X130500Y204000D01*
X250500Y291500D02*
X250500Y304000D01*
X250500Y266500D02*
X250500Y241500D01*
X250500Y216500D02*
X250500Y204000D01*
D12*
X144103Y318008D02*
X144202Y318010D01*
X144302Y318016D01*
X144401Y318025D01*
X144499Y318038D01*
X144597Y318055D01*
X144695Y318076D01*
X144791Y318101D01*
X144886Y318129D01*
X144980Y318161D01*
X145073Y318196D01*
X145165Y318235D01*
X145255Y318278D01*
X145343Y318323D01*
X145430Y318373D01*
X145514Y318425D01*
X145597Y318481D01*
X145677Y318539D01*
X145755Y318601D01*
X145830Y318666D01*
X145903Y318734D01*
X145973Y318804D01*
X146041Y318877D01*
X146106Y318952D01*
X146168Y319030D01*
X146226Y319110D01*
X146282Y319193D01*
X146334Y319277D01*
X146384Y319364D01*
X146429Y319452D01*
X146472Y319542D01*
X146511Y319634D01*
X146546Y319727D01*
X146578Y319821D01*
X146606Y319916D01*
X146631Y320012D01*
X146652Y320110D01*
X146669Y320208D01*
X146682Y320306D01*
X146691Y320405D01*
X146697Y320505D01*
X146699Y320604D01*
X144103Y318008D02*
X143959Y318010D01*
X143814Y318016D01*
X143670Y318025D01*
X143527Y318038D01*
X143383Y318055D01*
X143240Y318076D01*
X143098Y318101D01*
X142957Y318129D01*
X142816Y318161D01*
X142676Y318197D01*
X142537Y318236D01*
X142399Y318279D01*
X142263Y318326D01*
X142127Y318376D01*
X141993Y318430D01*
X141861Y318487D01*
X141730Y318548D01*
X141601Y318612D01*
X141473Y318680D01*
X141347Y318750D01*
X141223Y318825D01*
X141102Y318902D01*
X140982Y318983D01*
X140864Y319066D01*
X140749Y319153D01*
X140636Y319243D01*
X140525Y319336D01*
X140417Y319431D01*
X140311Y319530D01*
X140208Y319631D01*
X140533Y327096D02*
X140535Y327195D01*
X140541Y327295D01*
X140550Y327394D01*
X140563Y327492D01*
X140580Y327590D01*
X140601Y327688D01*
X140626Y327784D01*
X140654Y327879D01*
X140686Y327973D01*
X140721Y328066D01*
X140760Y328158D01*
X140803Y328248D01*
X140848Y328336D01*
X140898Y328423D01*
X140950Y328507D01*
X141006Y328590D01*
X141064Y328670D01*
X141126Y328748D01*
X141191Y328823D01*
X141259Y328896D01*
X141329Y328966D01*
X141402Y329034D01*
X141477Y329099D01*
X141555Y329161D01*
X141635Y329219D01*
X141718Y329275D01*
X141802Y329327D01*
X141889Y329377D01*
X141977Y329422D01*
X142067Y329465D01*
X142159Y329504D01*
X142252Y329539D01*
X142346Y329571D01*
X142441Y329599D01*
X142538Y329624D01*
X142635Y329645D01*
X142733Y329662D01*
X142831Y329675D01*
X142930Y329684D01*
X143030Y329690D01*
X143129Y329692D01*
X143265Y329690D01*
X143401Y329684D01*
X143537Y329675D01*
X143673Y329662D01*
X143808Y329644D01*
X143942Y329624D01*
X144076Y329599D01*
X144210Y329571D01*
X144342Y329538D01*
X144473Y329503D01*
X144604Y329463D01*
X144733Y329420D01*
X144861Y329374D01*
X144987Y329323D01*
X145113Y329270D01*
X145236Y329212D01*
X145358Y329152D01*
X145478Y329088D01*
X145597Y329020D01*
X145713Y328950D01*
X145827Y328876D01*
X145940Y328799D01*
X146050Y328718D01*
X141831Y324824D02*
X141745Y324877D01*
X141661Y324934D01*
X141579Y324993D01*
X141499Y325056D01*
X141422Y325122D01*
X141347Y325190D01*
X141275Y325262D01*
X141206Y325336D01*
X141140Y325413D01*
X141077Y325492D01*
X141017Y325574D01*
X140960Y325658D01*
X140906Y325744D01*
X140856Y325832D01*
X140809Y325922D01*
X140765Y326013D01*
X140726Y326107D01*
X140689Y326201D01*
X140657Y326297D01*
X140628Y326395D01*
X140603Y326493D01*
X140582Y326592D01*
X140564Y326692D01*
X140551Y326792D01*
X140541Y326893D01*
X140535Y326995D01*
X140533Y327096D01*
X145401Y322876D02*
X145487Y322823D01*
X145571Y322766D01*
X145653Y322707D01*
X145733Y322644D01*
X145810Y322578D01*
X145885Y322510D01*
X145957Y322438D01*
X146026Y322364D01*
X146092Y322287D01*
X146155Y322208D01*
X146215Y322126D01*
X146272Y322042D01*
X146326Y321956D01*
X146376Y321868D01*
X146423Y321778D01*
X146467Y321687D01*
X146506Y321593D01*
X146543Y321499D01*
X146575Y321403D01*
X146604Y321305D01*
X146629Y321207D01*
X146650Y321108D01*
X146668Y321008D01*
X146681Y320908D01*
X146691Y320807D01*
X146697Y320705D01*
X146699Y320604D01*
X145401Y322876D02*
X141831Y324824D01*
X150834Y329692D02*
X153430Y318008D01*
X156027Y325797D01*
X158623Y318008D01*
X161219Y329692D01*
X169305Y329692D02*
X169412Y329690D01*
X169518Y329684D01*
X169624Y329674D01*
X169730Y329661D01*
X169836Y329643D01*
X169940Y329622D01*
X170044Y329597D01*
X170147Y329568D01*
X170248Y329536D01*
X170348Y329499D01*
X170447Y329459D01*
X170545Y329416D01*
X170641Y329369D01*
X170735Y329318D01*
X170827Y329264D01*
X170917Y329207D01*
X171005Y329147D01*
X171090Y329083D01*
X171173Y329016D01*
X171254Y328946D01*
X171332Y328874D01*
X171408Y328798D01*
X171480Y328720D01*
X171550Y328639D01*
X171617Y328556D01*
X171681Y328471D01*
X171741Y328383D01*
X171798Y328293D01*
X171852Y328201D01*
X171903Y328107D01*
X171950Y328011D01*
X171993Y327913D01*
X172033Y327814D01*
X172070Y327714D01*
X172102Y327613D01*
X172131Y327510D01*
X172156Y327406D01*
X172177Y327302D01*
X172195Y327196D01*
X172208Y327090D01*
X172218Y326984D01*
X172224Y326878D01*
X172226Y326771D01*
X169305Y329692D02*
X169184Y329690D01*
X169063Y329684D01*
X168943Y329674D01*
X168822Y329661D01*
X168703Y329643D01*
X168583Y329622D01*
X168465Y329597D01*
X168348Y329568D01*
X168231Y329535D01*
X168116Y329499D01*
X168002Y329458D01*
X167889Y329415D01*
X167777Y329367D01*
X167668Y329316D01*
X167560Y329261D01*
X167453Y329203D01*
X167349Y329142D01*
X167247Y329077D01*
X167147Y329009D01*
X167049Y328938D01*
X166953Y328864D01*
X166860Y328787D01*
X166770Y328706D01*
X166682Y328623D01*
X166597Y328537D01*
X166514Y328448D01*
X166435Y328357D01*
X166358Y328263D01*
X166285Y328167D01*
X166215Y328069D01*
X166148Y327968D01*
X166084Y327865D01*
X166024Y327760D01*
X165967Y327653D01*
X165913Y327545D01*
X165863Y327435D01*
X165817Y327323D01*
X165774Y327210D01*
X165735Y327095D01*
X171253Y324499D02*
X171332Y324576D01*
X171408Y324657D01*
X171481Y324740D01*
X171551Y324825D01*
X171618Y324913D01*
X171682Y325003D01*
X171742Y325095D01*
X171799Y325190D01*
X171853Y325286D01*
X171904Y325384D01*
X171951Y325484D01*
X171995Y325586D01*
X172035Y325689D01*
X172071Y325793D01*
X172103Y325899D01*
X172132Y326005D01*
X172157Y326113D01*
X172179Y326221D01*
X172196Y326331D01*
X172210Y326440D01*
X172219Y326550D01*
X172225Y326661D01*
X172227Y326771D01*
X171252Y324499D02*
X165735Y318008D01*
X172226Y318008D01*
M02*
