M48
;GenerationSoftware,Autodesk,EAGLE,9.6.2*%
;CreationDate,2025-12-19T11:02:41Z*%
FMAT,2
ICI,OFF
METRIC,TZ,000.000
T9C0.305
T8C0.889
T7C0.920
T6C1.000
T5C1.400
T4C2.300
T3C2.500
T2C3.000
T1C3.175
%
G90
M71
T1
X3810Y71120
X93980Y3810
X3810Y3810
X93980Y71120
T2
X11430Y13335
X11430Y70485
X87630Y13335
X87630Y70485
T3
X54690Y9540
X64690Y9540
X34370Y9540
X44370Y9540
T4
X86530Y35470
X86530Y22330
T5
X68680Y11390
X81180Y6390
X81180Y11390
X17880Y11390
X17880Y6390
X68680Y6390
X30380Y11390
X30380Y6390
T6
X11430Y60960
X11430Y63500
X11430Y66040
X41870Y2540
X39370Y2540
X36870Y2540
X62190Y2540
X59690Y2540
X57190Y2540
X11430Y17780
X11430Y20320
X11430Y22860
X11430Y25400
X11430Y27940
X11430Y30480
X11430Y33020
X11430Y35560
X11430Y38100
X11430Y40640
X11430Y43180
X11430Y45720
X11430Y48260
X11430Y50800
X11430Y53340
X11430Y55880
X11430Y58420
T7
X83820Y25400
X83820Y27900
X83820Y29900
X83820Y32400
T8
X37820Y61400
X35280Y25840
X63220Y23300
X60680Y23300
X63220Y25840
X60680Y25840
X63220Y28380
X60680Y28380
X63220Y30920
X60680Y30920
X63220Y33460
X60680Y33460
X63220Y36000
X60680Y36000
X63220Y38540
X35280Y66480
X37820Y66480
X35280Y63940
X37820Y63940
X35280Y61400
X60680Y38540
X35280Y58860
X37820Y58860
X35280Y56320
X37820Y56320
X35280Y53780
X37820Y53780
X35280Y51240
X37820Y51240
X35280Y48700
X37820Y48700
X35280Y46160
X37820Y46160
X35280Y43620
X37820Y43620
X35280Y41080
X37820Y41080
X35280Y38540
X37820Y38540
X35280Y36000
X37820Y36000
X35280Y33460
X37820Y33460
X35280Y30920
X37820Y30920
X35280Y28380
X37820Y28380
X63220Y41080
X37820Y25840
X35280Y23300
X37820Y23300
X60680Y66480
X63220Y66480
X60680Y63940
X63220Y63940
X60680Y61400
X63220Y61400
X60680Y58860
X63220Y58860
X60680Y56320
X63220Y56320
X60680Y53780
X63220Y53780
X60680Y51240
X63220Y51240
X60680Y48700
X63220Y48700
X60680Y46160
X63220Y46160
X60680Y43620
X63220Y43620
X60680Y41080
T9
X76670Y21590
X71120Y21590
X42672Y31496
X45466Y28194
X66548Y12700
X59436Y42164
X45720Y62230
X45720Y49352
X57150Y26670
X13970Y21590
X47574Y42164
X36068Y21082
X48260Y8890
X46990Y49784
X67310Y24384
X40386Y48006
X45720Y40640
X49530Y38100
X39116Y49276
X46990Y30734
X37363Y42299
M30
